<?xml version="1.0" encoding="utf-8"?>
<!-- Generator: Adobe Illustrator 20.0.0, SVG Export Plug-In . SVG Version: 6.00 Build 0)  -->
<svg version="1.1" id="Layer_1" xmlns="http://www.w3.org/2000/svg" xmlns:xlink="http://www.w3.org/1999/xlink" x="0px" y="0px"
	 viewBox="0 0 500 200" style="enable-background:new 0 0 500 200;" xml:space="preserve">
<style type="text/css">
	.st0{opacity:0.3;}
	.st1{fill:#FFFFFF;}
</style>
<g class="st0">
	<g>
		<g>
			<g>
				<path class="st1" d="M32.3,87.1c-0.6,0-1.1-0.5-1.1-1.1v-1.1c0-0.6,0.5-1.1,1.1-1.1c0.6,0,1.1,0.5,1.1,1.1v1.1
					C33.5,86.6,33,87.1,32.3,87.1z"/>
			</g>
			<g>
				<path class="st1" d="M32.3,110.2c-0.6,0-1.1-0.5-1.1-1.1v-2.6c0-0.6,0.5-1.1,1.1-1.1c0.6,0,1.1,0.5,1.1,1.1v2.6
					C33.5,109.7,33,110.2,32.3,110.2z M32.3,102.5c-0.6,0-1.1-0.5-1.1-1.1v-2.6c0-0.6,0.5-1.1,1.1-1.1c0.6,0,1.1,0.5,1.1,1.1v2.6
					C33.5,102,33,102.5,32.3,102.5z M32.3,94.8c-0.6,0-1.1-0.5-1.1-1.1v-2.6c0-0.6,0.5-1.1,1.1-1.1c0.6,0,1.1,0.5,1.1,1.1v2.6
					C33.5,94.3,33,94.8,32.3,94.8z"/>
			</g>
			<g>
				<path class="st1" d="M32.3,116.5c-0.6,0-1.1-0.5-1.1-1.1v-1.1c0-0.6,0.5-1.1,1.1-1.1c0.6,0,1.1,0.5,1.1,1.1v1.1
					C33.5,116,33,116.5,32.3,116.5z"/>
			</g>
		</g>
		<g>
			<g>
				<path class="st1" d="M39.4,106.8c-0.6,0-1.1-0.5-1.1-1.1v-1.1c0-0.6,0.5-1.1,1.1-1.1c0.6,0,1.1,0.5,1.1,1.1v1.1
					C40.5,106.2,40,106.8,39.4,106.8z"/>
			</g>
			<g>
				<path class="st1" d="M39.4,102.1c-0.6,0-1.1-0.5-1.1-1.1v-1.8c0-0.6,0.5-1.1,1.1-1.1c0.6,0,1.1,0.5,1.1,1.1v1.8
					C40.5,101.6,40,102.1,39.4,102.1z"/>
			</g>
			<g>
				<path class="st1" d="M39.4,96.8c-0.6,0-1.1-0.5-1.1-1.1v-1.1c0-0.6,0.5-1.1,1.1-1.1c0.6,0,1.1,0.5,1.1,1.1v1.1
					C40.5,96.3,40,96.8,39.4,96.8z"/>
			</g>
		</g>
		<g>
			<g>
				<path class="st1" d="M46.5,105.4c-0.6,0-1.1-0.5-1.1-1.1v-1.1c0-0.6,0.5-1.1,1.1-1.1c0.6,0,1.1,0.5,1.1,1.1v1.1
					C47.6,104.9,47.1,105.4,46.5,105.4z"/>
			</g>
			<g>
				<path class="st1" d="M46.5,101.8c-0.6,0-1.1-0.5-1.1-1.1v-1.2c0-0.6,0.5-1.1,1.1-1.1c0.6,0,1.1,0.5,1.1,1.1v1.2
					C47.6,101.3,47.1,101.8,46.5,101.8z"/>
			</g>
			<g>
				<path class="st1" d="M46.5,98.2c-0.6,0-1.1-0.5-1.1-1.1v-1.1c0-0.6,0.5-1.1,1.1-1.1c0.6,0,1.1,0.5,1.1,1.1V97
					C47.6,97.7,47.1,98.2,46.5,98.2z"/>
			</g>
		</g>
		<g>
			<g>
				<path class="st1" d="M109.7,105.4c-0.6,0-1.1-0.5-1.1-1.1v-1.1c0-0.6,0.5-1.1,1.1-1.1c0.6,0,1.1,0.5,1.1,1.1v1.1
					C110.9,104.9,110.4,105.4,109.7,105.4z"/>
			</g>
			<g>
				<path class="st1" d="M109.7,101.8c-0.6,0-1.1-0.5-1.1-1.1v-1.2c0-0.6,0.5-1.1,1.1-1.1c0.6,0,1.1,0.5,1.1,1.1v1.2
					C110.9,101.3,110.4,101.8,109.7,101.8z"/>
			</g>
			<g>
				<path class="st1" d="M109.7,98.2c-0.6,0-1.1-0.5-1.1-1.1v-1.1c0-0.6,0.5-1.1,1.1-1.1c0.6,0,1.1,0.5,1.1,1.1V97
					C110.9,97.7,110.4,98.2,109.7,98.2z"/>
			</g>
		</g>
		<g>
			<g>
				<path class="st1" d="M53.5,104c-0.6,0-1.1-0.5-1.1-1.1v-1.1c0-0.6,0.5-1.1,1.1-1.1c0.6,0,1.1,0.5,1.1,1.1v1.1
					C54.7,103.5,54.2,104,53.5,104z"/>
			</g>
			<g>
				<path class="st1" d="M53.5,99.6c-0.6,0-1.1-0.5-1.1-1.1v-1.1c0-0.6,0.5-1.1,1.1-1.1c0.6,0,1.1,0.5,1.1,1.1v1.1
					C54.7,99.1,54.2,99.6,53.5,99.6z"/>
			</g>
		</g>
		<g>
			<g>
				<path class="st1" d="M60.6,117c-0.6,0-1.1-0.5-1.1-1.1v-1.1c0-0.6,0.5-1.1,1.1-1.1c0.6,0,1.1,0.5,1.1,1.1v1.1
					C61.7,116.5,61.2,117,60.6,117z"/>
			</g>
			<g>
				<path class="st1" d="M60.6,111.7c-0.6,0-1.1-0.5-1.1-1.1v-2.1c0-0.6,0.5-1.1,1.1-1.1c0.6,0,1.1,0.5,1.1,1.1v2.1
					C61.7,111.2,61.2,111.7,60.6,111.7z M60.6,105.4c-0.6,0-1.1-0.5-1.1-1.1v-2.1c0-0.6,0.5-1.1,1.1-1.1c0.6,0,1.1,0.5,1.1,1.1v2.1
					C61.7,104.9,61.2,105.4,60.6,105.4z M60.6,99.1c-0.6,0-1.1-0.5-1.1-1.1v-2.1c0-0.6,0.5-1.1,1.1-1.1c0.6,0,1.1,0.5,1.1,1.1V98
					C61.7,98.6,61.2,99.1,60.6,99.1z M60.6,92.8c-0.6,0-1.1-0.5-1.1-1.1v-2.1c0-0.6,0.5-1.1,1.1-1.1c0.6,0,1.1,0.5,1.1,1.1v2.1
					C61.7,92.3,61.2,92.8,60.6,92.8z"/>
			</g>
			<g>
				<path class="st1" d="M60.6,86.5c-0.6,0-1.1-0.5-1.1-1.1v-1.1c0-0.6,0.5-1.1,1.1-1.1c0.6,0,1.1,0.5,1.1,1.1v1.1
					C61.7,86,61.2,86.5,60.6,86.5z"/>
			</g>
		</g>
		<g>
			<g>
				<path class="st1" d="M67.7,133.2c-0.6,0-1.1-0.5-1.1-1.1v-1.1c0-0.6,0.5-1.1,1.1-1.1s1.1,0.5,1.1,1.1v1.1
					C68.8,132.6,68.3,133.2,67.7,133.2z"/>
			</g>
			<g>
				<path class="st1" d="M67.7,127.3c-0.6,0-1.1-0.5-1.1-1.1v-2.4c0-0.6,0.5-1.1,1.1-1.1s1.1,0.5,1.1,1.1v2.4
					C68.8,126.8,68.3,127.3,67.7,127.3z M67.7,120.2c-0.6,0-1.1-0.5-1.1-1.1v-2.4c0-0.6,0.5-1.1,1.1-1.1s1.1,0.5,1.1,1.1v2.4
					C68.8,119.6,68.3,120.2,67.7,120.2z M67.7,113c-0.6,0-1.1-0.5-1.1-1.1v-2.4c0-0.6,0.5-1.1,1.1-1.1s1.1,0.5,1.1,1.1v2.4
					C68.8,112.5,68.3,113,67.7,113z M67.7,105.9c-0.6,0-1.1-0.5-1.1-1.1v-2.4c0-0.6,0.5-1.1,1.1-1.1s1.1,0.5,1.1,1.1v2.4
					C68.8,105.4,68.3,105.9,67.7,105.9z M67.7,98.8c-0.6,0-1.1-0.5-1.1-1.1v-2.4c0-0.6,0.5-1.1,1.1-1.1s1.1,0.5,1.1,1.1v2.4
					C68.8,98.3,68.3,98.8,67.7,98.8z M67.7,91.7c-0.6,0-1.1-0.5-1.1-1.1v-2.4c0-0.6,0.5-1.1,1.1-1.1s1.1,0.5,1.1,1.1v2.4
					C68.8,91.2,68.3,91.7,67.7,91.7z M67.7,84.6c-0.6,0-1.1-0.5-1.1-1.1v-2.4c0-0.6,0.5-1.1,1.1-1.1s1.1,0.5,1.1,1.1v2.4
					C68.8,84.1,68.3,84.6,67.7,84.6z M67.7,77.5c-0.6,0-1.1-0.5-1.1-1.1V74c0-0.6,0.5-1.1,1.1-1.1s1.1,0.5,1.1,1.1v2.4
					C68.8,77,68.3,77.5,67.7,77.5z"/>
			</g>
			<g>
				<path class="st1" d="M67.7,70.4c-0.6,0-1.1-0.5-1.1-1.1v-1.1c0-0.6,0.5-1.1,1.1-1.1s1.1,0.5,1.1,1.1v1.1
					C68.8,69.9,68.3,70.4,67.7,70.4z"/>
			</g>
		</g>
		<g>
			<g>
				<path class="st1" d="M74.7,170.7c-0.6,0-1.1-0.5-1.1-1.1v-1.1c0-0.6,0.5-1.1,1.1-1.1c0.6,0,1.1,0.5,1.1,1.1v1.1
					C75.9,170.2,75.4,170.7,74.7,170.7z"/>
			</g>
			<g>
				<path class="st1" d="M74.7,164.9c-0.6,0-1.1-0.5-1.1-1.1v-2.3c0-0.6,0.5-1.1,1.1-1.1c0.6,0,1.1,0.5,1.1,1.1v2.3
					C75.9,164.4,75.4,164.9,74.7,164.9z M74.7,157.9c-0.6,0-1.1-0.5-1.1-1.1v-2.3c0-0.6,0.5-1.1,1.1-1.1c0.6,0,1.1,0.5,1.1,1.1v2.3
					C75.9,157.4,75.4,157.9,74.7,157.9z M74.7,151c-0.6,0-1.1-0.5-1.1-1.1v-2.3c0-0.6,0.5-1.1,1.1-1.1c0.6,0,1.1,0.5,1.1,1.1v2.3
					C75.9,150.5,75.4,151,74.7,151z M74.7,144c-0.6,0-1.1-0.5-1.1-1.1v-2.3c0-0.6,0.5-1.1,1.1-1.1c0.6,0,1.1,0.5,1.1,1.1v2.3
					C75.9,143.5,75.4,144,74.7,144z M74.7,137.1c-0.6,0-1.1-0.5-1.1-1.1v-2.3c0-0.6,0.5-1.1,1.1-1.1c0.6,0,1.1,0.5,1.1,1.1v2.3
					C75.9,136.6,75.4,137.1,74.7,137.1z M74.7,130.2c-0.6,0-1.1-0.5-1.1-1.1v-2.3c0-0.6,0.5-1.1,1.1-1.1c0.6,0,1.1,0.5,1.1,1.1v2.3
					C75.9,129.6,75.4,130.2,74.7,130.2z M74.7,123.2c-0.6,0-1.1-0.5-1.1-1.1v-2.3c0-0.6,0.5-1.1,1.1-1.1c0.6,0,1.1,0.5,1.1,1.1v2.3
					C75.9,122.7,75.4,123.2,74.7,123.2z M74.7,116.3c-0.6,0-1.1-0.5-1.1-1.1v-2.3c0-0.6,0.5-1.1,1.1-1.1c0.6,0,1.1,0.5,1.1,1.1v2.3
					C75.9,115.7,75.4,116.3,74.7,116.3z M74.7,109.3c-0.6,0-1.1-0.5-1.1-1.1v-2.3c0-0.6,0.5-1.1,1.1-1.1c0.6,0,1.1,0.5,1.1,1.1v2.3
					C75.9,108.8,75.4,109.3,74.7,109.3z M74.7,102.4c-0.6,0-1.1-0.5-1.1-1.1v-2.3c0-0.6,0.5-1.1,1.1-1.1c0.6,0,1.1,0.5,1.1,1.1v2.3
					C75.9,101.8,75.4,102.4,74.7,102.4z M74.7,95.4c-0.6,0-1.1-0.5-1.1-1.1V92c0-0.6,0.5-1.1,1.1-1.1c0.6,0,1.1,0.5,1.1,1.1v2.3
					C75.9,94.9,75.4,95.4,74.7,95.4z M74.7,88.5c-0.6,0-1.1-0.5-1.1-1.1V85c0-0.6,0.5-1.1,1.1-1.1c0.6,0,1.1,0.5,1.1,1.1v2.3
					C75.9,88,75.4,88.5,74.7,88.5z M74.7,81.5c-0.6,0-1.1-0.5-1.1-1.1v-2.3c0-0.6,0.5-1.1,1.1-1.1c0.6,0,1.1,0.5,1.1,1.1v2.3
					C75.9,81,75.4,81.5,74.7,81.5z M74.7,74.6c-0.6,0-1.1-0.5-1.1-1.1v-2.3c0-0.6,0.5-1.1,1.1-1.1c0.6,0,1.1,0.5,1.1,1.1v2.3
					C75.9,74.1,75.4,74.6,74.7,74.6z M74.7,67.6c-0.6,0-1.1-0.5-1.1-1.1v-2.3c0-0.6,0.5-1.1,1.1-1.1c0.6,0,1.1,0.5,1.1,1.1v2.3
					C75.9,67.1,75.4,67.6,74.7,67.6z M74.7,60.7c-0.6,0-1.1-0.5-1.1-1.1v-2.3c0-0.6,0.5-1.1,1.1-1.1c0.6,0,1.1,0.5,1.1,1.1v2.3
					C75.9,60.2,75.4,60.7,74.7,60.7z M74.7,53.7c-0.6,0-1.1-0.5-1.1-1.1v-2.3c0-0.6,0.5-1.1,1.1-1.1c0.6,0,1.1,0.5,1.1,1.1v2.3
					C75.9,53.2,75.4,53.7,74.7,53.7z M74.7,46.8c-0.6,0-1.1-0.5-1.1-1.1v-2.3c0-0.6,0.5-1.1,1.1-1.1c0.6,0,1.1,0.5,1.1,1.1v2.3
					C75.9,46.3,75.4,46.8,74.7,46.8z M74.7,39.8c-0.6,0-1.1-0.5-1.1-1.1v-2.3c0-0.6,0.5-1.1,1.1-1.1c0.6,0,1.1,0.5,1.1,1.1v2.3
					C75.9,39.3,75.4,39.8,74.7,39.8z"/>
			</g>
			<g>
				<path class="st1" d="M74.7,32.9c-0.6,0-1.1-0.5-1.1-1.1v-1.1c0-0.6,0.5-1.1,1.1-1.1c0.6,0,1.1,0.5,1.1,1.1v1.1
					C75.9,32.4,75.4,32.9,74.7,32.9z"/>
			</g>
		</g>
		<g>
			<g>
				<path class="st1" d="M81.8,127.6c-0.6,0-1.1-0.5-1.1-1.1v-1.1c0-0.6,0.5-1.1,1.1-1.1s1.1,0.5,1.1,1.1v1.1
					C82.9,127.1,82.4,127.6,81.8,127.6z"/>
			</g>
			<g>
				<path class="st1" d="M81.8,122.1c-0.6,0-1.1-0.5-1.1-1.1v-2.2c0-0.6,0.5-1.1,1.1-1.1s1.1,0.5,1.1,1.1v2.2
					C82.9,121.5,82.4,122.1,81.8,122.1z M81.8,115.5c-0.6,0-1.1-0.5-1.1-1.1v-2.2c0-0.6,0.5-1.1,1.1-1.1s1.1,0.5,1.1,1.1v2.2
					C82.9,115,82.4,115.5,81.8,115.5z M81.8,108.9c-0.6,0-1.1-0.5-1.1-1.1v-2.2c0-0.6,0.5-1.1,1.1-1.1s1.1,0.5,1.1,1.1v2.2
					C82.9,108.4,82.4,108.9,81.8,108.9z M81.8,102.3c-0.6,0-1.1-0.5-1.1-1.1V99c0-0.6,0.5-1.1,1.1-1.1s1.1,0.5,1.1,1.1v2.2
					C82.9,101.8,82.4,102.3,81.8,102.3z M81.8,95.7c-0.6,0-1.1-0.5-1.1-1.1v-2.2c0-0.6,0.5-1.1,1.1-1.1s1.1,0.5,1.1,1.1v2.2
					C82.9,95.2,82.4,95.7,81.8,95.7z M81.8,89.1c-0.6,0-1.1-0.5-1.1-1.1v-2.2c0-0.6,0.5-1.1,1.1-1.1s1.1,0.5,1.1,1.1V88
					C82.9,88.6,82.4,89.1,81.8,89.1z M81.8,82.5c-0.6,0-1.1-0.5-1.1-1.1v-2.2c0-0.6,0.5-1.1,1.1-1.1s1.1,0.5,1.1,1.1v2.2
					C82.9,82,82.4,82.5,81.8,82.5z"/>
			</g>
			<g>
				<path class="st1" d="M81.8,76c-0.6,0-1.1-0.5-1.1-1.1v-1.1c0-0.6,0.5-1.1,1.1-1.1s1.1,0.5,1.1,1.1v1.1
					C82.9,75.4,82.4,76,81.8,76z"/>
			</g>
		</g>
		<g>
			<g>
				<path class="st1" d="M88.9,115.1c-0.6,0-1.1-0.5-1.1-1.1v-1.1c0-0.6,0.5-1.1,1.1-1.1s1.1,0.5,1.1,1.1v1.1
					C90,114.6,89.5,115.1,88.9,115.1z"/>
			</g>
			<g>
				<path class="st1" d="M88.9,109.3c-0.6,0-1.1-0.5-1.1-1.1v-2.3c0-0.6,0.5-1.1,1.1-1.1s1.1,0.5,1.1,1.1v2.3
					C90,108.8,89.5,109.3,88.9,109.3z M88.9,102.4c-0.6,0-1.1-0.5-1.1-1.1v-2.3c0-0.6,0.5-1.1,1.1-1.1s1.1,0.5,1.1,1.1v2.3
					C90,101.8,89.5,102.4,88.9,102.4z M88.9,95.4c-0.6,0-1.1-0.5-1.1-1.1v-2.3c0-0.6,0.5-1.1,1.1-1.1s1.1,0.5,1.1,1.1v2.3
					C90,94.9,89.5,95.4,88.9,95.4z"/>
			</g>
			<g>
				<path class="st1" d="M88.9,88.5c-0.6,0-1.1-0.5-1.1-1.1v-1.1c0-0.6,0.5-1.1,1.1-1.1s1.1,0.5,1.1,1.1v1.1
					C90,87.9,89.5,88.5,88.9,88.5z"/>
			</g>
		</g>
		<g>
			<g>
				<path class="st1" d="M95.9,127.6c-0.6,0-1.1-0.5-1.1-1.1v-1.1c0-0.6,0.5-1.1,1.1-1.1c0.6,0,1.1,0.5,1.1,1.1v1.1
					C97.1,127.1,96.6,127.6,95.9,127.6z"/>
			</g>
			<g>
				<path class="st1" d="M95.9,122.1c-0.6,0-1.1-0.5-1.1-1.1v-2.2c0-0.6,0.5-1.1,1.1-1.1c0.6,0,1.1,0.5,1.1,1.1v2.2
					C97.1,121.5,96.6,122.1,95.9,122.1z M95.9,115.5c-0.6,0-1.1-0.5-1.1-1.1v-2.2c0-0.6,0.5-1.1,1.1-1.1c0.6,0,1.1,0.5,1.1,1.1v2.2
					C97.1,115,96.6,115.5,95.9,115.5z M95.9,108.9c-0.6,0-1.1-0.5-1.1-1.1v-2.2c0-0.6,0.5-1.1,1.1-1.1c0.6,0,1.1,0.5,1.1,1.1v2.2
					C97.1,108.4,96.6,108.9,95.9,108.9z M95.9,102.3c-0.6,0-1.1-0.5-1.1-1.1V99c0-0.6,0.5-1.1,1.1-1.1c0.6,0,1.1,0.5,1.1,1.1v2.2
					C97.1,101.8,96.6,102.3,95.9,102.3z M95.9,95.7c-0.6,0-1.1-0.5-1.1-1.1v-2.2c0-0.6,0.5-1.1,1.1-1.1c0.6,0,1.1,0.5,1.1,1.1v2.2
					C97.1,95.2,96.6,95.7,95.9,95.7z M95.9,89.1c-0.6,0-1.1-0.5-1.1-1.1v-2.2c0-0.6,0.5-1.1,1.1-1.1c0.6,0,1.1,0.5,1.1,1.1V88
					C97.1,88.6,96.6,89.1,95.9,89.1z M95.9,82.5c-0.6,0-1.1-0.5-1.1-1.1v-2.2c0-0.6,0.5-1.1,1.1-1.1c0.6,0,1.1,0.5,1.1,1.1v2.2
					C97.1,82,96.6,82.5,95.9,82.5z"/>
			</g>
			<g>
				<path class="st1" d="M95.9,76c-0.6,0-1.1-0.5-1.1-1.1v-1.1c0-0.6,0.5-1.1,1.1-1.1c0.6,0,1.1,0.5,1.1,1.1v1.1
					C97.1,75.4,96.6,76,95.9,76z"/>
			</g>
		</g>
		<g>
			<g>
				<path class="st1" d="M103,109.5c-0.6,0-1.1-0.5-1.1-1.1v-1.1c0-0.6,0.5-1.1,1.1-1.1s1.1,0.5,1.1,1.1v1.1
					C104.1,109,103.6,109.5,103,109.5z"/>
			</g>
			<g>
				<path class="st1" d="M103,102.6c-0.6,0-1.1-0.5-1.1-1.1v-2.9c0-0.6,0.5-1.1,1.1-1.1s1.1,0.5,1.1,1.1v2.9
					C104.1,102.1,103.6,102.6,103,102.6z"/>
			</g>
			<g>
				<path class="st1" d="M103,94c-0.6,0-1.1-0.5-1.1-1.1v-1.1c0-0.6,0.5-1.1,1.1-1.1s1.1,0.5,1.1,1.1v1.1
					C104.1,93.5,103.6,94,103,94z"/>
			</g>
		</g>
		<g>
			<g>
				<path class="st1" d="M117.1,109.5c-0.6,0-1.1-0.5-1.1-1.1v-1.1c0-0.6,0.5-1.1,1.1-1.1c0.6,0,1.1,0.5,1.1,1.1v1.1
					C118.3,109,117.8,109.5,117.1,109.5z"/>
			</g>
			<g>
				<path class="st1" d="M117.1,102.6c-0.6,0-1.1-0.5-1.1-1.1v-2.9c0-0.6,0.5-1.1,1.1-1.1c0.6,0,1.1,0.5,1.1,1.1v2.9
					C118.3,102.1,117.8,102.6,117.1,102.6z"/>
			</g>
			<g>
				<path class="st1" d="M117.1,94c-0.6,0-1.1-0.5-1.1-1.1v-1.1c0-0.6,0.5-1.1,1.1-1.1c0.6,0,1.1,0.5,1.1,1.1v1.1
					C118.3,93.5,117.8,94,117.1,94z"/>
			</g>
		</g>
		<g>
			<g>
				<path class="st1" d="M124.2,126.2c-0.6,0-1.1-0.5-1.1-1.1v-1.1c0-0.6,0.5-1.1,1.1-1.1s1.1,0.5,1.1,1.1v1.1
					C125.3,125.7,124.8,126.2,124.2,126.2z"/>
			</g>
			<g>
				<path class="st1" d="M124.2,120.3c-0.6,0-1.1-0.5-1.1-1.1v-2.4c0-0.6,0.5-1.1,1.1-1.1s1.1,0.5,1.1,1.1v2.4
					C125.3,119.8,124.8,120.3,124.2,120.3z M124.2,113.1c-0.6,0-1.1-0.5-1.1-1.1v-2.4c0-0.6,0.5-1.1,1.1-1.1s1.1,0.5,1.1,1.1v2.4
					C125.3,112.6,124.8,113.1,124.2,113.1z M124.2,106c-0.6,0-1.1-0.5-1.1-1.1v-2.4c0-0.6,0.5-1.1,1.1-1.1s1.1,0.5,1.1,1.1v2.4
					C125.3,105.5,124.8,106,124.2,106z M124.2,98.8c-0.6,0-1.1-0.5-1.1-1.1v-2.4c0-0.6,0.5-1.1,1.1-1.1s1.1,0.5,1.1,1.1v2.4
					C125.3,98.3,124.8,98.8,124.2,98.8z M124.2,91.7c-0.6,0-1.1-0.5-1.1-1.1v-2.4c0-0.6,0.5-1.1,1.1-1.1s1.1,0.5,1.1,1.1v2.4
					C125.3,91.1,124.8,91.7,124.2,91.7z M124.2,84.5c-0.6,0-1.1-0.5-1.1-1.1V81c0-0.6,0.5-1.1,1.1-1.1s1.1,0.5,1.1,1.1v2.4
					C125.3,84,124.8,84.5,124.2,84.5z"/>
			</g>
			<g>
				<path class="st1" d="M124.2,77.3c-0.6,0-1.1-0.5-1.1-1.1V75c0-0.6,0.5-1.1,1.1-1.1s1.1,0.5,1.1,1.1v1.1
					C125.3,76.8,124.8,77.3,124.2,77.3z"/>
			</g>
		</g>
		<g>
			<g>
				<path class="st1" d="M174,105.4c-0.6,0-1.1-0.5-1.1-1.1v-1.1c0-0.6,0.5-1.1,1.1-1.1c0.6,0,1.1,0.5,1.1,1.1v1.1
					C175.1,104.9,174.6,105.4,174,105.4z"/>
			</g>
			<g>
				<path class="st1" d="M174,101.8c-0.6,0-1.1-0.5-1.1-1.1v-1.2c0-0.6,0.5-1.1,1.1-1.1c0.6,0,1.1,0.5,1.1,1.1v1.2
					C175.1,101.3,174.6,101.8,174,101.8z"/>
			</g>
			<g>
				<path class="st1" d="M174,98.2c-0.6,0-1.1-0.5-1.1-1.1v-1.1c0-0.6,0.5-1.1,1.1-1.1c0.6,0,1.1,0.5,1.1,1.1V97
					C175.1,97.7,174.6,98.2,174,98.2z"/>
			</g>
		</g>
		<g>
			<g>
				<path class="st1" d="M181.4,109.5c-0.6,0-1.1-0.5-1.1-1.1v-1.1c0-0.6,0.5-1.1,1.1-1.1s1.1,0.5,1.1,1.1v1.1
					C182.6,109,182,109.5,181.4,109.5z"/>
			</g>
			<g>
				<path class="st1" d="M181.4,102.6c-0.6,0-1.1-0.5-1.1-1.1v-2.9c0-0.6,0.5-1.1,1.1-1.1s1.1,0.5,1.1,1.1v2.9
					C182.6,102.1,182,102.6,181.4,102.6z"/>
			</g>
			<g>
				<path class="st1" d="M181.4,94c-0.6,0-1.1-0.5-1.1-1.1v-1.1c0-0.6,0.5-1.1,1.1-1.1s1.1,0.5,1.1,1.1v1.1
					C182.6,93.5,182,94,181.4,94z"/>
			</g>
		</g>
		<g>
			<g>
				<path class="st1" d="M188.5,101c-0.6,0-1.1-0.5-1.1-1.1v-1.1c0-0.6,0.5-1.1,1.1-1.1c0.6,0,1.1,0.5,1.1,1.1v1.1
					C189.6,100.4,189.1,101,188.5,101z"/>
			</g>
			<g>
				<path class="st1" d="M188.5,102.6c-0.6,0-1.1-0.5-1.1-1.1v-1.1c0-0.6,0.5-1.1,1.1-1.1c0.6,0,1.1,0.5,1.1,1.1v1.1
					C189.6,102.1,189.1,102.6,188.5,102.6z"/>
			</g>
		</g>
		<g>
			<g>
				<path class="st1" d="M131.3,147c-0.6,0-1.1-0.5-1.1-1.1v-1.1c0-0.6,0.5-1.1,1.1-1.1c0.6,0,1.1,0.5,1.1,1.1v1.1
					C132.4,146.5,131.9,147,131.3,147z"/>
			</g>
			<g>
				<path class="st1" d="M131.3,141.2c-0.6,0-1.1-0.5-1.1-1.1v-2.4c0-0.6,0.5-1.1,1.1-1.1c0.6,0,1.1,0.5,1.1,1.1v2.4
					C132.4,140.7,131.9,141.2,131.3,141.2z M131.3,134.1c-0.6,0-1.1-0.5-1.1-1.1v-2.4c0-0.6,0.5-1.1,1.1-1.1c0.6,0,1.1,0.5,1.1,1.1
					v2.4C132.4,133.6,131.9,134.1,131.3,134.1z M131.3,127.1c-0.6,0-1.1-0.5-1.1-1.1v-2.4c0-0.6,0.5-1.1,1.1-1.1
					c0.6,0,1.1,0.5,1.1,1.1v2.4C132.4,126.6,131.9,127.1,131.3,127.1z M131.3,120c-0.6,0-1.1-0.5-1.1-1.1v-2.4
					c0-0.6,0.5-1.1,1.1-1.1c0.6,0,1.1,0.5,1.1,1.1v2.4C132.4,119.5,131.9,120,131.3,120z M131.3,113c-0.6,0-1.1-0.5-1.1-1.1v-2.4
					c0-0.6,0.5-1.1,1.1-1.1c0.6,0,1.1,0.5,1.1,1.1v2.4C132.4,112.5,131.9,113,131.3,113z M131.3,105.9c-0.6,0-1.1-0.5-1.1-1.1v-2.4
					c0-0.6,0.5-1.1,1.1-1.1c0.6,0,1.1,0.5,1.1,1.1v2.4C132.4,105.4,131.9,105.9,131.3,105.9z M131.3,98.9c-0.6,0-1.1-0.5-1.1-1.1
					v-2.4c0-0.6,0.5-1.1,1.1-1.1c0.6,0,1.1,0.5,1.1,1.1v2.4C132.4,98.3,131.9,98.9,131.3,98.9z M131.3,91.8c-0.6,0-1.1-0.5-1.1-1.1
					v-2.4c0-0.6,0.5-1.1,1.1-1.1c0.6,0,1.1,0.5,1.1,1.1v2.4C132.4,91.3,131.9,91.8,131.3,91.8z M131.3,84.7c-0.6,0-1.1-0.5-1.1-1.1
					v-2.4c0-0.6,0.5-1.1,1.1-1.1c0.6,0,1.1,0.5,1.1,1.1v2.4C132.4,84.2,131.9,84.7,131.3,84.7z M131.3,77.7c-0.6,0-1.1-0.5-1.1-1.1
					v-2.4c0-0.6,0.5-1.1,1.1-1.1c0.6,0,1.1,0.5,1.1,1.1v2.4C132.4,77.2,131.9,77.7,131.3,77.7z M131.3,70.6c-0.6,0-1.1-0.5-1.1-1.1
					v-2.4c0-0.6,0.5-1.1,1.1-1.1c0.6,0,1.1,0.5,1.1,1.1v2.4C132.4,70.1,131.9,70.6,131.3,70.6z M131.3,63.6c-0.6,0-1.1-0.5-1.1-1.1
					v-2.4c0-0.6,0.5-1.1,1.1-1.1c0.6,0,1.1,0.5,1.1,1.1v2.4C132.4,63,131.9,63.6,131.3,63.6z"/>
			</g>
			<g>
				<path class="st1" d="M131.3,56.5c-0.6,0-1.1-0.5-1.1-1.1v-1.1c0-0.6,0.5-1.1,1.1-1.1c0.6,0,1.1,0.5,1.1,1.1v1.1
					C132.4,56,131.9,56.5,131.3,56.5z"/>
			</g>
		</g>
		<g>
			<g>
				<path class="st1" d="M138.3,119.3c-0.6,0-1.1-0.5-1.1-1.1V117c0-0.6,0.5-1.1,1.1-1.1s1.1,0.5,1.1,1.1v1.1
					C139.5,118.8,139,119.3,138.3,119.3z"/>
			</g>
			<g>
				<path class="st1" d="M138.3,113.3c-0.6,0-1.1-0.5-1.1-1.1v-2.4c0-0.6,0.5-1.1,1.1-1.1s1.1,0.5,1.1,1.1v2.4
					C139.5,112.8,139,113.3,138.3,113.3z M138.3,106c-0.6,0-1.1-0.5-1.1-1.1v-2.4c0-0.6,0.5-1.1,1.1-1.1s1.1,0.5,1.1,1.1v2.4
					C139.5,105.5,139,106,138.3,106z M138.3,98.8c-0.6,0-1.1-0.5-1.1-1.1v-2.4c0-0.6,0.5-1.1,1.1-1.1s1.1,0.5,1.1,1.1v2.4
					C139.5,98.3,139,98.8,138.3,98.8z M138.3,91.5c-0.6,0-1.1-0.5-1.1-1.1V88c0-0.6,0.5-1.1,1.1-1.1s1.1,0.5,1.1,1.1v2.4
					C139.5,91,139,91.5,138.3,91.5z"/>
			</g>
			<g>
				<path class="st1" d="M138.3,84.3c-0.6,0-1.1-0.5-1.1-1.1V82c0-0.6,0.5-1.1,1.1-1.1s1.1,0.5,1.1,1.1v1.1
					C139.5,83.8,139,84.3,138.3,84.3z"/>
			</g>
		</g>
		<g>
			<g>
				<path class="st1" d="M145.4,109.5c-0.6,0-1.1-0.5-1.1-1.1v-1.1c0-0.6,0.5-1.1,1.1-1.1c0.6,0,1.1,0.5,1.1,1.1v1.1
					C146.5,109,146,109.5,145.4,109.5z"/>
			</g>
			<g>
				<path class="st1" d="M145.4,102.6c-0.6,0-1.1-0.5-1.1-1.1v-2.9c0-0.6,0.5-1.1,1.1-1.1c0.6,0,1.1,0.5,1.1,1.1v2.9
					C146.5,102.1,146,102.6,145.4,102.6z"/>
			</g>
			<g>
				<path class="st1" d="M145.4,94c-0.6,0-1.1-0.5-1.1-1.1v-1.1c0-0.6,0.5-1.1,1.1-1.1c0.6,0,1.1,0.5,1.1,1.1v1.1
					C146.5,93.5,146,94,145.4,94z"/>
			</g>
		</g>
		<g>
			<g>
				<path class="st1" d="M152.5,105.4c-0.6,0-1.1-0.5-1.1-1.1v-1.1c0-0.6,0.5-1.1,1.1-1.1s1.1,0.5,1.1,1.1v1.1
					C153.6,104.9,153.1,105.4,152.5,105.4z"/>
			</g>
			<g>
				<path class="st1" d="M152.5,101.8c-0.6,0-1.1-0.5-1.1-1.1v-1.2c0-0.6,0.5-1.1,1.1-1.1s1.1,0.5,1.1,1.1v1.2
					C153.6,101.3,153.1,101.8,152.5,101.8z"/>
			</g>
			<g>
				<path class="st1" d="M152.5,98.2c-0.6,0-1.1-0.5-1.1-1.1v-1.1c0-0.6,0.5-1.1,1.1-1.1s1.1,0.5,1.1,1.1V97
					C153.6,97.7,153.1,98.2,152.5,98.2z"/>
			</g>
		</g>
		<g>
			<g>
				<path class="st1" d="M195.8,109.5c-0.6,0-1.1-0.5-1.1-1.1v-1.1c0-0.6,0.5-1.1,1.1-1.1s1.1,0.5,1.1,1.1v1.1
					C197,109,196.5,109.5,195.8,109.5z"/>
			</g>
			<g>
				<path class="st1" d="M195.8,102.6c-0.6,0-1.1-0.5-1.1-1.1v-2.9c0-0.6,0.5-1.1,1.1-1.1s1.1,0.5,1.1,1.1v2.9
					C197,102.1,196.5,102.6,195.8,102.6z"/>
			</g>
			<g>
				<path class="st1" d="M195.8,94c-0.6,0-1.1-0.5-1.1-1.1v-1.1c0-0.6,0.5-1.1,1.1-1.1s1.1,0.5,1.1,1.1v1.1
					C197,93.5,196.5,94,195.8,94z"/>
			</g>
		</g>
		<g>
			<g>
				<path class="st1" d="M202.9,126.2c-0.6,0-1.1-0.5-1.1-1.1v-1.1c0-0.6,0.5-1.1,1.1-1.1s1.1,0.5,1.1,1.1v1.1
					C204,125.7,203.5,126.2,202.9,126.2z"/>
			</g>
			<g>
				<path class="st1" d="M202.9,120.3c-0.6,0-1.1-0.5-1.1-1.1v-2.4c0-0.6,0.5-1.1,1.1-1.1s1.1,0.5,1.1,1.1v2.4
					C204,119.8,203.5,120.3,202.9,120.3z M202.9,113.1c-0.6,0-1.1-0.5-1.1-1.1v-2.4c0-0.6,0.5-1.1,1.1-1.1s1.1,0.5,1.1,1.1v2.4
					C204,112.6,203.5,113.1,202.9,113.1z M202.9,106c-0.6,0-1.1-0.5-1.1-1.1v-2.4c0-0.6,0.5-1.1,1.1-1.1s1.1,0.5,1.1,1.1v2.4
					C204,105.5,203.5,106,202.9,106z M202.9,98.8c-0.6,0-1.1-0.5-1.1-1.1v-2.4c0-0.6,0.5-1.1,1.1-1.1s1.1,0.5,1.1,1.1v2.4
					C204,98.3,203.5,98.8,202.9,98.8z M202.9,91.7c-0.6,0-1.1-0.5-1.1-1.1v-2.4c0-0.6,0.5-1.1,1.1-1.1s1.1,0.5,1.1,1.1v2.4
					C204,91.1,203.5,91.7,202.9,91.7z M202.9,84.5c-0.6,0-1.1-0.5-1.1-1.1V81c0-0.6,0.5-1.1,1.1-1.1s1.1,0.5,1.1,1.1v2.4
					C204,84,203.5,84.5,202.9,84.5z"/>
			</g>
			<g>
				<path class="st1" d="M202.9,77.3c-0.6,0-1.1-0.5-1.1-1.1V75c0-0.6,0.5-1.1,1.1-1.1s1.1,0.5,1.1,1.1v1.1
					C204,76.8,203.5,77.3,202.9,77.3z"/>
			</g>
		</g>
		<g>
			<g>
				<path class="st1" d="M210,110.9c-0.6,0-1.1-0.5-1.1-1.1v-1.1c0-0.6,0.5-1.1,1.1-1.1s1.1,0.5,1.1,1.1v1.1
					C211.1,110.4,210.6,110.9,210,110.9z"/>
			</g>
			<g>
				<path class="st1" d="M210,105.5c-0.6,0-1.1-0.5-1.1-1.1v-2.1c0-0.6,0.5-1.1,1.1-1.1s1.1,0.5,1.1,1.1v2.1
					C211.1,105,210.6,105.5,210,105.5z M210,99.1c-0.6,0-1.1-0.5-1.1-1.1v-2.1c0-0.6,0.5-1.1,1.1-1.1s1.1,0.5,1.1,1.1v2.1
					C211.1,98.5,210.6,99.1,210,99.1z"/>
			</g>
			<g>
				<path class="st1" d="M210,92.6c-0.6,0-1.1-0.5-1.1-1.1v-1.1c0-0.6,0.5-1.1,1.1-1.1s1.1,0.5,1.1,1.1v1.1
					C211.1,92.1,210.6,92.6,210,92.6z"/>
			</g>
		</g>
		<g>
			<g>
				<path class="st1" d="M217,119.3c-0.6,0-1.1-0.5-1.1-1.1V117c0-0.6,0.5-1.1,1.1-1.1c0.6,0,1.1,0.5,1.1,1.1v1.1
					C218.2,118.8,217.7,119.3,217,119.3z"/>
			</g>
			<g>
				<path class="st1" d="M217,113.3c-0.6,0-1.1-0.5-1.1-1.1v-2.4c0-0.6,0.5-1.1,1.1-1.1c0.6,0,1.1,0.5,1.1,1.1v2.4
					C218.2,112.8,217.7,113.3,217,113.3z M217,106c-0.6,0-1.1-0.5-1.1-1.1v-2.4c0-0.6,0.5-1.1,1.1-1.1c0.6,0,1.1,0.5,1.1,1.1v2.4
					C218.2,105.5,217.7,106,217,106z M217,98.8c-0.6,0-1.1-0.5-1.1-1.1v-2.4c0-0.6,0.5-1.1,1.1-1.1c0.6,0,1.1,0.5,1.1,1.1v2.4
					C218.2,98.3,217.7,98.8,217,98.8z M217,91.5c-0.6,0-1.1-0.5-1.1-1.1V88c0-0.6,0.5-1.1,1.1-1.1c0.6,0,1.1,0.5,1.1,1.1v2.4
					C218.2,91,217.7,91.5,217,91.5z"/>
			</g>
			<g>
				<path class="st1" d="M217,84.3c-0.6,0-1.1-0.5-1.1-1.1V82c0-0.6,0.5-1.1,1.1-1.1c0.6,0,1.1,0.5,1.1,1.1v1.1
					C218.2,83.8,217.7,84.3,217,84.3z"/>
			</g>
		</g>
		<g>
			<g>
				<path class="st1" d="M224.1,109.5c-0.6,0-1.1-0.5-1.1-1.1v-1.1c0-0.6,0.5-1.1,1.1-1.1s1.1,0.5,1.1,1.1v1.1
					C225.2,109,224.7,109.5,224.1,109.5z"/>
			</g>
			<g>
				<path class="st1" d="M224.1,102.6c-0.6,0-1.1-0.5-1.1-1.1v-2.9c0-0.6,0.5-1.1,1.1-1.1s1.1,0.5,1.1,1.1v2.9
					C225.2,102.1,224.7,102.6,224.1,102.6z"/>
			</g>
			<g>
				<path class="st1" d="M224.1,94c-0.6,0-1.1-0.5-1.1-1.1v-1.1c0-0.6,0.5-1.1,1.1-1.1s1.1,0.5,1.1,1.1v1.1
					C225.2,93.5,224.7,94,224.1,94z"/>
			</g>
		</g>
		<g>
			<g>
				<path class="st1" d="M231.2,105.4c-0.6,0-1.1-0.5-1.1-1.1v-1.1c0-0.6,0.5-1.1,1.1-1.1s1.1,0.5,1.1,1.1v1.1
					C232.3,104.9,231.8,105.4,231.2,105.4z"/>
			</g>
			<g>
				<path class="st1" d="M231.2,101.8c-0.6,0-1.1-0.5-1.1-1.1v-1.2c0-0.6,0.5-1.1,1.1-1.1s1.1,0.5,1.1,1.1v1.2
					C232.3,101.3,231.8,101.8,231.2,101.8z"/>
			</g>
			<g>
				<path class="st1" d="M231.2,98.2c-0.6,0-1.1-0.5-1.1-1.1v-1.1c0-0.6,0.5-1.1,1.1-1.1s1.1,0.5,1.1,1.1V97
					C232.3,97.7,231.8,98.2,231.2,98.2z"/>
			</g>
		</g>
		<g>
			<g>
				<path class="st1" d="M159.5,126.2c-0.6,0-1.1-0.5-1.1-1.1v-1.1c0-0.6,0.5-1.1,1.1-1.1s1.1,0.5,1.1,1.1v1.1
					C160.7,125.7,160.2,126.2,159.5,126.2z"/>
			</g>
			<g>
				<path class="st1" d="M159.5,120.3c-0.6,0-1.1-0.5-1.1-1.1v-2.4c0-0.6,0.5-1.1,1.1-1.1s1.1,0.5,1.1,1.1v2.4
					C160.7,119.8,160.2,120.3,159.5,120.3z M159.5,113.1c-0.6,0-1.1-0.5-1.1-1.1v-2.4c0-0.6,0.5-1.1,1.1-1.1s1.1,0.5,1.1,1.1v2.4
					C160.7,112.6,160.2,113.1,159.5,113.1z M159.5,106c-0.6,0-1.1-0.5-1.1-1.1v-2.4c0-0.6,0.5-1.1,1.1-1.1s1.1,0.5,1.1,1.1v2.4
					C160.7,105.5,160.2,106,159.5,106z M159.5,98.8c-0.6,0-1.1-0.5-1.1-1.1v-2.4c0-0.6,0.5-1.1,1.1-1.1s1.1,0.5,1.1,1.1v2.4
					C160.7,98.3,160.2,98.8,159.5,98.8z M159.5,91.7c-0.6,0-1.1-0.5-1.1-1.1v-2.4c0-0.6,0.5-1.1,1.1-1.1s1.1,0.5,1.1,1.1v2.4
					C160.7,91.1,160.2,91.7,159.5,91.7z M159.5,84.5c-0.6,0-1.1-0.5-1.1-1.1V81c0-0.6,0.5-1.1,1.1-1.1s1.1,0.5,1.1,1.1v2.4
					C160.7,84,160.2,84.5,159.5,84.5z"/>
			</g>
			<g>
				<path class="st1" d="M159.5,77.3c-0.6,0-1.1-0.5-1.1-1.1V75c0-0.6,0.5-1.1,1.1-1.1s1.1,0.5,1.1,1.1v1.1
					C160.7,76.8,160.2,77.3,159.5,77.3z"/>
			</g>
		</g>
		<g>
			<g>
				<path class="st1" d="M166.6,112.3c-0.6,0-1.1-0.5-1.1-1.1V110c0-0.6,0.5-1.1,1.1-1.1s1.1,0.5,1.1,1.1v1.1
					C167.7,111.8,167.2,112.3,166.6,112.3z"/>
			</g>
			<g>
				<path class="st1" d="M166.6,106.2c-0.6,0-1.1-0.5-1.1-1.1v-2.5c0-0.6,0.5-1.1,1.1-1.1s1.1,0.5,1.1,1.1v2.5
					C167.7,105.7,167.2,106.2,166.6,106.2z M166.6,98.7c-0.6,0-1.1-0.5-1.1-1.1v-2.5c0-0.6,0.5-1.1,1.1-1.1s1.1,0.5,1.1,1.1v2.5
					C167.7,98.2,167.2,98.7,166.6,98.7z"/>
			</g>
			<g>
				<path class="st1" d="M166.6,91.2c-0.6,0-1.1-0.5-1.1-1.1v-1.1c0-0.6,0.5-1.1,1.1-1.1s1.1,0.5,1.1,1.1v1.1
					C167.7,90.7,167.2,91.2,166.6,91.2z"/>
			</g>
		</g>
		<g>
			<g>
				<path class="st1" d="M239.6,87.1c-0.6,0-1.1-0.5-1.1-1.1v-1.1c0-0.6,0.5-1.1,1.1-1.1s1.1,0.5,1.1,1.1v1.1
					C240.7,86.6,240.2,87.1,239.6,87.1z"/>
			</g>
			<g>
				<path class="st1" d="M239.6,110.2c-0.6,0-1.1-0.5-1.1-1.1v-2.6c0-0.6,0.5-1.1,1.1-1.1s1.1,0.5,1.1,1.1v2.6
					C240.7,109.7,240.2,110.2,239.6,110.2z M239.6,102.5c-0.6,0-1.1-0.5-1.1-1.1v-2.6c0-0.6,0.5-1.1,1.1-1.1s1.1,0.5,1.1,1.1v2.6
					C240.7,102,240.2,102.5,239.6,102.5z M239.6,94.8c-0.6,0-1.1-0.5-1.1-1.1v-2.6c0-0.6,0.5-1.1,1.1-1.1s1.1,0.5,1.1,1.1v2.6
					C240.7,94.3,240.2,94.8,239.6,94.8z"/>
			</g>
			<g>
				<path class="st1" d="M239.6,116.5c-0.6,0-1.1-0.5-1.1-1.1v-1.1c0-0.6,0.5-1.1,1.1-1.1s1.1,0.5,1.1,1.1v1.1
					C240.7,116,240.2,116.5,239.6,116.5z"/>
			</g>
		</g>
		<g>
			<g>
				<path class="st1" d="M246.7,106.8c-0.6,0-1.1-0.5-1.1-1.1v-1.1c0-0.6,0.5-1.1,1.1-1.1s1.1,0.5,1.1,1.1v1.1
					C247.8,106.2,247.3,106.8,246.7,106.8z"/>
			</g>
			<g>
				<path class="st1" d="M246.7,102.1c-0.6,0-1.1-0.5-1.1-1.1v-1.8c0-0.6,0.5-1.1,1.1-1.1s1.1,0.5,1.1,1.1v1.8
					C247.8,101.6,247.3,102.1,246.7,102.1z"/>
			</g>
			<g>
				<path class="st1" d="M246.7,96.8c-0.6,0-1.1-0.5-1.1-1.1v-1.1c0-0.6,0.5-1.1,1.1-1.1s1.1,0.5,1.1,1.1v1.1
					C247.8,96.3,247.3,96.8,246.7,96.8z"/>
			</g>
		</g>
		<g>
			<g>
				<path class="st1" d="M253.7,105.4c-0.6,0-1.1-0.5-1.1-1.1v-1.1c0-0.6,0.5-1.1,1.1-1.1s1.1,0.5,1.1,1.1v1.1
					C254.9,104.9,254.4,105.4,253.7,105.4z"/>
			</g>
			<g>
				<path class="st1" d="M253.7,101.8c-0.6,0-1.1-0.5-1.1-1.1v-1.2c0-0.6,0.5-1.1,1.1-1.1s1.1,0.5,1.1,1.1v1.2
					C254.9,101.3,254.4,101.8,253.7,101.8z"/>
			</g>
			<g>
				<path class="st1" d="M253.7,98.2c-0.6,0-1.1-0.5-1.1-1.1v-1.1c0-0.6,0.5-1.1,1.1-1.1s1.1,0.5,1.1,1.1V97
					C254.9,97.7,254.4,98.2,253.7,98.2z"/>
			</g>
		</g>
		<g>
			<g>
				<path class="st1" d="M317,115.1c-0.6,0-1.1-0.5-1.1-1.1v-1.1c0-0.6,0.5-1.1,1.1-1.1c0.6,0,1.1,0.5,1.1,1.1v1.1
					C318.1,114.6,317.6,115.1,317,115.1z"/>
			</g>
			<g>
				<path class="st1" d="M317,109.3c-0.6,0-1.1-0.5-1.1-1.1v-2.3c0-0.6,0.5-1.1,1.1-1.1c0.6,0,1.1,0.5,1.1,1.1v2.3
					C318.1,108.8,317.6,109.3,317,109.3z M317,102.4c-0.6,0-1.1-0.5-1.1-1.1v-2.3c0-0.6,0.5-1.1,1.1-1.1c0.6,0,1.1,0.5,1.1,1.1v2.3
					C318.1,101.8,317.6,102.4,317,102.4z M317,95.4c-0.6,0-1.1-0.5-1.1-1.1v-2.3c0-0.6,0.5-1.1,1.1-1.1c0.6,0,1.1,0.5,1.1,1.1v2.3
					C318.1,94.9,317.6,95.4,317,95.4z"/>
			</g>
			<g>
				<path class="st1" d="M317,88.5c-0.6,0-1.1-0.5-1.1-1.1v-1.1c0-0.6,0.5-1.1,1.1-1.1c0.6,0,1.1,0.5,1.1,1.1v1.1
					C318.1,87.9,317.6,88.5,317,88.5z"/>
			</g>
		</g>
		<g>
			<g>
				<path class="st1" d="M260.8,104c-0.6,0-1.1-0.5-1.1-1.1v-1.1c0-0.6,0.5-1.1,1.1-1.1c0.6,0,1.1,0.5,1.1,1.1v1.1
					C261.9,103.5,261.4,104,260.8,104z"/>
			</g>
			<g>
				<path class="st1" d="M260.8,99.6c-0.6,0-1.1-0.5-1.1-1.1v-1.1c0-0.6,0.5-1.1,1.1-1.1c0.6,0,1.1,0.5,1.1,1.1v1.1
					C261.9,99.1,261.4,99.6,260.8,99.6z"/>
			</g>
		</g>
		<g>
			<g>
				<path class="st1" d="M475.4,98.2c-0.6,0-1.1-0.5-1.1-1.1v-1.1c0-0.6,0.5-1.1,1.1-1.1c0.6,0,1.1,0.5,1.1,1.1V97
					C476.6,97.7,476,98.2,475.4,98.2z"/>
			</g>
			<g>
				<path class="st1" d="M475.4,101.8c-0.6,0-1.1-0.5-1.1-1.1v-1.2c0-0.6,0.5-1.1,1.1-1.1c0.6,0,1.1,0.5,1.1,1.1v1.2
					C476.6,101.3,476,101.8,475.4,101.8z"/>
			</g>
			<g>
				<path class="st1" d="M475.4,105.4c-0.6,0-1.1-0.5-1.1-1.1v-1.1c0-0.6,0.5-1.1,1.1-1.1c0.6,0,1.1,0.5,1.1,1.1v1.1
					C476.6,104.9,476,105.4,475.4,105.4z"/>
			</g>
		</g>
		<g>
			<g>
				<path class="st1" d="M467,84.3c-0.6,0-1.1-0.5-1.1-1.1V82c0-0.6,0.5-1.1,1.1-1.1c0.6,0,1.1,0.5,1.1,1.1v1.1
					C468.1,83.8,467.6,84.3,467,84.3z"/>
			</g>
			<g>
				<path class="st1" d="M467,113.3c-0.6,0-1.1-0.5-1.1-1.1v-2.4c0-0.6,0.5-1.1,1.1-1.1c0.6,0,1.1,0.5,1.1,1.1v2.4
					C468.1,112.8,467.6,113.3,467,113.3z M467,106c-0.6,0-1.1-0.5-1.1-1.1v-2.4c0-0.6,0.5-1.1,1.1-1.1c0.6,0,1.1,0.5,1.1,1.1v2.4
					C468.1,105.5,467.6,106,467,106z M467,98.8c-0.6,0-1.1-0.5-1.1-1.1v-2.4c0-0.6,0.5-1.1,1.1-1.1c0.6,0,1.1,0.5,1.1,1.1v2.4
					C468.1,98.3,467.6,98.8,467,98.8z M467,91.5c-0.6,0-1.1-0.5-1.1-1.1V88c0-0.6,0.5-1.1,1.1-1.1c0.6,0,1.1,0.5,1.1,1.1v2.4
					C468.1,91,467.6,91.5,467,91.5z"/>
			</g>
			<g>
				<path class="st1" d="M467,119.3c-0.6,0-1.1-0.5-1.1-1.1V117c0-0.6,0.5-1.1,1.1-1.1c0.6,0,1.1,0.5,1.1,1.1v1.1
					C468.1,118.8,467.6,119.3,467,119.3z"/>
			</g>
		</g>
		<g>
			<g>
				<path class="st1" d="M452.9,98.2c-0.6,0-1.1-0.5-1.1-1.1v-1.1c0-0.6,0.5-1.1,1.1-1.1c0.6,0,1.1,0.5,1.1,1.1V97
					C454,97.7,453.5,98.2,452.9,98.2z"/>
			</g>
			<g>
				<path class="st1" d="M452.9,101.8c-0.6,0-1.1-0.5-1.1-1.1v-1.2c0-0.6,0.5-1.1,1.1-1.1c0.6,0,1.1,0.5,1.1,1.1v1.2
					C454,101.3,453.5,101.8,452.9,101.8z"/>
			</g>
			<g>
				<path class="st1" d="M452.9,105.4c-0.6,0-1.1-0.5-1.1-1.1v-1.1c0-0.6,0.5-1.1,1.1-1.1c0.6,0,1.1,0.5,1.1,1.1v1.1
					C454,104.9,453.5,105.4,452.9,105.4z"/>
			</g>
		</g>
		<g>
			<g>
				<path class="st1" d="M267.9,117c-0.6,0-1.1-0.5-1.1-1.1v-1.1c0-0.6,0.5-1.1,1.1-1.1c0.6,0,1.1,0.5,1.1,1.1v1.1
					C269,116.5,268.5,117,267.9,117z"/>
			</g>
			<g>
				<path class="st1" d="M267.9,111.7c-0.6,0-1.1-0.5-1.1-1.1v-2.1c0-0.6,0.5-1.1,1.1-1.1c0.6,0,1.1,0.5,1.1,1.1v2.1
					C269,111.2,268.5,111.7,267.9,111.7z M267.9,105.4c-0.6,0-1.1-0.5-1.1-1.1v-2.1c0-0.6,0.5-1.1,1.1-1.1c0.6,0,1.1,0.5,1.1,1.1
					v2.1C269,104.9,268.5,105.4,267.9,105.4z M267.9,99.1c-0.6,0-1.1-0.5-1.1-1.1v-2.1c0-0.6,0.5-1.1,1.1-1.1c0.6,0,1.1,0.5,1.1,1.1
					V98C269,98.6,268.5,99.1,267.9,99.1z M267.9,92.8c-0.6,0-1.1-0.5-1.1-1.1v-2.1c0-0.6,0.5-1.1,1.1-1.1c0.6,0,1.1,0.5,1.1,1.1v2.1
					C269,92.3,268.5,92.8,267.9,92.8z"/>
			</g>
			<g>
				<path class="st1" d="M267.9,86.5c-0.6,0-1.1-0.5-1.1-1.1v-1.1c0-0.6,0.5-1.1,1.1-1.1c0.6,0,1.1,0.5,1.1,1.1v1.1
					C269,86,268.5,86.5,267.9,86.5z"/>
			</g>
		</g>
		<g>
			<g>
				<path class="st1" d="M274.9,133.2c-0.6,0-1.1-0.5-1.1-1.1v-1.1c0-0.6,0.5-1.1,1.1-1.1c0.6,0,1.1,0.5,1.1,1.1v1.1
					C276.1,132.6,275.6,133.2,274.9,133.2z"/>
			</g>
			<g>
				<path class="st1" d="M274.9,127.3c-0.6,0-1.1-0.5-1.1-1.1v-2.4c0-0.6,0.5-1.1,1.1-1.1c0.6,0,1.1,0.5,1.1,1.1v2.4
					C276.1,126.8,275.6,127.3,274.9,127.3z M274.9,120.2c-0.6,0-1.1-0.5-1.1-1.1v-2.4c0-0.6,0.5-1.1,1.1-1.1c0.6,0,1.1,0.5,1.1,1.1
					v2.4C276.1,119.6,275.6,120.2,274.9,120.2z M274.9,113c-0.6,0-1.1-0.5-1.1-1.1v-2.4c0-0.6,0.5-1.1,1.1-1.1
					c0.6,0,1.1,0.5,1.1,1.1v2.4C276.1,112.5,275.6,113,274.9,113z M274.9,105.9c-0.6,0-1.1-0.5-1.1-1.1v-2.4c0-0.6,0.5-1.1,1.1-1.1
					c0.6,0,1.1,0.5,1.1,1.1v2.4C276.1,105.4,275.6,105.9,274.9,105.9z M274.9,98.8c-0.6,0-1.1-0.5-1.1-1.1v-2.4
					c0-0.6,0.5-1.1,1.1-1.1c0.6,0,1.1,0.5,1.1,1.1v2.4C276.1,98.3,275.6,98.8,274.9,98.8z M274.9,91.7c-0.6,0-1.1-0.5-1.1-1.1v-2.4
					c0-0.6,0.5-1.1,1.1-1.1c0.6,0,1.1,0.5,1.1,1.1v2.4C276.1,91.2,275.6,91.7,274.9,91.7z M274.9,84.6c-0.6,0-1.1-0.5-1.1-1.1v-2.4
					c0-0.6,0.5-1.1,1.1-1.1c0.6,0,1.1,0.5,1.1,1.1v2.4C276.1,84.1,275.6,84.6,274.9,84.6z M274.9,77.5c-0.6,0-1.1-0.5-1.1-1.1V74
					c0-0.6,0.5-1.1,1.1-1.1c0.6,0,1.1,0.5,1.1,1.1v2.4C276.1,77,275.6,77.5,274.9,77.5z"/>
			</g>
			<g>
				<path class="st1" d="M274.9,70.4c-0.6,0-1.1-0.5-1.1-1.1v-1.1c0-0.6,0.5-1.1,1.1-1.1c0.6,0,1.1,0.5,1.1,1.1v1.1
					C276.1,69.9,275.6,70.4,274.9,70.4z"/>
			</g>
		</g>
		<g>
			<g>
				<path class="st1" d="M282,119.3c-0.6,0-1.1-0.5-1.1-1.1V117c0-0.6,0.5-1.1,1.1-1.1c0.6,0,1.1,0.5,1.1,1.1v1.1
					C283.1,118.8,282.6,119.3,282,119.3z"/>
			</g>
			<g>
				<path class="st1" d="M282,113.3c-0.6,0-1.1-0.5-1.1-1.1v-2.4c0-0.6,0.5-1.1,1.1-1.1c0.6,0,1.1,0.5,1.1,1.1v2.4
					C283.1,112.8,282.6,113.3,282,113.3z M282,106c-0.6,0-1.1-0.5-1.1-1.1v-2.4c0-0.6,0.5-1.1,1.1-1.1c0.6,0,1.1,0.5,1.1,1.1v2.4
					C283.1,105.5,282.6,106,282,106z M282,98.8c-0.6,0-1.1-0.5-1.1-1.1v-2.4c0-0.6,0.5-1.1,1.1-1.1c0.6,0,1.1,0.5,1.1,1.1v2.4
					C283.1,98.3,282.6,98.8,282,98.8z M282,91.5c-0.6,0-1.1-0.5-1.1-1.1V88c0-0.6,0.5-1.1,1.1-1.1c0.6,0,1.1,0.5,1.1,1.1v2.4
					C283.1,91,282.6,91.5,282,91.5z"/>
			</g>
			<g>
				<path class="st1" d="M282,84.3c-0.6,0-1.1-0.5-1.1-1.1V82c0-0.6,0.5-1.1,1.1-1.1c0.6,0,1.1,0.5,1.1,1.1v1.1
					C283.1,83.8,282.6,84.3,282,84.3z"/>
			</g>
		</g>
		<g>
			<g>
				<path class="st1" d="M289.1,127.6c-0.6,0-1.1-0.5-1.1-1.1v-1.1c0-0.6,0.5-1.1,1.1-1.1c0.6,0,1.1,0.5,1.1,1.1v1.1
					C290.2,127.1,289.7,127.6,289.1,127.6z"/>
			</g>
			<g>
				<path class="st1" d="M289.1,122.1c-0.6,0-1.1-0.5-1.1-1.1v-2.2c0-0.6,0.5-1.1,1.1-1.1c0.6,0,1.1,0.5,1.1,1.1v2.2
					C290.2,121.5,289.7,122.1,289.1,122.1z M289.1,115.5c-0.6,0-1.1-0.5-1.1-1.1v-2.2c0-0.6,0.5-1.1,1.1-1.1c0.6,0,1.1,0.5,1.1,1.1
					v2.2C290.2,115,289.7,115.5,289.1,115.5z M289.1,108.9c-0.6,0-1.1-0.5-1.1-1.1v-2.2c0-0.6,0.5-1.1,1.1-1.1
					c0.6,0,1.1,0.5,1.1,1.1v2.2C290.2,108.4,289.7,108.9,289.1,108.9z M289.1,102.3c-0.6,0-1.1-0.5-1.1-1.1V99
					c0-0.6,0.5-1.1,1.1-1.1c0.6,0,1.1,0.5,1.1,1.1v2.2C290.2,101.8,289.7,102.3,289.1,102.3z M289.1,95.7c-0.6,0-1.1-0.5-1.1-1.1
					v-2.2c0-0.6,0.5-1.1,1.1-1.1c0.6,0,1.1,0.5,1.1,1.1v2.2C290.2,95.2,289.7,95.7,289.1,95.7z M289.1,89.1c-0.6,0-1.1-0.5-1.1-1.1
					v-2.2c0-0.6,0.5-1.1,1.1-1.1c0.6,0,1.1,0.5,1.1,1.1V88C290.2,88.6,289.7,89.1,289.1,89.1z M289.1,82.5c-0.6,0-1.1-0.5-1.1-1.1
					v-2.2c0-0.6,0.5-1.1,1.1-1.1c0.6,0,1.1,0.5,1.1,1.1v2.2C290.2,82,289.7,82.5,289.1,82.5z"/>
			</g>
			<g>
				<path class="st1" d="M289.1,76c-0.6,0-1.1-0.5-1.1-1.1v-1.1c0-0.6,0.5-1.1,1.1-1.1c0.6,0,1.1,0.5,1.1,1.1v1.1
					C290.2,75.4,289.7,76,289.1,76z"/>
			</g>
		</g>
		<g>
			<g>
				<path class="st1" d="M296.1,147c-0.6,0-1.1-0.5-1.1-1.1v-1.1c0-0.6,0.5-1.1,1.1-1.1c0.6,0,1.1,0.5,1.1,1.1v1.1
					C297.3,146.5,296.8,147,296.1,147z"/>
			</g>
			<g>
				<path class="st1" d="M296.1,141.2c-0.6,0-1.1-0.5-1.1-1.1v-2.4c0-0.6,0.5-1.1,1.1-1.1c0.6,0,1.1,0.5,1.1,1.1v2.4
					C297.3,140.7,296.8,141.2,296.1,141.2z M296.1,134.1c-0.6,0-1.1-0.5-1.1-1.1v-2.4c0-0.6,0.5-1.1,1.1-1.1c0.6,0,1.1,0.5,1.1,1.1
					v2.4C297.3,133.6,296.8,134.1,296.1,134.1z M296.1,127.1c-0.6,0-1.1-0.5-1.1-1.1v-2.4c0-0.6,0.5-1.1,1.1-1.1
					c0.6,0,1.1,0.5,1.1,1.1v2.4C297.3,126.6,296.8,127.1,296.1,127.1z M296.1,120c-0.6,0-1.1-0.5-1.1-1.1v-2.4
					c0-0.6,0.5-1.1,1.1-1.1c0.6,0,1.1,0.5,1.1,1.1v2.4C297.3,119.5,296.8,120,296.1,120z M296.1,113c-0.6,0-1.1-0.5-1.1-1.1v-2.4
					c0-0.6,0.5-1.1,1.1-1.1c0.6,0,1.1,0.5,1.1,1.1v2.4C297.3,112.5,296.8,113,296.1,113z M296.1,105.9c-0.6,0-1.1-0.5-1.1-1.1v-2.4
					c0-0.6,0.5-1.1,1.1-1.1c0.6,0,1.1,0.5,1.1,1.1v2.4C297.3,105.4,296.8,105.9,296.1,105.9z M296.1,98.9c-0.6,0-1.1-0.5-1.1-1.1
					v-2.4c0-0.6,0.5-1.1,1.1-1.1c0.6,0,1.1,0.5,1.1,1.1v2.4C297.3,98.3,296.8,98.9,296.1,98.9z M296.1,91.8c-0.6,0-1.1-0.5-1.1-1.1
					v-2.4c0-0.6,0.5-1.1,1.1-1.1c0.6,0,1.1,0.5,1.1,1.1v2.4C297.3,91.3,296.8,91.8,296.1,91.8z M296.1,84.7c-0.6,0-1.1-0.5-1.1-1.1
					v-2.4c0-0.6,0.5-1.1,1.1-1.1c0.6,0,1.1,0.5,1.1,1.1v2.4C297.3,84.2,296.8,84.7,296.1,84.7z M296.1,77.7c-0.6,0-1.1-0.5-1.1-1.1
					v-2.4c0-0.6,0.5-1.1,1.1-1.1c0.6,0,1.1,0.5,1.1,1.1v2.4C297.3,77.2,296.8,77.7,296.1,77.7z M296.1,70.6c-0.6,0-1.1-0.5-1.1-1.1
					v-2.4c0-0.6,0.5-1.1,1.1-1.1c0.6,0,1.1,0.5,1.1,1.1v2.4C297.3,70.1,296.8,70.6,296.1,70.6z M296.1,63.6c-0.6,0-1.1-0.5-1.1-1.1
					v-2.4c0-0.6,0.5-1.1,1.1-1.1c0.6,0,1.1,0.5,1.1,1.1v2.4C297.3,63,296.8,63.6,296.1,63.6z"/>
			</g>
			<g>
				<path class="st1" d="M296.1,56.5c-0.6,0-1.1-0.5-1.1-1.1v-1.1c0-0.6,0.5-1.1,1.1-1.1c0.6,0,1.1,0.5,1.1,1.1v1.1
					C297.3,56,296.8,56.5,296.1,56.5z"/>
			</g>
		</g>
		<g>
			<g>
				<path class="st1" d="M303.2,141.5c-0.6,0-1.1-0.5-1.1-1.1v-1.1c0-0.6,0.5-1.1,1.1-1.1c0.6,0,1.1,0.5,1.1,1.1v1.1
					C304.3,141,303.8,141.5,303.2,141.5z"/>
			</g>
			<g>
				<path class="st1" d="M303.2,135.9c-0.6,0-1.1-0.5-1.1-1.1v-2.2c0-0.6,0.5-1.1,1.1-1.1c0.6,0,1.1,0.5,1.1,1.1v2.2
					C304.3,135.4,303.8,135.9,303.2,135.9z M303.2,129.2c-0.6,0-1.1-0.5-1.1-1.1v-2.2c0-0.6,0.5-1.1,1.1-1.1c0.6,0,1.1,0.5,1.1,1.1
					v2.2C304.3,128.6,303.8,129.2,303.2,129.2z M303.2,122.5c-0.6,0-1.1-0.5-1.1-1.1v-2.2c0-0.6,0.5-1.1,1.1-1.1
					c0.6,0,1.1,0.5,1.1,1.1v2.2C304.3,121.9,303.8,122.5,303.2,122.5z M303.2,115.7c-0.6,0-1.1-0.5-1.1-1.1v-2.2
					c0-0.6,0.5-1.1,1.1-1.1c0.6,0,1.1,0.5,1.1,1.1v2.2C304.3,115.2,303.8,115.7,303.2,115.7z M303.2,109c-0.6,0-1.1-0.5-1.1-1.1
					v-2.2c0-0.6,0.5-1.1,1.1-1.1c0.6,0,1.1,0.5,1.1,1.1v2.2C304.3,108.5,303.8,109,303.2,109z M303.2,102.3c-0.6,0-1.1-0.5-1.1-1.1
					v-2.2c0-0.6,0.5-1.1,1.1-1.1c0.6,0,1.1,0.5,1.1,1.1v2.2C304.3,101.8,303.8,102.3,303.2,102.3z M303.2,95.6
					c-0.6,0-1.1-0.5-1.1-1.1v-2.2c0-0.6,0.5-1.1,1.1-1.1c0.6,0,1.1,0.5,1.1,1.1v2.2C304.3,95.1,303.8,95.6,303.2,95.6z M303.2,88.9
					c-0.6,0-1.1-0.5-1.1-1.1v-2.2c0-0.6,0.5-1.1,1.1-1.1c0.6,0,1.1,0.5,1.1,1.1v2.2C304.3,88.4,303.8,88.9,303.2,88.9z M303.2,82.2
					c-0.6,0-1.1-0.5-1.1-1.1v-2.2c0-0.6,0.5-1.1,1.1-1.1c0.6,0,1.1,0.5,1.1,1.1V81C304.3,81.7,303.8,82.2,303.2,82.2z M303.2,75.5
					c-0.6,0-1.1-0.5-1.1-1.1v-2.2c0-0.6,0.5-1.1,1.1-1.1c0.6,0,1.1,0.5,1.1,1.1v2.2C304.3,75,303.8,75.5,303.2,75.5z M303.2,68.8
					c-0.6,0-1.1-0.5-1.1-1.1v-2.2c0-0.6,0.5-1.1,1.1-1.1c0.6,0,1.1,0.5,1.1,1.1v2.2C304.3,68.3,303.8,68.8,303.2,68.8z"/>
			</g>
			<g>
				<path class="st1" d="M303.2,62.1c-0.6,0-1.1-0.5-1.1-1.1v-1.1c0-0.6,0.5-1.1,1.1-1.1c0.6,0,1.1,0.5,1.1,1.1v1.1
					C304.3,61.5,303.8,62.1,303.2,62.1z"/>
			</g>
		</g>
		<g>
			<g>
				<path class="st1" d="M310.3,133.2c-0.6,0-1.1-0.5-1.1-1.1v-1.1c0-0.6,0.5-1.1,1.1-1.1c0.6,0,1.1,0.5,1.1,1.1v1.1
					C311.4,132.6,310.9,133.2,310.3,133.2z"/>
			</g>
			<g>
				<path class="st1" d="M310.3,127.3c-0.6,0-1.1-0.5-1.1-1.1v-2.4c0-0.6,0.5-1.1,1.1-1.1c0.6,0,1.1,0.5,1.1,1.1v2.4
					C311.4,126.8,310.9,127.3,310.3,127.3z M310.3,120.2c-0.6,0-1.1-0.5-1.1-1.1v-2.4c0-0.6,0.5-1.1,1.1-1.1c0.6,0,1.1,0.5,1.1,1.1
					v2.4C311.4,119.6,310.9,120.2,310.3,120.2z M310.3,113c-0.6,0-1.1-0.5-1.1-1.1v-2.4c0-0.6,0.5-1.1,1.1-1.1
					c0.6,0,1.1,0.5,1.1,1.1v2.4C311.4,112.5,310.9,113,310.3,113z M310.3,105.9c-0.6,0-1.1-0.5-1.1-1.1v-2.4c0-0.6,0.5-1.1,1.1-1.1
					c0.6,0,1.1,0.5,1.1,1.1v2.4C311.4,105.4,310.9,105.9,310.3,105.9z M310.3,98.8c-0.6,0-1.1-0.5-1.1-1.1v-2.4
					c0-0.6,0.5-1.1,1.1-1.1c0.6,0,1.1,0.5,1.1,1.1v2.4C311.4,98.3,310.9,98.8,310.3,98.8z M310.3,91.7c-0.6,0-1.1-0.5-1.1-1.1v-2.4
					c0-0.6,0.5-1.1,1.1-1.1c0.6,0,1.1,0.5,1.1,1.1v2.4C311.4,91.2,310.9,91.7,310.3,91.7z M310.3,84.6c-0.6,0-1.1-0.5-1.1-1.1v-2.4
					c0-0.6,0.5-1.1,1.1-1.1c0.6,0,1.1,0.5,1.1,1.1v2.4C311.4,84.1,310.9,84.6,310.3,84.6z M310.3,77.5c-0.6,0-1.1-0.5-1.1-1.1V74
					c0-0.6,0.5-1.1,1.1-1.1c0.6,0,1.1,0.5,1.1,1.1v2.4C311.4,77,310.9,77.5,310.3,77.5z"/>
			</g>
			<g>
				<path class="st1" d="M310.3,70.4c-0.6,0-1.1-0.5-1.1-1.1v-1.1c0-0.6,0.5-1.1,1.1-1.1c0.6,0,1.1,0.5,1.1,1.1v1.1
					C311.4,69.9,310.9,70.4,310.3,70.4z"/>
			</g>
		</g>
		<g>
			<g>
				<path class="st1" d="M324.4,141.5c-0.6,0-1.1-0.5-1.1-1.1v-1.1c0-0.6,0.5-1.1,1.1-1.1c0.6,0,1.1,0.5,1.1,1.1v1.1
					C325.5,141,325,141.5,324.4,141.5z"/>
			</g>
			<g>
				<path class="st1" d="M324.4,135.9c-0.6,0-1.1-0.5-1.1-1.1v-2.2c0-0.6,0.5-1.1,1.1-1.1c0.6,0,1.1,0.5,1.1,1.1v2.2
					C325.5,135.4,325,135.9,324.4,135.9z M324.4,129.2c-0.6,0-1.1-0.5-1.1-1.1v-2.2c0-0.6,0.5-1.1,1.1-1.1c0.6,0,1.1,0.5,1.1,1.1
					v2.2C325.5,128.6,325,129.2,324.4,129.2z M324.4,122.5c-0.6,0-1.1-0.5-1.1-1.1v-2.2c0-0.6,0.5-1.1,1.1-1.1
					c0.6,0,1.1,0.5,1.1,1.1v2.2C325.5,121.9,325,122.5,324.4,122.5z M324.4,115.7c-0.6,0-1.1-0.5-1.1-1.1v-2.2
					c0-0.6,0.5-1.1,1.1-1.1c0.6,0,1.1,0.5,1.1,1.1v2.2C325.5,115.2,325,115.7,324.4,115.7z M324.4,109c-0.6,0-1.1-0.5-1.1-1.1v-2.2
					c0-0.6,0.5-1.1,1.1-1.1c0.6,0,1.1,0.5,1.1,1.1v2.2C325.5,108.5,325,109,324.4,109z M324.4,102.3c-0.6,0-1.1-0.5-1.1-1.1v-2.2
					c0-0.6,0.5-1.1,1.1-1.1c0.6,0,1.1,0.5,1.1,1.1v2.2C325.5,101.8,325,102.3,324.4,102.3z M324.4,95.6c-0.6,0-1.1-0.5-1.1-1.1v-2.2
					c0-0.6,0.5-1.1,1.1-1.1c0.6,0,1.1,0.5,1.1,1.1v2.2C325.5,95.1,325,95.6,324.4,95.6z M324.4,88.9c-0.6,0-1.1-0.5-1.1-1.1v-2.2
					c0-0.6,0.5-1.1,1.1-1.1c0.6,0,1.1,0.5,1.1,1.1v2.2C325.5,88.4,325,88.9,324.4,88.9z M324.4,82.2c-0.6,0-1.1-0.5-1.1-1.1v-2.2
					c0-0.6,0.5-1.1,1.1-1.1c0.6,0,1.1,0.5,1.1,1.1V81C325.5,81.7,325,82.2,324.4,82.2z M324.4,75.5c-0.6,0-1.1-0.5-1.1-1.1v-2.2
					c0-0.6,0.5-1.1,1.1-1.1c0.6,0,1.1,0.5,1.1,1.1v2.2C325.5,75,325,75.5,324.4,75.5z M324.4,68.8c-0.6,0-1.1-0.5-1.1-1.1v-2.2
					c0-0.6,0.5-1.1,1.1-1.1c0.6,0,1.1,0.5,1.1,1.1v2.2C325.5,68.3,325,68.8,324.4,68.8z"/>
			</g>
			<g>
				<path class="st1" d="M324.4,62.1c-0.6,0-1.1-0.5-1.1-1.1v-1.1c0-0.6,0.5-1.1,1.1-1.1c0.6,0,1.1,0.5,1.1,1.1v1.1
					C325.5,61.5,325,62.1,324.4,62.1z"/>
			</g>
		</g>
		<g>
			<g>
				<path class="st1" d="M331.5,156.8c-0.6,0-1.1-0.5-1.1-1.1v-1.1c0-0.6,0.5-1.1,1.1-1.1c0.6,0,1.1,0.5,1.1,1.1v1.1
					C332.6,156.3,332.1,156.8,331.5,156.8z"/>
			</g>
			<g>
				<path class="st1" d="M331.5,151c-0.6,0-1.1-0.5-1.1-1.1v-2.3c0-0.6,0.5-1.1,1.1-1.1c0.6,0,1.1,0.5,1.1,1.1v2.3
					C332.6,150.5,332.1,151,331.5,151z M331.5,144c-0.6,0-1.1-0.5-1.1-1.1v-2.3c0-0.6,0.5-1.1,1.1-1.1c0.6,0,1.1,0.5,1.1,1.1v2.3
					C332.6,143.5,332.1,144,331.5,144z M331.5,137.1c-0.6,0-1.1-0.5-1.1-1.1v-2.3c0-0.6,0.5-1.1,1.1-1.1c0.6,0,1.1,0.5,1.1,1.1v2.3
					C332.6,136.6,332.1,137.1,331.5,137.1z M331.5,130.2c-0.6,0-1.1-0.5-1.1-1.1v-2.3c0-0.6,0.5-1.1,1.1-1.1c0.6,0,1.1,0.5,1.1,1.1
					v2.3C332.6,129.6,332.1,130.2,331.5,130.2z M331.5,123.2c-0.6,0-1.1-0.5-1.1-1.1v-2.3c0-0.6,0.5-1.1,1.1-1.1
					c0.6,0,1.1,0.5,1.1,1.1v2.3C332.6,122.7,332.1,123.2,331.5,123.2z M331.5,116.3c-0.6,0-1.1-0.5-1.1-1.1v-2.3
					c0-0.6,0.5-1.1,1.1-1.1c0.6,0,1.1,0.5,1.1,1.1v2.3C332.6,115.7,332.1,116.3,331.5,116.3z M331.5,109.3c-0.6,0-1.1-0.5-1.1-1.1
					v-2.3c0-0.6,0.5-1.1,1.1-1.1c0.6,0,1.1,0.5,1.1,1.1v2.3C332.6,108.8,332.1,109.3,331.5,109.3z M331.5,102.4
					c-0.6,0-1.1-0.5-1.1-1.1v-2.3c0-0.6,0.5-1.1,1.1-1.1c0.6,0,1.1,0.5,1.1,1.1v2.3C332.6,101.8,332.1,102.4,331.5,102.4z
					 M331.5,95.4c-0.6,0-1.1-0.5-1.1-1.1v-2.3c0-0.6,0.5-1.1,1.1-1.1c0.6,0,1.1,0.5,1.1,1.1v2.3C332.6,94.9,332.1,95.4,331.5,95.4z
					 M331.5,88.5c-0.6,0-1.1-0.5-1.1-1.1V85c0-0.6,0.5-1.1,1.1-1.1c0.6,0,1.1,0.5,1.1,1.1v2.3C332.6,88,332.1,88.5,331.5,88.5z
					 M331.5,81.5c-0.6,0-1.1-0.5-1.1-1.1v-2.3c0-0.6,0.5-1.1,1.1-1.1c0.6,0,1.1,0.5,1.1,1.1v2.3C332.6,81,332.1,81.5,331.5,81.5z
					 M331.5,74.6c-0.6,0-1.1-0.5-1.1-1.1v-2.3c0-0.6,0.5-1.1,1.1-1.1c0.6,0,1.1,0.5,1.1,1.1v2.3C332.6,74.1,332.1,74.6,331.5,74.6z
					 M331.5,67.6c-0.6,0-1.1-0.5-1.1-1.1v-2.3c0-0.6,0.5-1.1,1.1-1.1c0.6,0,1.1,0.5,1.1,1.1v2.3C332.6,67.1,332.1,67.6,331.5,67.6z
					 M331.5,60.7c-0.6,0-1.1-0.5-1.1-1.1v-2.3c0-0.6,0.5-1.1,1.1-1.1c0.6,0,1.1,0.5,1.1,1.1v2.3C332.6,60.2,332.1,60.7,331.5,60.7z
					 M331.5,53.7c-0.6,0-1.1-0.5-1.1-1.1v-2.3c0-0.6,0.5-1.1,1.1-1.1c0.6,0,1.1,0.5,1.1,1.1v2.3C332.6,53.2,332.1,53.7,331.5,53.7z"
					/>
			</g>
			<g>
				<path class="st1" d="M331.5,46.8c-0.6,0-1.1-0.5-1.1-1.1v-1.1c0-0.6,0.5-1.1,1.1-1.1c0.6,0,1.1,0.5,1.1,1.1v1.1
					C332.6,46.3,332.1,46.8,331.5,46.8z"/>
			</g>
		</g>
		<g>
			<g>
				<path class="st1" d="M381.3,105.4c-0.6,0-1.1-0.5-1.1-1.1v-1.1c0-0.6,0.5-1.1,1.1-1.1c0.6,0,1.1,0.5,1.1,1.1v1.1
					C382.4,104.9,381.9,105.4,381.3,105.4z"/>
			</g>
			<g>
				<path class="st1" d="M381.3,101.8c-0.6,0-1.1-0.5-1.1-1.1v-1.2c0-0.6,0.5-1.1,1.1-1.1c0.6,0,1.1,0.5,1.1,1.1v1.2
					C382.4,101.3,381.9,101.8,381.3,101.8z"/>
			</g>
			<g>
				<path class="st1" d="M381.3,98.2c-0.6,0-1.1-0.5-1.1-1.1v-1.1c0-0.6,0.5-1.1,1.1-1.1c0.6,0,1.1,0.5,1.1,1.1V97
					C382.4,97.7,381.9,98.2,381.3,98.2z"/>
			</g>
		</g>
		<g>
			<g>
				<path class="st1" d="M388.7,109.5c-0.6,0-1.1-0.5-1.1-1.1v-1.1c0-0.6,0.5-1.1,1.1-1.1c0.6,0,1.1,0.5,1.1,1.1v1.1
					C389.8,109,389.3,109.5,388.7,109.5z"/>
			</g>
			<g>
				<path class="st1" d="M388.7,102.6c-0.6,0-1.1-0.5-1.1-1.1v-2.9c0-0.6,0.5-1.1,1.1-1.1c0.6,0,1.1,0.5,1.1,1.1v2.9
					C389.8,102.1,389.3,102.6,388.7,102.6z"/>
			</g>
			<g>
				<path class="st1" d="M388.7,94c-0.6,0-1.1-0.5-1.1-1.1v-1.1c0-0.6,0.5-1.1,1.1-1.1c0.6,0,1.1,0.5,1.1,1.1v1.1
					C389.8,93.5,389.3,94,388.7,94z"/>
			</g>
		</g>
		<g>
			<g>
				<path class="st1" d="M395.7,101c-0.6,0-1.1-0.5-1.1-1.1v-1.1c0-0.6,0.5-1.1,1.1-1.1c0.6,0,1.1,0.5,1.1,1.1v1.1
					C396.9,100.4,396.4,101,395.7,101z"/>
			</g>
			<g>
				<path class="st1" d="M395.7,102.6c-0.6,0-1.1-0.5-1.1-1.1v-1.1c0-0.6,0.5-1.1,1.1-1.1c0.6,0,1.1,0.5,1.1,1.1v1.1
					C396.9,102.1,396.4,102.6,395.7,102.6z"/>
			</g>
		</g>
		<g>
			<g>
				<path class="st1" d="M483.3,101c-0.6,0-1.1-0.5-1.1-1.1v-1.1c0-0.6,0.5-1.1,1.1-1.1c0.6,0,1.1,0.5,1.1,1.1v1.1
					C484.4,100.4,483.9,101,483.3,101z"/>
			</g>
			<g>
				<path class="st1" d="M483.3,102.6c-0.6,0-1.1-0.5-1.1-1.1v-1.1c0-0.6,0.5-1.1,1.1-1.1c0.6,0,1.1,0.5,1.1,1.1v1.1
					C484.4,102.1,483.9,102.6,483.3,102.6z"/>
			</g>
		</g>
		<g>
			<g>
				<path class="st1" d="M16.3,98.2c-0.6,0-1.1-0.5-1.1-1.1v-1.1c0-0.6,0.5-1.1,1.1-1.1s1.1,0.5,1.1,1.1V97
					C17.4,97.7,16.9,98.2,16.3,98.2z"/>
			</g>
			<g>
				<path class="st1" d="M16.3,101.8c-0.6,0-1.1-0.5-1.1-1.1v-1.2c0-0.6,0.5-1.1,1.1-1.1s1.1,0.5,1.1,1.1v1.2
					C17.4,101.3,16.9,101.8,16.3,101.8z"/>
			</g>
			<g>
				<path class="st1" d="M16.3,105.4c-0.6,0-1.1-0.5-1.1-1.1v-1.1c0-0.6,0.5-1.1,1.1-1.1s1.1,0.5,1.1,1.1v1.1
					C17.4,104.9,16.9,105.4,16.3,105.4z"/>
			</g>
		</g>
		<g>
			<g>
				<path class="st1" d="M24.2,101c-0.6,0-1.1-0.5-1.1-1.1v-1.1c0-0.6,0.5-1.1,1.1-1.1s1.1,0.5,1.1,1.1v1.1
					C25.3,100.4,24.8,101,24.2,101z"/>
			</g>
			<g>
				<path class="st1" d="M24.2,102.6c-0.6,0-1.1-0.5-1.1-1.1v-1.1c0-0.6,0.5-1.1,1.1-1.1s1.1,0.5,1.1,1.1v1.1
					C25.3,102.1,24.8,102.6,24.2,102.6z"/>
			</g>
		</g>
		<g>
			<g>
				<path class="st1" d="M459.7,109.5c-0.6,0-1.1-0.5-1.1-1.1v-1.1c0-0.6,0.5-1.1,1.1-1.1c0.6,0,1.1,0.5,1.1,1.1v1.1
					C460.8,109,460.3,109.5,459.7,109.5z"/>
			</g>
			<g>
				<path class="st1" d="M459.7,102.6c-0.6,0-1.1-0.5-1.1-1.1v-2.9c0-0.6,0.5-1.1,1.1-1.1c0.6,0,1.1,0.5,1.1,1.1v2.9
					C460.8,102.1,460.3,102.6,459.7,102.6z"/>
			</g>
			<g>
				<path class="st1" d="M459.7,94c-0.6,0-1.1-0.5-1.1-1.1v-1.1c0-0.6,0.5-1.1,1.1-1.1c0.6,0,1.1,0.5,1.1,1.1v1.1
					C460.8,93.5,460.3,94,459.7,94z"/>
			</g>
		</g>
		<g>
			<g>
				<path class="st1" d="M445.3,101c-0.6,0-1.1-0.5-1.1-1.1v-1.1c0-0.6,0.5-1.1,1.1-1.1c0.6,0,1.1,0.5,1.1,1.1v1.1
					C446.4,100.4,445.9,101,445.3,101z"/>
			</g>
			<g>
				<path class="st1" d="M445.3,102.6c-0.6,0-1.1-0.5-1.1-1.1v-1.1c0-0.6,0.5-1.1,1.1-1.1c0.6,0,1.1,0.5,1.1,1.1v1.1
					C446.4,102.1,445.9,102.6,445.3,102.6z"/>
			</g>
		</g>
		<g>
			<g>
				<path class="st1" d="M338.5,177.6c-0.6,0-1.1-0.5-1.1-1.1v-1.1c0-0.6,0.5-1.1,1.1-1.1c0.6,0,1.1,0.5,1.1,1.1v1.1
					C339.7,177.1,339.2,177.6,338.5,177.6z"/>
			</g>
			<g>
				<path class="st1" d="M338.5,171.8c-0.6,0-1.1-0.5-1.1-1.1v-2.3c0-0.6,0.5-1.1,1.1-1.1c0.6,0,1.1,0.5,1.1,1.1v2.3
					C339.7,171.3,339.2,171.8,338.5,171.8z M338.5,164.9c-0.6,0-1.1-0.5-1.1-1.1v-2.3c0-0.6,0.5-1.1,1.1-1.1c0.6,0,1.1,0.5,1.1,1.1
					v2.3C339.7,164.4,339.2,164.9,338.5,164.9z M338.5,157.9c-0.6,0-1.1-0.5-1.1-1.1v-2.3c0-0.6,0.5-1.1,1.1-1.1
					c0.6,0,1.1,0.5,1.1,1.1v2.3C339.7,157.4,339.2,157.9,338.5,157.9z M338.5,151c-0.6,0-1.1-0.5-1.1-1.1v-2.3
					c0-0.6,0.5-1.1,1.1-1.1c0.6,0,1.1,0.5,1.1,1.1v2.3C339.7,150.5,339.2,151,338.5,151z M338.5,144c-0.6,0-1.1-0.5-1.1-1.1v-2.3
					c0-0.6,0.5-1.1,1.1-1.1c0.6,0,1.1,0.5,1.1,1.1v2.3C339.7,143.5,339.2,144,338.5,144z M338.5,137.1c-0.6,0-1.1-0.5-1.1-1.1v-2.3
					c0-0.6,0.5-1.1,1.1-1.1c0.6,0,1.1,0.5,1.1,1.1v2.3C339.7,136.6,339.2,137.1,338.5,137.1z M338.5,130.2c-0.6,0-1.1-0.5-1.1-1.1
					v-2.3c0-0.6,0.5-1.1,1.1-1.1c0.6,0,1.1,0.5,1.1,1.1v2.3C339.7,129.6,339.2,130.2,338.5,130.2z M338.5,123.2
					c-0.6,0-1.1-0.5-1.1-1.1v-2.3c0-0.6,0.5-1.1,1.1-1.1c0.6,0,1.1,0.5,1.1,1.1v2.3C339.7,122.7,339.2,123.2,338.5,123.2z
					 M338.5,116.3c-0.6,0-1.1-0.5-1.1-1.1v-2.3c0-0.6,0.5-1.1,1.1-1.1c0.6,0,1.1,0.5,1.1,1.1v2.3
					C339.7,115.7,339.2,116.3,338.5,116.3z M338.5,109.3c-0.6,0-1.1-0.5-1.1-1.1v-2.3c0-0.6,0.5-1.1,1.1-1.1c0.6,0,1.1,0.5,1.1,1.1
					v2.3C339.7,108.8,339.2,109.3,338.5,109.3z M338.5,102.4c-0.6,0-1.1-0.5-1.1-1.1v-2.3c0-0.6,0.5-1.1,1.1-1.1
					c0.6,0,1.1,0.5,1.1,1.1v2.3C339.7,101.8,339.2,102.4,338.5,102.4z M338.5,95.4c-0.6,0-1.1-0.5-1.1-1.1V92c0-0.6,0.5-1.1,1.1-1.1
					c0.6,0,1.1,0.5,1.1,1.1v2.3C339.7,94.9,339.2,95.4,338.5,95.4z M338.5,88.5c-0.6,0-1.1-0.5-1.1-1.1V85c0-0.6,0.5-1.1,1.1-1.1
					c0.6,0,1.1,0.5,1.1,1.1v2.3C339.7,88,339.2,88.5,338.5,88.5z M338.5,81.5c-0.6,0-1.1-0.5-1.1-1.1v-2.3c0-0.6,0.5-1.1,1.1-1.1
					c0.6,0,1.1,0.5,1.1,1.1v2.3C339.7,81,339.2,81.5,338.5,81.5z M338.5,74.6c-0.6,0-1.1-0.5-1.1-1.1v-2.3c0-0.6,0.5-1.1,1.1-1.1
					c0.6,0,1.1,0.5,1.1,1.1v2.3C339.7,74.1,339.2,74.6,338.5,74.6z M338.5,67.6c-0.6,0-1.1-0.5-1.1-1.1v-2.3c0-0.6,0.5-1.1,1.1-1.1
					c0.6,0,1.1,0.5,1.1,1.1v2.3C339.7,67.1,339.2,67.6,338.5,67.6z M338.5,60.7c-0.6,0-1.1-0.5-1.1-1.1v-2.3c0-0.6,0.5-1.1,1.1-1.1
					c0.6,0,1.1,0.5,1.1,1.1v2.3C339.7,60.2,339.2,60.7,338.5,60.7z M338.5,53.7c-0.6,0-1.1-0.5-1.1-1.1v-2.3c0-0.6,0.5-1.1,1.1-1.1
					c0.6,0,1.1,0.5,1.1,1.1v2.3C339.7,53.2,339.2,53.7,338.5,53.7z M338.5,46.8c-0.6,0-1.1-0.5-1.1-1.1v-2.3c0-0.6,0.5-1.1,1.1-1.1
					c0.6,0,1.1,0.5,1.1,1.1v2.3C339.7,46.3,339.2,46.8,338.5,46.8z M338.5,39.8c-0.6,0-1.1-0.5-1.1-1.1v-2.3c0-0.6,0.5-1.1,1.1-1.1
					c0.6,0,1.1,0.5,1.1,1.1v2.3C339.7,39.3,339.2,39.8,338.5,39.8z M338.5,32.9c-0.6,0-1.1-0.5-1.1-1.1v-2.3c0-0.6,0.5-1.1,1.1-1.1
					c0.6,0,1.1,0.5,1.1,1.1v2.3C339.7,32.4,339.2,32.9,338.5,32.9z"/>
			</g>
			<g>
				<path class="st1" d="M338.5,25.9c-0.6,0-1.1-0.5-1.1-1.1v-1.1c0-0.6,0.5-1.1,1.1-1.1c0.6,0,1.1,0.5,1.1,1.1v1.1
					C339.7,25.4,339.2,25.9,338.5,25.9z"/>
			</g>
		</g>
		<g>
			<g>
				<path class="st1" d="M345.6,141.5c-0.6,0-1.1-0.5-1.1-1.1v-1.1c0-0.6,0.5-1.1,1.1-1.1c0.6,0,1.1,0.5,1.1,1.1v1.1
					C346.7,141,346.2,141.5,345.6,141.5z"/>
			</g>
			<g>
				<path class="st1" d="M345.6,135.9c-0.6,0-1.1-0.5-1.1-1.1v-2.2c0-0.6,0.5-1.1,1.1-1.1c0.6,0,1.1,0.5,1.1,1.1v2.2
					C346.7,135.4,346.2,135.9,345.6,135.9z M345.6,129.2c-0.6,0-1.1-0.5-1.1-1.1v-2.2c0-0.6,0.5-1.1,1.1-1.1c0.6,0,1.1,0.5,1.1,1.1
					v2.2C346.7,128.6,346.2,129.2,345.6,129.2z M345.6,122.5c-0.6,0-1.1-0.5-1.1-1.1v-2.2c0-0.6,0.5-1.1,1.1-1.1
					c0.6,0,1.1,0.5,1.1,1.1v2.2C346.7,121.9,346.2,122.5,345.6,122.5z M345.6,115.7c-0.6,0-1.1-0.5-1.1-1.1v-2.2
					c0-0.6,0.5-1.1,1.1-1.1c0.6,0,1.1,0.5,1.1,1.1v2.2C346.7,115.2,346.2,115.7,345.6,115.7z M345.6,109c-0.6,0-1.1-0.5-1.1-1.1
					v-2.2c0-0.6,0.5-1.1,1.1-1.1c0.6,0,1.1,0.5,1.1,1.1v2.2C346.7,108.5,346.2,109,345.6,109z M345.6,102.3c-0.6,0-1.1-0.5-1.1-1.1
					v-2.2c0-0.6,0.5-1.1,1.1-1.1c0.6,0,1.1,0.5,1.1,1.1v2.2C346.7,101.8,346.2,102.3,345.6,102.3z M345.6,95.6
					c-0.6,0-1.1-0.5-1.1-1.1v-2.2c0-0.6,0.5-1.1,1.1-1.1c0.6,0,1.1,0.5,1.1,1.1v2.2C346.7,95.1,346.2,95.6,345.6,95.6z M345.6,88.9
					c-0.6,0-1.1-0.5-1.1-1.1v-2.2c0-0.6,0.5-1.1,1.1-1.1c0.6,0,1.1,0.5,1.1,1.1v2.2C346.7,88.4,346.2,88.9,345.6,88.9z M345.6,82.2
					c-0.6,0-1.1-0.5-1.1-1.1v-2.2c0-0.6,0.5-1.1,1.1-1.1c0.6,0,1.1,0.5,1.1,1.1V81C346.7,81.7,346.2,82.2,345.6,82.2z M345.6,75.5
					c-0.6,0-1.1-0.5-1.1-1.1v-2.2c0-0.6,0.5-1.1,1.1-1.1c0.6,0,1.1,0.5,1.1,1.1v2.2C346.7,75,346.2,75.5,345.6,75.5z M345.6,68.8
					c-0.6,0-1.1-0.5-1.1-1.1v-2.2c0-0.6,0.5-1.1,1.1-1.1c0.6,0,1.1,0.5,1.1,1.1v2.2C346.7,68.3,346.2,68.8,345.6,68.8z"/>
			</g>
			<g>
				<path class="st1" d="M345.6,62.1c-0.6,0-1.1-0.5-1.1-1.1v-1.1c0-0.6,0.5-1.1,1.1-1.1c0.6,0,1.1,0.5,1.1,1.1v1.1
					C346.7,61.5,346.2,62.1,345.6,62.1z"/>
			</g>
		</g>
		<g>
			<g>
				<path class="st1" d="M352.7,126.2c-0.6,0-1.1-0.5-1.1-1.1v-1.1c0-0.6,0.5-1.1,1.1-1.1c0.6,0,1.1,0.5,1.1,1.1v1.1
					C353.8,125.7,353.3,126.2,352.7,126.2z"/>
			</g>
			<g>
				<path class="st1" d="M352.7,120.3c-0.6,0-1.1-0.5-1.1-1.1v-2.4c0-0.6,0.5-1.1,1.1-1.1c0.6,0,1.1,0.5,1.1,1.1v2.4
					C353.8,119.8,353.3,120.3,352.7,120.3z M352.7,113.1c-0.6,0-1.1-0.5-1.1-1.1v-2.4c0-0.6,0.5-1.1,1.1-1.1c0.6,0,1.1,0.5,1.1,1.1
					v2.4C353.8,112.6,353.3,113.1,352.7,113.1z M352.7,106c-0.6,0-1.1-0.5-1.1-1.1v-2.4c0-0.6,0.5-1.1,1.1-1.1
					c0.6,0,1.1,0.5,1.1,1.1v2.4C353.8,105.5,353.3,106,352.7,106z M352.7,98.8c-0.6,0-1.1-0.5-1.1-1.1v-2.4c0-0.6,0.5-1.1,1.1-1.1
					c0.6,0,1.1,0.5,1.1,1.1v2.4C353.8,98.3,353.3,98.8,352.7,98.8z M352.7,91.7c-0.6,0-1.1-0.5-1.1-1.1v-2.4c0-0.6,0.5-1.1,1.1-1.1
					c0.6,0,1.1,0.5,1.1,1.1v2.4C353.8,91.1,353.3,91.7,352.7,91.7z M352.7,84.5c-0.6,0-1.1-0.5-1.1-1.1V81c0-0.6,0.5-1.1,1.1-1.1
					c0.6,0,1.1,0.5,1.1,1.1v2.4C353.8,84,353.3,84.5,352.7,84.5z"/>
			</g>
			<g>
				<path class="st1" d="M352.7,77.3c-0.6,0-1.1-0.5-1.1-1.1V75c0-0.6,0.5-1.1,1.1-1.1c0.6,0,1.1,0.5,1.1,1.1v1.1
					C353.8,76.8,353.3,77.3,352.7,77.3z"/>
			</g>
		</g>
		<g>
			<g>
				<path class="st1" d="M359.7,112.3c-0.6,0-1.1-0.5-1.1-1.1V110c0-0.6,0.5-1.1,1.1-1.1c0.6,0,1.1,0.5,1.1,1.1v1.1
					C360.9,111.8,360.4,112.3,359.7,112.3z"/>
			</g>
			<g>
				<path class="st1" d="M359.7,106.2c-0.6,0-1.1-0.5-1.1-1.1v-2.5c0-0.6,0.5-1.1,1.1-1.1c0.6,0,1.1,0.5,1.1,1.1v2.5
					C360.9,105.7,360.4,106.2,359.7,106.2z M359.7,98.7c-0.6,0-1.1-0.5-1.1-1.1v-2.5c0-0.6,0.5-1.1,1.1-1.1c0.6,0,1.1,0.5,1.1,1.1
					v2.5C360.9,98.2,360.4,98.7,359.7,98.7z"/>
			</g>
			<g>
				<path class="st1" d="M359.7,91.2c-0.6,0-1.1-0.5-1.1-1.1v-1.1c0-0.6,0.5-1.1,1.1-1.1c0.6,0,1.1,0.5,1.1,1.1v1.1
					C360.9,90.7,360.4,91.2,359.7,91.2z"/>
			</g>
		</g>
		<g>
			<g>
				<path class="st1" d="M403.1,109.5c-0.6,0-1.1-0.5-1.1-1.1v-1.1c0-0.6,0.5-1.1,1.1-1.1c0.6,0,1.1,0.5,1.1,1.1v1.1
					C404.2,109,403.7,109.5,403.1,109.5z"/>
			</g>
			<g>
				<path class="st1" d="M403.1,102.6c-0.6,0-1.1-0.5-1.1-1.1v-2.9c0-0.6,0.5-1.1,1.1-1.1c0.6,0,1.1,0.5,1.1,1.1v2.9
					C404.2,102.1,403.7,102.6,403.1,102.6z"/>
			</g>
			<g>
				<path class="st1" d="M403.1,94c-0.6,0-1.1-0.5-1.1-1.1v-1.1c0-0.6,0.5-1.1,1.1-1.1c0.6,0,1.1,0.5,1.1,1.1v1.1
					C404.2,93.5,403.7,94,403.1,94z"/>
			</g>
		</g>
		<g>
			<g>
				<path class="st1" d="M410.2,126.2c-0.6,0-1.1-0.5-1.1-1.1v-1.1c0-0.6,0.5-1.1,1.1-1.1c0.6,0,1.1,0.5,1.1,1.1v1.1
					C411.3,125.7,410.8,126.2,410.2,126.2z"/>
			</g>
			<g>
				<path class="st1" d="M410.2,120.3c-0.6,0-1.1-0.5-1.1-1.1v-2.4c0-0.6,0.5-1.1,1.1-1.1c0.6,0,1.1,0.5,1.1,1.1v2.4
					C411.3,119.8,410.8,120.3,410.2,120.3z M410.2,113.1c-0.6,0-1.1-0.5-1.1-1.1v-2.4c0-0.6,0.5-1.1,1.1-1.1c0.6,0,1.1,0.5,1.1,1.1
					v2.4C411.3,112.6,410.8,113.1,410.2,113.1z M410.2,106c-0.6,0-1.1-0.5-1.1-1.1v-2.4c0-0.6,0.5-1.1,1.1-1.1
					c0.6,0,1.1,0.5,1.1,1.1v2.4C411.3,105.5,410.8,106,410.2,106z M410.2,98.8c-0.6,0-1.1-0.5-1.1-1.1v-2.4c0-0.6,0.5-1.1,1.1-1.1
					c0.6,0,1.1,0.5,1.1,1.1v2.4C411.3,98.3,410.8,98.8,410.2,98.8z M410.2,91.7c-0.6,0-1.1-0.5-1.1-1.1v-2.4c0-0.6,0.5-1.1,1.1-1.1
					c0.6,0,1.1,0.5,1.1,1.1v2.4C411.3,91.1,410.8,91.7,410.2,91.7z M410.2,84.5c-0.6,0-1.1-0.5-1.1-1.1V81c0-0.6,0.5-1.1,1.1-1.1
					c0.6,0,1.1,0.5,1.1,1.1v2.4C411.3,84,410.8,84.5,410.2,84.5z"/>
			</g>
			<g>
				<path class="st1" d="M410.2,77.3c-0.6,0-1.1-0.5-1.1-1.1V75c0-0.6,0.5-1.1,1.1-1.1c0.6,0,1.1,0.5,1.1,1.1v1.1
					C411.3,76.8,410.8,77.3,410.2,77.3z"/>
			</g>
		</g>
		<g>
			<g>
				<path class="st1" d="M417.2,110.9c-0.6,0-1.1-0.5-1.1-1.1v-1.1c0-0.6,0.5-1.1,1.1-1.1c0.6,0,1.1,0.5,1.1,1.1v1.1
					C418.4,110.4,417.9,110.9,417.2,110.9z"/>
			</g>
			<g>
				<path class="st1" d="M417.2,105.5c-0.6,0-1.1-0.5-1.1-1.1v-2.1c0-0.6,0.5-1.1,1.1-1.1c0.6,0,1.1,0.5,1.1,1.1v2.1
					C418.4,105,417.9,105.5,417.2,105.5z M417.2,99.1c-0.6,0-1.1-0.5-1.1-1.1v-2.1c0-0.6,0.5-1.1,1.1-1.1c0.6,0,1.1,0.5,1.1,1.1v2.1
					C418.4,98.5,417.9,99.1,417.2,99.1z"/>
			</g>
			<g>
				<path class="st1" d="M417.2,92.6c-0.6,0-1.1-0.5-1.1-1.1v-1.1c0-0.6,0.5-1.1,1.1-1.1c0.6,0,1.1,0.5,1.1,1.1v1.1
					C418.4,92.1,417.9,92.6,417.2,92.6z"/>
			</g>
		</g>
		<g>
			<g>
				<path class="st1" d="M424.3,119.3c-0.6,0-1.1-0.5-1.1-1.1V117c0-0.6,0.5-1.1,1.1-1.1c0.6,0,1.1,0.5,1.1,1.1v1.1
					C425.4,118.8,424.9,119.3,424.3,119.3z"/>
			</g>
			<g>
				<path class="st1" d="M424.3,113.3c-0.6,0-1.1-0.5-1.1-1.1v-2.4c0-0.6,0.5-1.1,1.1-1.1c0.6,0,1.1,0.5,1.1,1.1v2.4
					C425.4,112.8,424.9,113.3,424.3,113.3z M424.3,106c-0.6,0-1.1-0.5-1.1-1.1v-2.4c0-0.6,0.5-1.1,1.1-1.1c0.6,0,1.1,0.5,1.1,1.1
					v2.4C425.4,105.5,424.9,106,424.3,106z M424.3,98.8c-0.6,0-1.1-0.5-1.1-1.1v-2.4c0-0.6,0.5-1.1,1.1-1.1c0.6,0,1.1,0.5,1.1,1.1
					v2.4C425.4,98.3,424.9,98.8,424.3,98.8z M424.3,91.5c-0.6,0-1.1-0.5-1.1-1.1V88c0-0.6,0.5-1.1,1.1-1.1c0.6,0,1.1,0.5,1.1,1.1
					v2.4C425.4,91,424.9,91.5,424.3,91.5z"/>
			</g>
			<g>
				<path class="st1" d="M424.3,84.3c-0.6,0-1.1-0.5-1.1-1.1V82c0-0.6,0.5-1.1,1.1-1.1c0.6,0,1.1,0.5,1.1,1.1v1.1
					C425.4,83.8,424.9,84.3,424.3,84.3z"/>
			</g>
		</g>
		<g>
			<g>
				<path class="st1" d="M431.4,109.5c-0.6,0-1.1-0.5-1.1-1.1v-1.1c0-0.6,0.5-1.1,1.1-1.1c0.6,0,1.1,0.5,1.1,1.1v1.1
					C432.5,109,432,109.5,431.4,109.5z"/>
			</g>
			<g>
				<path class="st1" d="M431.4,102.6c-0.6,0-1.1-0.5-1.1-1.1v-2.9c0-0.6,0.5-1.1,1.1-1.1c0.6,0,1.1,0.5,1.1,1.1v2.9
					C432.5,102.1,432,102.6,431.4,102.6z"/>
			</g>
			<g>
				<path class="st1" d="M431.4,94c-0.6,0-1.1-0.5-1.1-1.1v-1.1c0-0.6,0.5-1.1,1.1-1.1c0.6,0,1.1,0.5,1.1,1.1v1.1
					C432.5,93.5,432,94,431.4,94z"/>
			</g>
		</g>
		<g>
			<g>
				<path class="st1" d="M438.4,105.4c-0.6,0-1.1-0.5-1.1-1.1v-1.1c0-0.6,0.5-1.1,1.1-1.1c0.6,0,1.1,0.5,1.1,1.1v1.1
					C439.6,104.9,439.1,105.4,438.4,105.4z"/>
			</g>
			<g>
				<path class="st1" d="M438.4,101.8c-0.6,0-1.1-0.5-1.1-1.1v-1.2c0-0.6,0.5-1.1,1.1-1.1c0.6,0,1.1,0.5,1.1,1.1v1.2
					C439.6,101.3,439.1,101.8,438.4,101.8z"/>
			</g>
			<g>
				<path class="st1" d="M438.4,98.2c-0.6,0-1.1-0.5-1.1-1.1v-1.1c0-0.6,0.5-1.1,1.1-1.1c0.6,0,1.1,0.5,1.1,1.1V97
					C439.6,97.7,439.1,98.2,438.4,98.2z"/>
			</g>
		</g>
		<g>
			<g>
				<path class="st1" d="M366.8,126.2c-0.6,0-1.1-0.5-1.1-1.1v-1.1c0-0.6,0.5-1.1,1.1-1.1s1.1,0.5,1.1,1.1v1.1
					C367.9,125.7,367.4,126.2,366.8,126.2z"/>
			</g>
			<g>
				<path class="st1" d="M366.8,120.3c-0.6,0-1.1-0.5-1.1-1.1v-2.4c0-0.6,0.5-1.1,1.1-1.1s1.1,0.5,1.1,1.1v2.4
					C367.9,119.8,367.4,120.3,366.8,120.3z M366.8,113.1c-0.6,0-1.1-0.5-1.1-1.1v-2.4c0-0.6,0.5-1.1,1.1-1.1s1.1,0.5,1.1,1.1v2.4
					C367.9,112.6,367.4,113.1,366.8,113.1z M366.8,106c-0.6,0-1.1-0.5-1.1-1.1v-2.4c0-0.6,0.5-1.1,1.1-1.1s1.1,0.5,1.1,1.1v2.4
					C367.9,105.5,367.4,106,366.8,106z M366.8,98.8c-0.6,0-1.1-0.5-1.1-1.1v-2.4c0-0.6,0.5-1.1,1.1-1.1s1.1,0.5,1.1,1.1v2.4
					C367.9,98.3,367.4,98.8,366.8,98.8z M366.8,91.7c-0.6,0-1.1-0.5-1.1-1.1v-2.4c0-0.6,0.5-1.1,1.1-1.1s1.1,0.5,1.1,1.1v2.4
					C367.9,91.1,367.4,91.7,366.8,91.7z M366.8,84.5c-0.6,0-1.1-0.5-1.1-1.1V81c0-0.6,0.5-1.1,1.1-1.1s1.1,0.5,1.1,1.1v2.4
					C367.9,84,367.4,84.5,366.8,84.5z"/>
			</g>
			<g>
				<path class="st1" d="M366.8,77.3c-0.6,0-1.1-0.5-1.1-1.1V75c0-0.6,0.5-1.1,1.1-1.1s1.1,0.5,1.1,1.1v1.1
					C367.9,76.8,367.4,77.3,366.8,77.3z"/>
			</g>
		</g>
		<g>
			<g>
				<path class="st1" d="M373.9,112.3c-0.6,0-1.1-0.5-1.1-1.1V110c0-0.6,0.5-1.1,1.1-1.1s1.1,0.5,1.1,1.1v1.1
					C375,111.8,374.5,112.3,373.9,112.3z"/>
			</g>
			<g>
				<path class="st1" d="M373.9,106.2c-0.6,0-1.1-0.5-1.1-1.1v-2.5c0-0.6,0.5-1.1,1.1-1.1s1.1,0.5,1.1,1.1v2.5
					C375,105.7,374.5,106.2,373.9,106.2z M373.9,98.7c-0.6,0-1.1-0.5-1.1-1.1v-2.5c0-0.6,0.5-1.1,1.1-1.1s1.1,0.5,1.1,1.1v2.5
					C375,98.2,374.5,98.7,373.9,98.7z"/>
			</g>
			<g>
				<path class="st1" d="M373.9,91.2c-0.6,0-1.1-0.5-1.1-1.1v-1.1c0-0.6,0.5-1.1,1.1-1.1s1.1,0.5,1.1,1.1v1.1
					C375,90.7,374.5,91.2,373.9,91.2z"/>
			</g>
		</g>
	</g>
</g>
</svg>
