<?xml version="1.0" encoding="utf-8"?>
<!-- Generator: Adobe Illustrator 20.0.0, SVG Export Plug-In . SVG Version: 6.00 Build 0)  -->
<svg version="1.1" id="Layer_1" xmlns="http://www.w3.org/2000/svg" xmlns:xlink="http://www.w3.org/1999/xlink" x="0px" y="0px"
	 viewBox="0 0 420 300" style="enable-background:new 0 0 420 300;" xml:space="preserve">
<style type="text/css">
	.st0{opacity:0.2;fill:url(#SVGID_1_);}
	.st1{fill:url(#SVGID_2_);}
	.st2{fill:url(#SVGID_3_);}
	.st3{fill:url(#SVGID_4_);}
</style>
<linearGradient id="SVGID_1_" gradientUnits="userSpaceOnUse" x1="4.7238" y1="135.6432" x2="-38.9355" y2="-32.1006" gradientTransform="matrix(-1 0 0 1 300.0758 0)">
	<stop  offset="0" style="stop-color:#FFFFFF"/>
	<stop  offset="0.3618" style="stop-color:#01ABE9"/>
	<stop  offset="1" style="stop-color:#0056CD"/>
</linearGradient>
<path class="st0" d="M188.4-12.6h141.1c4.6,0,8.8,2.7,10.7,6.9l10.7,23.3c1.9,4.2,6.1,6.9,10.7,6.9h66.9c4.6,0,8.8,2.7,10.7,6.9
	l22.4,49c3.6,7.8-2.1,16.7-10.7,16.7H309.8c-4.6,0-8.8-2.7-10.7-6.9l-10.7-23.3c-1.9-4.2-6.1-6.9-10.7-6.9h-66.9
	c-4.6,0-8.8-2.7-10.7-6.9l-22.4-49C174.1-3.7,179.8-12.6,188.4-12.6z"/>
<linearGradient id="SVGID_2_" gradientUnits="userSpaceOnUse" x1="51.5471" y1="129.1212" x2="-18.5374" y2="-34.6011" gradientTransform="matrix(-1 0 0 1 300.0758 0)">
	<stop  offset="0" style="stop-color:#FFFFFF"/>
	<stop  offset="0.3618" style="stop-color:#01ABE9"/>
	<stop  offset="1" style="stop-color:#0056CD"/>
</linearGradient>
<path class="st1" d="M170.2-25.6H302c4.3,0,8.2,2.5,10,6.4l10,21.8c1.8,3.9,5.7,6.4,10,6.4h62.5c4.3,0,8.2,2.5,10,6.4l21,45.8
	c3.3,7.3-2,15.6-10,15.6H283.7c-4.3,0-8.2-2.5-10-6.4l-10-21.8c-1.8-3.9-5.7-6.4-10-6.4h-62.5c-4.3,0-8.2-2.5-10-6.4l-21-45.8
	C156.9-17.3,162.2-25.6,170.2-25.6z"/>
<linearGradient id="SVGID_3_" gradientUnits="userSpaceOnUse" x1="-47.901" y1="34.365" x2="4.8718" y2="93.0749" gradientTransform="matrix(-1 0 0 1 300.0758 0)">
	<stop  offset="0" style="stop-color:#FFFFFF"/>
	<stop  offset="0.3618" style="stop-color:#01ABE9"/>
	<stop  offset="1" style="stop-color:#0056CD"/>
</linearGradient>
<path class="st2" d="M300.1,24.3h22.2c2.2,0,4.3,1.3,5.2,3.3L355,87.5c1.7,3.8-1,8.1-5.2,8.1h-22.2c-2.2,0-4.3-1.3-5.2-3.3
	l-27.4-59.9C293.2,28.7,296,24.3,300.1,24.3z"/>
<linearGradient id="SVGID_4_" gradientUnits="userSpaceOnUse" x1="-25.184" y1="56.7057" x2="-76.3112" y2="154.9391" gradientTransform="matrix(-1 0 0 1 300.0758 0)">
	<stop  offset="0" style="stop-color:#B2D0ED"/>
	<stop  offset="0.2338" style="stop-color:#CDE0F3"/>
	<stop  offset="0.5355" style="stop-color:#E8F1FA"/>
	<stop  offset="0.801" style="stop-color:#F9FBFE"/>
	<stop  offset="1" style="stop-color:#FFFFFF"/>
</linearGradient>
<path class="st3" d="M295.7,24.1h44.6c4.5,0,8.5,2.6,10.4,6.7l54.9,120c3.5,7.6-2.1,16.2-10.4,16.2h-44.6c-4.5,0-8.5-2.6-10.4-6.7
	l-54.9-120C281.9,32.8,287.4,24.1,295.7,24.1z"/>
</svg>
