<?xml version="1.0" encoding="utf-8"?>
<!-- Generator: Adobe Illustrator 20.0.0, SVG Export Plug-In . SVG Version: 6.00 Build 0)  -->
<svg version="1.1" id="Layer_1" xmlns="http://www.w3.org/2000/svg" xmlns:xlink="http://www.w3.org/1999/xlink" x="0px" y="0px"
	 viewBox="0 0 660 170" style="enable-background:new 0 0 660 170;" xml:space="preserve">
<style type="text/css">
	.st0{opacity:0.3;}
	.st1{fill:#FFFFFF;}
</style>
<g class="st0">
	<g>
		<g>
			<g>
				<path class="st1" d="M30,72.1c-0.8,0-1.5-0.5-1.5-1.1v-1.1c0-0.6,0.7-1.1,1.5-1.1c0.8,0,1.5,0.5,1.5,1.1V71
					C31.6,71.6,30.9,72.1,30,72.1z"/>
			</g>
			<g>
				<path class="st1" d="M30,95.2c-0.8,0-1.5-0.5-1.5-1.1v-2.6c0-0.6,0.7-1.1,1.5-1.1c0.8,0,1.5,0.5,1.5,1.1v2.6
					C31.6,94.7,30.9,95.2,30,95.2z M30,87.5c-0.8,0-1.5-0.5-1.5-1.1v-2.6c0-0.6,0.7-1.1,1.5-1.1c0.8,0,1.5,0.5,1.5,1.1v2.6
					C31.6,87,30.9,87.5,30,87.5z M30,79.8c-0.8,0-1.5-0.5-1.5-1.1v-2.6c0-0.6,0.7-1.1,1.5-1.1c0.8,0,1.5,0.5,1.5,1.1v2.6
					C31.6,79.3,30.9,79.8,30,79.8z"/>
			</g>
			<g>
				<path class="st1" d="M30,101.5c-0.8,0-1.5-0.5-1.5-1.1v-1.1c0-0.6,0.7-1.1,1.5-1.1c0.8,0,1.5,0.5,1.5,1.1v1.1
					C31.6,101,30.9,101.5,30,101.5z"/>
			</g>
		</g>
		<g>
			<g>
				<path class="st1" d="M39.8,91.8c-0.8,0-1.5-0.5-1.5-1.1v-1.1c0-0.6,0.7-1.1,1.5-1.1c0.8,0,1.5,0.5,1.5,1.1v1.1
					C41.3,91.2,40.6,91.8,39.8,91.8z"/>
			</g>
			<g>
				<path class="st1" d="M39.8,87.1c-0.8,0-1.5-0.5-1.5-1.1v-1.8c0-0.6,0.7-1.1,1.5-1.1c0.8,0,1.5,0.5,1.5,1.1V86
					C41.3,86.6,40.6,87.1,39.8,87.1z"/>
			</g>
			<g>
				<path class="st1" d="M39.8,81.8c-0.8,0-1.5-0.5-1.5-1.1v-1.1c0-0.6,0.7-1.1,1.5-1.1c0.8,0,1.5,0.5,1.5,1.1v1.1
					C41.3,81.3,40.6,81.8,39.8,81.8z"/>
			</g>
		</g>
		<g>
			<g>
				<path class="st1" d="M49.5,90.4c-0.8,0-1.5-0.5-1.5-1.1v-1.1c0-0.6,0.7-1.1,1.5-1.1c0.8,0,1.5,0.5,1.5,1.1v1.1
					C51.1,89.9,50.4,90.4,49.5,90.4z"/>
			</g>
			<g>
				<path class="st1" d="M49.5,86.8c-0.8,0-1.5-0.5-1.5-1.1v-1.2c0-0.6,0.7-1.1,1.5-1.1c0.8,0,1.5,0.5,1.5,1.1v1.2
					C51.1,86.3,50.4,86.8,49.5,86.8z"/>
			</g>
			<g>
				<path class="st1" d="M49.5,83.2c-0.8,0-1.5-0.5-1.5-1.1V81c0-0.6,0.7-1.1,1.5-1.1c0.8,0,1.5,0.5,1.5,1.1v1
					C51.1,82.7,50.4,83.2,49.5,83.2z"/>
			</g>
		</g>
		<g>
			<g>
				<path class="st1" d="M136.7,90.4c-0.8,0-1.5-0.5-1.5-1.1v-1.1c0-0.6,0.7-1.1,1.5-1.1c0.8,0,1.5,0.5,1.5,1.1v1.1
					C138.3,89.9,137.6,90.4,136.7,90.4z"/>
			</g>
			<g>
				<path class="st1" d="M136.7,86.8c-0.8,0-1.5-0.5-1.5-1.1v-1.2c0-0.6,0.7-1.1,1.5-1.1c0.8,0,1.5,0.5,1.5,1.1v1.2
					C138.3,86.3,137.6,86.8,136.7,86.8z"/>
			</g>
			<g>
				<path class="st1" d="M136.7,83.2c-0.8,0-1.5-0.5-1.5-1.1V81c0-0.6,0.7-1.1,1.5-1.1c0.8,0,1.5,0.5,1.5,1.1v1
					C138.3,82.7,137.6,83.2,136.7,83.2z"/>
			</g>
		</g>
		<g>
			<g>
				<path class="st1" d="M59.2,89c-0.8,0-1.5-0.5-1.5-1.1v-1.1c0-0.6,0.7-1.1,1.5-1.1c0.8,0,1.5,0.5,1.5,1.1v1.1
					C60.9,88.5,60.2,89,59.2,89z"/>
			</g>
			<g>
				<path class="st1" d="M59.2,84.6c-0.8,0-1.5-0.5-1.5-1.1v-1.1c0-0.6,0.7-1.1,1.5-1.1c0.8,0,1.5,0.5,1.5,1.1v1.1
					C60.9,84.1,60.2,84.6,59.2,84.6z"/>
			</g>
		</g>
		<g>
			<g>
				<path class="st1" d="M69,102c-0.8,0-1.5-0.5-1.5-1.1v-1.1c0-0.6,0.7-1.1,1.5-1.1c0.8,0,1.5,0.5,1.5,1.1v1.1
					C70.5,101.5,69.8,102,69,102z"/>
			</g>
			<g>
				<path class="st1" d="M69,96.7c-0.8,0-1.5-0.5-1.5-1.1v-2.1c0-0.6,0.7-1.1,1.5-1.1c0.8,0,1.5,0.5,1.5,1.1v2.1
					C70.5,96.2,69.8,96.7,69,96.7z M69,90.4c-0.8,0-1.5-0.5-1.5-1.1v-2.1c0-0.6,0.7-1.1,1.5-1.1c0.8,0,1.5,0.5,1.5,1.1v2.1
					C70.5,89.9,69.8,90.4,69,90.4z M69,84.1c-0.8,0-1.5-0.5-1.5-1.1v-2.1c0-0.6,0.7-1.1,1.5-1.1c0.8,0,1.5,0.5,1.5,1.1V83
					C70.5,83.6,69.8,84.1,69,84.1z M69,77.8c-0.8,0-1.5-0.5-1.5-1.1v-2.1c0-0.6,0.7-1.1,1.5-1.1c0.8,0,1.5,0.5,1.5,1.1v2.1
					C70.5,77.3,69.8,77.8,69,77.8z"/>
			</g>
			<g>
				<path class="st1" d="M69,71.5c-0.8,0-1.5-0.5-1.5-1.1v-1.1c0-0.6,0.7-1.1,1.5-1.1c0.8,0,1.5,0.5,1.5,1.1v1.1
					C70.5,71,69.8,71.5,69,71.5z"/>
			</g>
		</g>
		<g>
			<g>
				<path class="st1" d="M78.8,118.2c-0.8,0-1.5-0.5-1.5-1.1V116c0-0.6,0.7-1.1,1.5-1.1c0.8,0,1.5,0.5,1.5,1.1v1.1
					C80.3,117.6,79.6,118.2,78.8,118.2z"/>
			</g>
			<g>
				<path class="st1" d="M78.8,112.3c-0.8,0-1.5-0.5-1.5-1.1v-2.4c0-0.6,0.7-1.1,1.5-1.1c0.8,0,1.5,0.5,1.5,1.1v2.4
					C80.3,111.8,79.6,112.3,78.8,112.3z M78.8,105.2c-0.8,0-1.5-0.5-1.5-1.1v-2.4c0-0.6,0.7-1.1,1.5-1.1c0.8,0,1.5,0.5,1.5,1.1v2.4
					C80.3,104.6,79.6,105.2,78.8,105.2z M78.8,98c-0.8,0-1.5-0.5-1.5-1.1v-2.4c0-0.6,0.7-1.1,1.5-1.1c0.8,0,1.5,0.5,1.5,1.1v2.4
					C80.3,97.5,79.6,98,78.8,98z M78.8,90.9c-0.8,0-1.5-0.5-1.5-1.1v-2.4c0-0.6,0.7-1.1,1.5-1.1c0.8,0,1.5,0.5,1.5,1.1v2.4
					C80.3,90.4,79.6,90.9,78.8,90.9z M78.8,83.8c-0.8,0-1.5-0.5-1.5-1.1v-2.4c0-0.6,0.7-1.1,1.5-1.1c0.8,0,1.5,0.5,1.5,1.1v2.4
					C80.3,83.3,79.6,83.8,78.8,83.8z M78.8,76.7c-0.8,0-1.5-0.5-1.5-1.1v-2.4c0-0.6,0.7-1.1,1.5-1.1c0.8,0,1.5,0.5,1.5,1.1v2.4
					C80.3,76.2,79.6,76.7,78.8,76.7z M78.8,69.6c-0.8,0-1.5-0.5-1.5-1.1v-2.4c0-0.6,0.7-1.1,1.5-1.1c0.8,0,1.5,0.5,1.5,1.1v2.4
					C80.3,69.1,79.6,69.6,78.8,69.6z M78.8,62.5c-0.8,0-1.5-0.5-1.5-1.1V59c0-0.6,0.7-1.1,1.5-1.1c0.8,0,1.5,0.5,1.5,1.1v2.4
					C80.3,62,79.6,62.5,78.8,62.5z"/>
			</g>
			<g>
				<path class="st1" d="M78.8,55.4c-0.8,0-1.5-0.5-1.5-1.1v-1.1c0-0.6,0.7-1.1,1.5-1.1c0.8,0,1.5,0.5,1.5,1.1v1.1
					C80.3,54.9,79.6,55.4,78.8,55.4z"/>
			</g>
		</g>
		<g>
			<g>
				<path class="st1" d="M88.4,155.7c-0.8,0-1.5-0.5-1.5-1.1v-1.1c0-0.6,0.7-1.1,1.5-1.1s1.5,0.5,1.5,1.1v1.1
					C90.1,155.2,89.4,155.7,88.4,155.7z"/>
			</g>
			<g>
				<path class="st1" d="M88.4,149.9c-0.8,0-1.5-0.5-1.5-1.1v-2.3c0-0.6,0.7-1.1,1.5-1.1s1.5,0.5,1.5,1.1v2.3
					C90.1,149.4,89.4,149.9,88.4,149.9z M88.4,142.9c-0.8,0-1.5-0.5-1.5-1.1v-2.3c0-0.6,0.7-1.1,1.5-1.1s1.5,0.5,1.5,1.1v2.3
					C90.1,142.4,89.4,142.9,88.4,142.9z M88.4,136c-0.8,0-1.5-0.5-1.5-1.1v-2.3c0-0.6,0.7-1.1,1.5-1.1s1.5,0.5,1.5,1.1v2.3
					C90.1,135.5,89.4,136,88.4,136z M88.4,129c-0.8,0-1.5-0.5-1.5-1.1v-2.3c0-0.6,0.7-1.1,1.5-1.1s1.5,0.5,1.5,1.1v2.3
					C90.1,128.5,89.4,129,88.4,129z M88.4,122.1c-0.8,0-1.5-0.5-1.5-1.1v-2.3c0-0.6,0.7-1.1,1.5-1.1s1.5,0.5,1.5,1.1v2.3
					C90.1,121.6,89.4,122.1,88.4,122.1z M88.4,115.2c-0.8,0-1.5-0.5-1.5-1.1v-2.3c0-0.6,0.7-1.1,1.5-1.1s1.5,0.5,1.5,1.1v2.3
					C90.1,114.6,89.4,115.2,88.4,115.2z M88.4,108.2c-0.8,0-1.5-0.5-1.5-1.1v-2.3c0-0.6,0.7-1.1,1.5-1.1s1.5,0.5,1.5,1.1v2.3
					C90.1,107.7,89.4,108.2,88.4,108.2z M88.4,101.3c-0.8,0-1.5-0.5-1.5-1.1v-2.3c0-0.6,0.7-1.1,1.5-1.1s1.5,0.5,1.5,1.1v2.3
					C90.1,100.7,89.4,101.3,88.4,101.3z M88.4,94.3c-0.8,0-1.5-0.5-1.5-1.1v-2.3c0-0.6,0.7-1.1,1.5-1.1s1.5,0.5,1.5,1.1v2.3
					C90.1,93.8,89.4,94.3,88.4,94.3z M88.4,87.4c-0.8,0-1.5-0.5-1.5-1.1V84c0-0.6,0.7-1.1,1.5-1.1s1.5,0.5,1.5,1.1v2.3
					C90.1,86.8,89.4,87.4,88.4,87.4z M88.4,80.4c-0.8,0-1.5-0.5-1.5-1.1V77c0-0.6,0.7-1.1,1.5-1.1s1.5,0.5,1.5,1.1v2.3
					C90.1,79.9,89.4,80.4,88.4,80.4z M88.4,73.5c-0.8,0-1.5-0.5-1.5-1.1V70c0-0.6,0.7-1.1,1.5-1.1s1.5,0.5,1.5,1.1v2.3
					C90.1,73,89.4,73.5,88.4,73.5z M88.4,66.5c-0.8,0-1.5-0.5-1.5-1.1v-2.3c0-0.6,0.7-1.1,1.5-1.1s1.5,0.5,1.5,1.1v2.3
					C90.1,66,89.4,66.5,88.4,66.5z M88.4,59.6c-0.8,0-1.5-0.5-1.5-1.1v-2.3c0-0.6,0.7-1.1,1.5-1.1s1.5,0.5,1.5,1.1v2.3
					C90.1,59.1,89.4,59.6,88.4,59.6z M88.4,52.6c-0.8,0-1.5-0.5-1.5-1.1v-2.3c0-0.6,0.7-1.1,1.5-1.1s1.5,0.5,1.5,1.1v2.3
					C90.1,52.1,89.4,52.6,88.4,52.6z M88.4,45.7c-0.8,0-1.5-0.5-1.5-1.1v-2.3c0-0.6,0.7-1.1,1.5-1.1s1.5,0.5,1.5,1.1v2.3
					C90.1,45.2,89.4,45.7,88.4,45.7z M88.4,38.7c-0.8,0-1.5-0.5-1.5-1.1v-2.3c0-0.6,0.7-1.1,1.5-1.1s1.5,0.5,1.5,1.1v2.3
					C90.1,38.2,89.4,38.7,88.4,38.7z M88.4,31.8c-0.8,0-1.5-0.5-1.5-1.1v-2.3c0-0.6,0.7-1.1,1.5-1.1s1.5,0.5,1.5,1.1v2.3
					C90.1,31.3,89.4,31.8,88.4,31.8z M88.4,24.8c-0.8,0-1.5-0.5-1.5-1.1v-2.3c0-0.6,0.7-1.1,1.5-1.1s1.5,0.5,1.5,1.1v2.3
					C90.1,24.3,89.4,24.8,88.4,24.8z"/>
			</g>
			<g>
				<path class="st1" d="M88.4,17.9c-0.8,0-1.5-0.5-1.5-1.1v-1.1c0-0.6,0.7-1.1,1.5-1.1s1.5,0.5,1.5,1.1v1.1
					C90.1,17.4,89.4,17.9,88.4,17.9z"/>
			</g>
		</g>
		<g>
			<g>
				<path class="st1" d="M98.2,112.6c-0.8,0-1.5-0.5-1.5-1.1v-1.1c0-0.6,0.7-1.1,1.5-1.1s1.5,0.5,1.5,1.1v1.1
					C99.7,112.1,99,112.6,98.2,112.6z"/>
			</g>
			<g>
				<path class="st1" d="M98.2,107.1c-0.8,0-1.5-0.5-1.5-1.1v-2.2c0-0.6,0.7-1.1,1.5-1.1s1.5,0.5,1.5,1.1v2.2
					C99.7,106.5,99,107.1,98.2,107.1z M98.2,100.5c-0.8,0-1.5-0.5-1.5-1.1v-2.2c0-0.6,0.7-1.1,1.5-1.1s1.5,0.5,1.5,1.1v2.2
					C99.7,100,99,100.5,98.2,100.5z M98.2,93.9c-0.8,0-1.5-0.5-1.5-1.1v-2.2c0-0.6,0.7-1.1,1.5-1.1s1.5,0.5,1.5,1.1v2.2
					C99.7,93.4,99,93.9,98.2,93.9z M98.2,87.3c-0.8,0-1.5-0.5-1.5-1.1V84c0-0.6,0.7-1.1,1.5-1.1s1.5,0.5,1.5,1.1v2.2
					C99.7,86.8,99,87.3,98.2,87.3z M98.2,80.7c-0.8,0-1.5-0.5-1.5-1.1v-2.2c0-0.6,0.7-1.1,1.5-1.1s1.5,0.5,1.5,1.1v2.2
					C99.7,80.2,99,80.7,98.2,80.7z M98.2,74.1c-0.8,0-1.5-0.5-1.5-1.1v-2.2c0-0.6,0.7-1.1,1.5-1.1s1.5,0.5,1.5,1.1V73
					C99.7,73.6,99,74.1,98.2,74.1z M98.2,67.5c-0.8,0-1.5-0.5-1.5-1.1v-2.2c0-0.6,0.7-1.1,1.5-1.1s1.5,0.5,1.5,1.1v2.2
					C99.7,67,99,67.5,98.2,67.5z"/>
			</g>
			<g>
				<path class="st1" d="M98.2,61c-0.8,0-1.5-0.5-1.5-1.1v-1.1c0-0.6,0.7-1.1,1.5-1.1s1.5,0.5,1.5,1.1v1.1C99.7,60.4,99,61,98.2,61z
					"/>
			</g>
		</g>
		<g>
			<g>
				<path class="st1" d="M108,100.1c-0.8,0-1.5-0.5-1.5-1.1v-1.1c0-0.6,0.7-1.1,1.5-1.1s1.5,0.5,1.5,1.1V99
					C109.5,99.6,108.8,100.1,108,100.1z"/>
			</g>
			<g>
				<path class="st1" d="M108,94.3c-0.8,0-1.5-0.5-1.5-1.1v-2.3c0-0.6,0.7-1.1,1.5-1.1s1.5,0.5,1.5,1.1v2.3
					C109.5,93.8,108.8,94.3,108,94.3z M108,87.4c-0.8,0-1.5-0.5-1.5-1.1V84c0-0.6,0.7-1.1,1.5-1.1s1.5,0.5,1.5,1.1v2.3
					C109.5,86.8,108.8,87.4,108,87.4z M108,80.4c-0.8,0-1.5-0.5-1.5-1.1V77c0-0.6,0.7-1.1,1.5-1.1s1.5,0.5,1.5,1.1v2.3
					C109.5,79.9,108.8,80.4,108,80.4z"/>
			</g>
			<g>
				<path class="st1" d="M108,73.5c-0.8,0-1.5-0.5-1.5-1.1v-1.1c0-0.6,0.7-1.1,1.5-1.1s1.5,0.5,1.5,1.1v1.1
					C109.5,72.9,108.8,73.5,108,73.5z"/>
			</g>
		</g>
		<g>
			<g>
				<path class="st1" d="M117.6,112.6c-0.8,0-1.5-0.5-1.5-1.1v-1.1c0-0.6,0.7-1.1,1.5-1.1c0.8,0,1.5,0.5,1.5,1.1v1.1
					C119.3,112.1,118.6,112.6,117.6,112.6z"/>
			</g>
			<g>
				<path class="st1" d="M117.6,107.1c-0.8,0-1.5-0.5-1.5-1.1v-2.2c0-0.6,0.7-1.1,1.5-1.1c0.8,0,1.5,0.5,1.5,1.1v2.2
					C119.3,106.5,118.6,107.1,117.6,107.1z M117.6,100.5c-0.8,0-1.5-0.5-1.5-1.1v-2.2c0-0.6,0.7-1.1,1.5-1.1c0.8,0,1.5,0.5,1.5,1.1
					v2.2C119.3,100,118.6,100.5,117.6,100.5z M117.6,93.9c-0.8,0-1.5-0.5-1.5-1.1v-2.2c0-0.6,0.7-1.1,1.5-1.1c0.8,0,1.5,0.5,1.5,1.1
					v2.2C119.3,93.4,118.6,93.9,117.6,93.9z M117.6,87.3c-0.8,0-1.5-0.5-1.5-1.1V84c0-0.6,0.7-1.1,1.5-1.1c0.8,0,1.5,0.5,1.5,1.1
					v2.2C119.3,86.8,118.6,87.3,117.6,87.3z M117.6,80.7c-0.8,0-1.5-0.5-1.5-1.1v-2.2c0-0.6,0.7-1.1,1.5-1.1c0.8,0,1.5,0.5,1.5,1.1
					v2.2C119.3,80.2,118.6,80.7,117.6,80.7z M117.6,74.1c-0.8,0-1.5-0.5-1.5-1.1v-2.2c0-0.6,0.7-1.1,1.5-1.1c0.8,0,1.5,0.5,1.5,1.1
					V73C119.3,73.6,118.6,74.1,117.6,74.1z M117.6,67.5c-0.8,0-1.5-0.5-1.5-1.1v-2.2c0-0.6,0.7-1.1,1.5-1.1c0.8,0,1.5,0.5,1.5,1.1
					v2.2C119.3,67,118.6,67.5,117.6,67.5z"/>
			</g>
			<g>
				<path class="st1" d="M117.6,61c-0.8,0-1.5-0.5-1.5-1.1v-1.1c0-0.6,0.7-1.1,1.5-1.1c0.8,0,1.5,0.5,1.5,1.1v1.1
					C119.3,60.4,118.6,61,117.6,61z"/>
			</g>
		</g>
		<g>
			<g>
				<path class="st1" d="M127.4,94.5c-0.8,0-1.5-0.5-1.5-1.1v-1.1c0-0.6,0.7-1.1,1.5-1.1c0.8,0,1.5,0.5,1.5,1.1v1.1
					C129,94,128.3,94.5,127.4,94.5z"/>
			</g>
			<g>
				<path class="st1" d="M127.4,87.6c-0.8,0-1.5-0.5-1.5-1.1v-2.9c0-0.6,0.7-1.1,1.5-1.1c0.8,0,1.5,0.5,1.5,1.1v2.9
					C129,87.1,128.3,87.6,127.4,87.6z"/>
			</g>
			<g>
				<path class="st1" d="M127.4,79c-0.8,0-1.5-0.5-1.5-1.1v-1.1c0-0.6,0.7-1.1,1.5-1.1c0.8,0,1.5,0.5,1.5,1.1v1.1
					C129,78.5,128.3,79,127.4,79z"/>
			</g>
		</g>
		<g>
			<g>
				<path class="st1" d="M146.9,94.5c-0.8,0-1.5-0.5-1.5-1.1v-1.1c0-0.6,0.7-1.1,1.5-1.1s1.5,0.5,1.5,1.1v1.1
					C148.5,94,147.8,94.5,146.9,94.5z"/>
			</g>
			<g>
				<path class="st1" d="M146.9,87.6c-0.8,0-1.5-0.5-1.5-1.1v-2.9c0-0.6,0.7-1.1,1.5-1.1s1.5,0.5,1.5,1.1v2.9
					C148.5,87.1,147.8,87.6,146.9,87.6z"/>
			</g>
			<g>
				<path class="st1" d="M146.9,79c-0.8,0-1.5-0.5-1.5-1.1v-1.1c0-0.6,0.7-1.1,1.5-1.1s1.5,0.5,1.5,1.1v1.1
					C148.5,78.5,147.8,79,146.9,79z"/>
			</g>
		</g>
		<g>
			<g>
				<path class="st1" d="M156.7,111.2c-0.8,0-1.5-0.5-1.5-1.1V109c0-0.6,0.7-1.1,1.5-1.1c0.8,0,1.5,0.5,1.5,1.1v1.1
					C158.2,110.7,157.5,111.2,156.7,111.2z"/>
			</g>
			<g>
				<path class="st1" d="M156.7,105.3c-0.8,0-1.5-0.5-1.5-1.1v-2.4c0-0.6,0.7-1.1,1.5-1.1c0.8,0,1.5,0.5,1.5,1.1v2.4
					C158.2,104.8,157.5,105.3,156.7,105.3z M156.7,98.1c-0.8,0-1.5-0.5-1.5-1.1v-2.4c0-0.6,0.7-1.1,1.5-1.1c0.8,0,1.5,0.5,1.5,1.1
					V97C158.2,97.6,157.5,98.1,156.7,98.1z M156.7,91c-0.8,0-1.5-0.5-1.5-1.1v-2.4c0-0.6,0.7-1.1,1.5-1.1c0.8,0,1.5,0.5,1.5,1.1v2.4
					C158.2,90.5,157.5,91,156.7,91z M156.7,83.8c-0.8,0-1.5-0.5-1.5-1.1v-2.4c0-0.6,0.7-1.1,1.5-1.1c0.8,0,1.5,0.5,1.5,1.1v2.4
					C158.2,83.3,157.5,83.8,156.7,83.8z M156.7,76.7c-0.8,0-1.5-0.5-1.5-1.1v-2.4c0-0.6,0.7-1.1,1.5-1.1c0.8,0,1.5,0.5,1.5,1.1v2.4
					C158.2,76.1,157.5,76.7,156.7,76.7z M156.7,69.5c-0.8,0-1.5-0.5-1.5-1.1V66c0-0.6,0.7-1.1,1.5-1.1c0.8,0,1.5,0.5,1.5,1.1v2.4
					C158.2,69,157.5,69.5,156.7,69.5z"/>
			</g>
			<g>
				<path class="st1" d="M156.7,62.3c-0.8,0-1.5-0.5-1.5-1.1V60c0-0.6,0.7-1.1,1.5-1.1c0.8,0,1.5,0.5,1.5,1.1v1.1
					C158.2,61.8,157.5,62.3,156.7,62.3z"/>
			</g>
		</g>
		<g>
			<g>
				<path class="st1" d="M225.3,90.4c-0.8,0-1.5-0.5-1.5-1.1v-1.1c0-0.6,0.7-1.1,1.5-1.1s1.5,0.5,1.5,1.1v1.1
					C226.8,89.9,226.1,90.4,225.3,90.4z"/>
			</g>
			<g>
				<path class="st1" d="M225.3,86.8c-0.8,0-1.5-0.5-1.5-1.1v-1.2c0-0.6,0.7-1.1,1.5-1.1s1.5,0.5,1.5,1.1v1.2
					C226.8,86.3,226.1,86.8,225.3,86.8z"/>
			</g>
			<g>
				<path class="st1" d="M225.3,83.2c-0.8,0-1.5-0.5-1.5-1.1V81c0-0.6,0.7-1.1,1.5-1.1s1.5,0.5,1.5,1.1v1
					C226.8,82.7,226.1,83.2,225.3,83.2z"/>
			</g>
		</g>
		<g>
			<g>
				<path class="st1" d="M235.5,94.5c-0.8,0-1.5-0.5-1.5-1.1v-1.1c0-0.6,0.7-1.1,1.5-1.1s1.5,0.5,1.5,1.1v1.1
					C237.2,94,236.3,94.5,235.5,94.5z"/>
			</g>
			<g>
				<path class="st1" d="M235.5,87.6c-0.8,0-1.5-0.5-1.5-1.1v-2.9c0-0.6,0.7-1.1,1.5-1.1s1.5,0.5,1.5,1.1v2.9
					C237.2,87.1,236.3,87.6,235.5,87.6z"/>
			</g>
			<g>
				<path class="st1" d="M235.5,79c-0.8,0-1.5-0.5-1.5-1.1v-1.1c0-0.6,0.7-1.1,1.5-1.1s1.5,0.5,1.5,1.1v1.1
					C237.2,78.5,236.3,79,235.5,79z"/>
			</g>
		</g>
		<g>
			<g>
				<path class="st1" d="M245.3,86c-0.8,0-1.5-0.5-1.5-1.1v-1.1c0-0.6,0.7-1.1,1.5-1.1s1.5,0.5,1.5,1.1v1.1
					C246.8,85.4,246.1,86,245.3,86z"/>
			</g>
			<g>
				<path class="st1" d="M245.3,87.6c-0.8,0-1.5-0.5-1.5-1.1v-1.1c0-0.6,0.7-1.1,1.5-1.1s1.5,0.5,1.5,1.1v1.1
					C246.8,87.1,246.1,87.6,245.3,87.6z"/>
			</g>
		</g>
		<g>
			<g>
				<path class="st1" d="M166.4,132c-0.8,0-1.5-0.5-1.5-1.1v-1.1c0-0.6,0.7-1.1,1.5-1.1s1.5,0.5,1.5,1.1v1.1
					C168,131.5,167.3,132,166.4,132z"/>
			</g>
			<g>
				<path class="st1" d="M166.4,126.2c-0.8,0-1.5-0.5-1.5-1.1v-2.4c0-0.6,0.7-1.1,1.5-1.1s1.5,0.5,1.5,1.1v2.4
					C168,125.7,167.3,126.2,166.4,126.2z M166.4,119.1c-0.8,0-1.5-0.5-1.5-1.1v-2.4c0-0.6,0.7-1.1,1.5-1.1s1.5,0.5,1.5,1.1v2.4
					C168,118.6,167.3,119.1,166.4,119.1z M166.4,112.1c-0.8,0-1.5-0.5-1.5-1.1v-2.4c0-0.6,0.7-1.1,1.5-1.1s1.5,0.5,1.5,1.1v2.4
					C168,111.6,167.3,112.1,166.4,112.1z M166.4,105c-0.8,0-1.5-0.5-1.5-1.1v-2.4c0-0.6,0.7-1.1,1.5-1.1s1.5,0.5,1.5,1.1v2.4
					C168,104.5,167.3,105,166.4,105z M166.4,98c-0.8,0-1.5-0.5-1.5-1.1v-2.4c0-0.6,0.7-1.1,1.5-1.1s1.5,0.5,1.5,1.1v2.4
					C168,97.5,167.3,98,166.4,98z M166.4,90.9c-0.8,0-1.5-0.5-1.5-1.1v-2.4c0-0.6,0.7-1.1,1.5-1.1s1.5,0.5,1.5,1.1v2.4
					C168,90.4,167.3,90.9,166.4,90.9z M166.4,83.9c-0.8,0-1.5-0.5-1.5-1.1v-2.4c0-0.6,0.7-1.1,1.5-1.1s1.5,0.5,1.5,1.1v2.4
					C168,83.3,167.3,83.9,166.4,83.9z M166.4,76.8c-0.8,0-1.5-0.5-1.5-1.1v-2.4c0-0.6,0.7-1.1,1.5-1.1s1.5,0.5,1.5,1.1v2.4
					C168,76.3,167.3,76.8,166.4,76.8z M166.4,69.7c-0.8,0-1.5-0.5-1.5-1.1v-2.4c0-0.6,0.7-1.1,1.5-1.1s1.5,0.5,1.5,1.1v2.4
					C168,69.2,167.3,69.7,166.4,69.7z M166.4,62.7c-0.8,0-1.5-0.5-1.5-1.1v-2.4c0-0.6,0.7-1.1,1.5-1.1s1.5,0.5,1.5,1.1v2.4
					C168,62.2,167.3,62.7,166.4,62.7z M166.4,55.6c-0.8,0-1.5-0.5-1.5-1.1v-2.4c0-0.6,0.7-1.1,1.5-1.1s1.5,0.5,1.5,1.1v2.4
					C168,55.1,167.3,55.6,166.4,55.6z M166.4,48.6c-0.8,0-1.5-0.5-1.5-1.1v-2.4c0-0.6,0.7-1.1,1.5-1.1s1.5,0.5,1.5,1.1v2.4
					C168,48,167.3,48.6,166.4,48.6z"/>
			</g>
			<g>
				<path class="st1" d="M166.4,41.5c-0.8,0-1.5-0.5-1.5-1.1v-1.1c0-0.6,0.7-1.1,1.5-1.1s1.5,0.5,1.5,1.1v1.1
					C168,41,167.3,41.5,166.4,41.5z"/>
			</g>
		</g>
		<g>
			<g>
				<path class="st1" d="M176.1,104.3c-0.8,0-1.5-0.5-1.5-1.1V102c0-0.6,0.7-1.1,1.5-1.1s1.5,0.5,1.5,1.1v1.1
					C177.7,103.8,177.1,104.3,176.1,104.3z"/>
			</g>
			<g>
				<path class="st1" d="M176.1,98.3c-0.8,0-1.5-0.5-1.5-1.1v-2.4c0-0.6,0.7-1.1,1.5-1.1s1.5,0.5,1.5,1.1v2.4
					C177.7,97.8,177.1,98.3,176.1,98.3z M176.1,91c-0.8,0-1.5-0.5-1.5-1.1v-2.4c0-0.6,0.7-1.1,1.5-1.1s1.5,0.5,1.5,1.1v2.4
					C177.7,90.5,177.1,91,176.1,91z M176.1,83.8c-0.8,0-1.5-0.5-1.5-1.1v-2.4c0-0.6,0.7-1.1,1.5-1.1s1.5,0.5,1.5,1.1v2.4
					C177.7,83.3,177.1,83.8,176.1,83.8z M176.1,76.5c-0.8,0-1.5-0.5-1.5-1.1V73c0-0.6,0.7-1.1,1.5-1.1s1.5,0.5,1.5,1.1v2.4
					C177.7,76,177.1,76.5,176.1,76.5z"/>
			</g>
			<g>
				<path class="st1" d="M176.1,69.3c-0.8,0-1.5-0.5-1.5-1.1V67c0-0.6,0.7-1.1,1.5-1.1s1.5,0.5,1.5,1.1v1.1
					C177.7,68.8,177.1,69.3,176.1,69.3z"/>
			</g>
		</g>
		<g>
			<g>
				<path class="st1" d="M185.9,94.5c-0.8,0-1.5-0.5-1.5-1.1v-1.1c0-0.6,0.7-1.1,1.5-1.1s1.5,0.5,1.5,1.1v1.1
					C187.4,94,186.7,94.5,185.9,94.5z"/>
			</g>
			<g>
				<path class="st1" d="M185.9,87.6c-0.8,0-1.5-0.5-1.5-1.1v-2.9c0-0.6,0.7-1.1,1.5-1.1s1.5,0.5,1.5,1.1v2.9
					C187.4,87.1,186.7,87.6,185.9,87.6z"/>
			</g>
			<g>
				<path class="st1" d="M185.9,79c-0.8,0-1.5-0.5-1.5-1.1v-1.1c0-0.6,0.7-1.1,1.5-1.1s1.5,0.5,1.5,1.1v1.1
					C187.4,78.5,186.7,79,185.9,79z"/>
			</g>
		</g>
		<g>
			<g>
				<path class="st1" d="M195.7,90.4c-0.8,0-1.5-0.5-1.5-1.1v-1.1c0-0.6,0.7-1.1,1.5-1.1c0.8,0,1.5,0.5,1.5,1.1v1.1
					C197.2,89.9,196.5,90.4,195.7,90.4z"/>
			</g>
			<g>
				<path class="st1" d="M195.7,86.8c-0.8,0-1.5-0.5-1.5-1.1v-1.2c0-0.6,0.7-1.1,1.5-1.1c0.8,0,1.5,0.5,1.5,1.1v1.2
					C197.2,86.3,196.5,86.8,195.7,86.8z"/>
			</g>
			<g>
				<path class="st1" d="M195.7,83.2c-0.8,0-1.5-0.5-1.5-1.1V81c0-0.6,0.7-1.1,1.5-1.1c0.8,0,1.5,0.5,1.5,1.1v1
					C197.2,82.7,196.5,83.2,195.7,83.2z"/>
			</g>
		</g>
		<g>
			<g>
				<path class="st1" d="M255.4,94.5c-0.8,0-1.5-0.5-1.5-1.1v-1.1c0-0.6,0.7-1.1,1.5-1.1s1.5,0.5,1.5,1.1v1.1
					C257,94,256.3,94.5,255.4,94.5z"/>
			</g>
			<g>
				<path class="st1" d="M255.4,87.6c-0.8,0-1.5-0.5-1.5-1.1v-2.9c0-0.6,0.7-1.1,1.5-1.1s1.5,0.5,1.5,1.1v2.9
					C257,87.1,256.3,87.6,255.4,87.6z"/>
			</g>
			<g>
				<path class="st1" d="M255.4,79c-0.8,0-1.5-0.5-1.5-1.1v-1.1c0-0.6,0.7-1.1,1.5-1.1s1.5,0.5,1.5,1.1v1.1
					C257,78.5,256.3,79,255.4,79z"/>
			</g>
		</g>
		<g>
			<g>
				<path class="st1" d="M265.1,111.2c-0.8,0-1.5-0.5-1.5-1.1V109c0-0.6,0.7-1.1,1.5-1.1s1.5,0.5,1.5,1.1v1.1
					C266.7,110.7,266,111.2,265.1,111.2z"/>
			</g>
			<g>
				<path class="st1" d="M265.1,105.3c-0.8,0-1.5-0.5-1.5-1.1v-2.4c0-0.6,0.7-1.1,1.5-1.1s1.5,0.5,1.5,1.1v2.4
					C266.7,104.8,266,105.3,265.1,105.3z M265.1,98.1c-0.8,0-1.5-0.5-1.5-1.1v-2.4c0-0.6,0.7-1.1,1.5-1.1s1.5,0.5,1.5,1.1V97
					C266.7,97.6,266,98.1,265.1,98.1z M265.1,91c-0.8,0-1.5-0.5-1.5-1.1v-2.4c0-0.6,0.7-1.1,1.5-1.1s1.5,0.5,1.5,1.1v2.4
					C266.7,90.5,266,91,265.1,91z M265.1,83.8c-0.8,0-1.5-0.5-1.5-1.1v-2.4c0-0.6,0.7-1.1,1.5-1.1s1.5,0.5,1.5,1.1v2.4
					C266.7,83.3,266,83.8,265.1,83.8z M265.1,76.7c-0.8,0-1.5-0.5-1.5-1.1v-2.4c0-0.6,0.7-1.1,1.5-1.1s1.5,0.5,1.5,1.1v2.4
					C266.7,76.1,266,76.7,265.1,76.7z M265.1,69.5c-0.8,0-1.5-0.5-1.5-1.1V66c0-0.6,0.7-1.1,1.5-1.1s1.5,0.5,1.5,1.1v2.4
					C266.7,69,266,69.5,265.1,69.5z"/>
			</g>
			<g>
				<path class="st1" d="M265.1,62.3c-0.8,0-1.5-0.5-1.5-1.1V60c0-0.6,0.7-1.1,1.5-1.1s1.5,0.5,1.5,1.1v1.1
					C266.7,61.8,266,62.3,265.1,62.3z"/>
			</g>
		</g>
		<g>
			<g>
				<path class="st1" d="M274.9,95.9c-0.8,0-1.5-0.5-1.5-1.1v-1.1c0-0.6,0.7-1.1,1.5-1.1s1.5,0.5,1.5,1.1v1.1
					C276.5,95.4,275.8,95.9,274.9,95.9z"/>
			</g>
			<g>
				<path class="st1" d="M274.9,90.5c-0.8,0-1.5-0.5-1.5-1.1v-2.1c0-0.6,0.7-1.1,1.5-1.1s1.5,0.5,1.5,1.1v2.1
					C276.5,90,275.8,90.5,274.9,90.5z M274.9,84.1c-0.8,0-1.5-0.5-1.5-1.1v-2.1c0-0.6,0.7-1.1,1.5-1.1s1.5,0.5,1.5,1.1V83
					C276.5,83.5,275.8,84.1,274.9,84.1z"/>
			</g>
			<g>
				<path class="st1" d="M274.9,77.6c-0.8,0-1.5-0.5-1.5-1.1v-1.1c0-0.6,0.7-1.1,1.5-1.1s1.5,0.5,1.5,1.1v1.1
					C276.5,77.1,275.8,77.6,274.9,77.6z"/>
			</g>
		</g>
		<g>
			<g>
				<path class="st1" d="M284.6,104.3c-0.8,0-1.5-0.5-1.5-1.1V102c0-0.6,0.7-1.1,1.5-1.1s1.5,0.5,1.5,1.1v1.1
					C286.2,103.8,285.5,104.3,284.6,104.3z"/>
			</g>
			<g>
				<path class="st1" d="M284.6,98.3c-0.8,0-1.5-0.5-1.5-1.1v-2.4c0-0.6,0.7-1.1,1.5-1.1s1.5,0.5,1.5,1.1v2.4
					C286.2,97.8,285.5,98.3,284.6,98.3z M284.6,91c-0.8,0-1.5-0.5-1.5-1.1v-2.4c0-0.6,0.7-1.1,1.5-1.1s1.5,0.5,1.5,1.1v2.4
					C286.2,90.5,285.5,91,284.6,91z M284.6,83.8c-0.8,0-1.5-0.5-1.5-1.1v-2.4c0-0.6,0.7-1.1,1.5-1.1s1.5,0.5,1.5,1.1v2.4
					C286.2,83.3,285.5,83.8,284.6,83.8z M284.6,76.5c-0.8,0-1.5-0.5-1.5-1.1V73c0-0.6,0.7-1.1,1.5-1.1s1.5,0.5,1.5,1.1v2.4
					C286.2,76,285.5,76.5,284.6,76.5z"/>
			</g>
			<g>
				<path class="st1" d="M284.6,69.3c-0.8,0-1.5-0.5-1.5-1.1V67c0-0.6,0.7-1.1,1.5-1.1s1.5,0.5,1.5,1.1v1.1
					C286.2,68.8,285.5,69.3,284.6,69.3z"/>
			</g>
		</g>
		<g>
			<g>
				<path class="st1" d="M294.4,94.5c-0.8,0-1.5-0.5-1.5-1.1v-1.1c0-0.6,0.7-1.1,1.5-1.1s1.5,0.5,1.5,1.1v1.1
					C295.9,94,295.2,94.5,294.4,94.5z"/>
			</g>
			<g>
				<path class="st1" d="M294.4,87.6c-0.8,0-1.5-0.5-1.5-1.1v-2.9c0-0.6,0.7-1.1,1.5-1.1s1.5,0.5,1.5,1.1v2.9
					C295.9,87.1,295.2,87.6,294.4,87.6z"/>
			</g>
			<g>
				<path class="st1" d="M294.4,79c-0.8,0-1.5-0.5-1.5-1.1v-1.1c0-0.6,0.7-1.1,1.5-1.1s1.5,0.5,1.5,1.1v1.1
					C295.9,78.5,295.2,79,294.4,79z"/>
			</g>
		</g>
		<g>
			<g>
				<path class="st1" d="M304.2,90.4c-0.8,0-1.5-0.5-1.5-1.1v-1.1c0-0.6,0.7-1.1,1.5-1.1s1.5,0.5,1.5,1.1v1.1
					C305.7,89.9,305,90.4,304.2,90.4z"/>
			</g>
			<g>
				<path class="st1" d="M304.2,86.8c-0.8,0-1.5-0.5-1.5-1.1v-1.2c0-0.6,0.7-1.1,1.5-1.1s1.5,0.5,1.5,1.1v1.2
					C305.7,86.3,305,86.8,304.2,86.8z"/>
			</g>
			<g>
				<path class="st1" d="M304.2,83.2c-0.8,0-1.5-0.5-1.5-1.1V81c0-0.6,0.7-1.1,1.5-1.1s1.5,0.5,1.5,1.1v1
					C305.7,82.7,305,83.2,304.2,83.2z"/>
			</g>
		</g>
		<g>
			<g>
				<path class="st1" d="M205.3,111.2c-0.8,0-1.5-0.5-1.5-1.1V109c0-0.6,0.7-1.1,1.5-1.1s1.5,0.5,1.5,1.1v1.1
					C207,110.7,206.3,111.2,205.3,111.2z"/>
			</g>
			<g>
				<path class="st1" d="M205.3,105.3c-0.8,0-1.5-0.5-1.5-1.1v-2.4c0-0.6,0.7-1.1,1.5-1.1s1.5,0.5,1.5,1.1v2.4
					C207,104.8,206.3,105.3,205.3,105.3z M205.3,98.1c-0.8,0-1.5-0.5-1.5-1.1v-2.4c0-0.6,0.7-1.1,1.5-1.1s1.5,0.5,1.5,1.1V97
					C207,97.6,206.3,98.1,205.3,98.1z M205.3,91c-0.8,0-1.5-0.5-1.5-1.1v-2.4c0-0.6,0.7-1.1,1.5-1.1s1.5,0.5,1.5,1.1v2.4
					C207,90.5,206.3,91,205.3,91z M205.3,83.8c-0.8,0-1.5-0.5-1.5-1.1v-2.4c0-0.6,0.7-1.1,1.5-1.1s1.5,0.5,1.5,1.1v2.4
					C207,83.3,206.3,83.8,205.3,83.8z M205.3,76.7c-0.8,0-1.5-0.5-1.5-1.1v-2.4c0-0.6,0.7-1.1,1.5-1.1s1.5,0.5,1.5,1.1v2.4
					C207,76.1,206.3,76.7,205.3,76.7z M205.3,69.5c-0.8,0-1.5-0.5-1.5-1.1V66c0-0.6,0.7-1.1,1.5-1.1s1.5,0.5,1.5,1.1v2.4
					C207,69,206.3,69.5,205.3,69.5z"/>
			</g>
			<g>
				<path class="st1" d="M205.3,62.3c-0.8,0-1.5-0.5-1.5-1.1V60c0-0.6,0.7-1.1,1.5-1.1s1.5,0.5,1.5,1.1v1.1
					C207,61.8,206.3,62.3,205.3,62.3z"/>
			</g>
		</g>
		<g>
			<g>
				<path class="st1" d="M215.1,97.3c-0.8,0-1.5-0.5-1.5-1.1V95c0-0.6,0.7-1.1,1.5-1.1s1.5,0.5,1.5,1.1v1.1
					C216.6,96.8,215.9,97.3,215.1,97.3z"/>
			</g>
			<g>
				<path class="st1" d="M215.1,91.2c-0.8,0-1.5-0.5-1.5-1.1v-2.5c0-0.6,0.7-1.1,1.5-1.1s1.5,0.5,1.5,1.1v2.5
					C216.6,90.7,215.9,91.2,215.1,91.2z M215.1,83.7c-0.8,0-1.5-0.5-1.5-1.1v-2.5c0-0.6,0.7-1.1,1.5-1.1s1.5,0.5,1.5,1.1v2.5
					C216.6,83.2,215.9,83.7,215.1,83.7z"/>
			</g>
			<g>
				<path class="st1" d="M215.1,76.2c-0.8,0-1.5-0.5-1.5-1.1V74c0-0.6,0.7-1.1,1.5-1.1s1.5,0.5,1.5,1.1v1.1
					C216.6,75.7,215.9,76.2,215.1,76.2z"/>
			</g>
		</g>
		<g>
			<g>
				<path class="st1" d="M315.7,72.1c-0.8,0-1.5-0.5-1.5-1.1v-1.1c0-0.6,0.7-1.1,1.5-1.1s1.5,0.5,1.5,1.1V71
					C317.3,71.6,316.6,72.1,315.7,72.1z"/>
			</g>
			<g>
				<path class="st1" d="M315.7,95.2c-0.8,0-1.5-0.5-1.5-1.1v-2.6c0-0.6,0.7-1.1,1.5-1.1s1.5,0.5,1.5,1.1v2.6
					C317.3,94.7,316.6,95.2,315.7,95.2z M315.7,87.5c-0.8,0-1.5-0.5-1.5-1.1v-2.6c0-0.6,0.7-1.1,1.5-1.1s1.5,0.5,1.5,1.1v2.6
					C317.3,87,316.6,87.5,315.7,87.5z M315.7,79.8c-0.8,0-1.5-0.5-1.5-1.1v-2.6c0-0.6,0.7-1.1,1.5-1.1s1.5,0.5,1.5,1.1v2.6
					C317.3,79.3,316.6,79.8,315.7,79.8z"/>
			</g>
			<g>
				<path class="st1" d="M315.7,101.5c-0.8,0-1.5-0.5-1.5-1.1v-1.1c0-0.6,0.7-1.1,1.5-1.1s1.5,0.5,1.5,1.1v1.1
					C317.3,101,316.6,101.5,315.7,101.5z"/>
			</g>
		</g>
		<g>
			<g>
				<path class="st1" d="M325.5,91.8c-0.8,0-1.5-0.5-1.5-1.1v-1.1c0-0.6,0.7-1.1,1.5-1.1s1.5,0.5,1.5,1.1v1.1
					C327,91.2,326.4,91.8,325.5,91.8z"/>
			</g>
			<g>
				<path class="st1" d="M325.5,87.1c-0.8,0-1.5-0.5-1.5-1.1v-1.8c0-0.6,0.7-1.1,1.5-1.1s1.5,0.5,1.5,1.1V86
					C327,86.6,326.4,87.1,325.5,87.1z"/>
			</g>
			<g>
				<path class="st1" d="M325.5,81.8c-0.8,0-1.5-0.5-1.5-1.1v-1.1c0-0.6,0.7-1.1,1.5-1.1s1.5,0.5,1.5,1.1v1.1
					C327,81.3,326.4,81.8,325.5,81.8z"/>
			</g>
		</g>
		<g>
			<g>
				<path class="st1" d="M335.2,90.4c-0.8,0-1.5-0.5-1.5-1.1v-1.1c0-0.6,0.7-1.1,1.5-1.1s1.5,0.5,1.5,1.1v1.1
					C336.8,89.9,336.1,90.4,335.2,90.4z"/>
			</g>
			<g>
				<path class="st1" d="M335.2,86.8c-0.8,0-1.5-0.5-1.5-1.1v-1.2c0-0.6,0.7-1.1,1.5-1.1s1.5,0.5,1.5,1.1v1.2
					C336.8,86.3,336.1,86.8,335.2,86.8z"/>
			</g>
			<g>
				<path class="st1" d="M335.2,83.2c-0.8,0-1.5-0.5-1.5-1.1V81c0-0.6,0.7-1.1,1.5-1.1s1.5,0.5,1.5,1.1v1
					C336.8,82.7,336.1,83.2,335.2,83.2z"/>
			</g>
		</g>
		<g>
			<g>
				<path class="st1" d="M422.4,100.1c-0.8,0-1.5-0.5-1.5-1.1v-1.1c0-0.6,0.7-1.1,1.5-1.1s1.5,0.5,1.5,1.1V99
					C424,99.6,423.3,100.1,422.4,100.1z"/>
			</g>
			<g>
				<path class="st1" d="M422.4,94.3c-0.8,0-1.5-0.5-1.5-1.1v-2.3c0-0.6,0.7-1.1,1.5-1.1s1.5,0.5,1.5,1.1v2.3
					C424,93.8,423.3,94.3,422.4,94.3z M422.4,87.4c-0.8,0-1.5-0.5-1.5-1.1V84c0-0.6,0.7-1.1,1.5-1.1s1.5,0.5,1.5,1.1v2.3
					C424,86.8,423.3,87.4,422.4,87.4z M422.4,80.4c-0.8,0-1.5-0.5-1.5-1.1V77c0-0.6,0.7-1.1,1.5-1.1s1.5,0.5,1.5,1.1v2.3
					C424,79.9,423.3,80.4,422.4,80.4z"/>
			</g>
			<g>
				<path class="st1" d="M422.4,73.5c-0.8,0-1.5-0.5-1.5-1.1v-1.1c0-0.6,0.7-1.1,1.5-1.1s1.5,0.5,1.5,1.1v1.1
					C424,72.9,423.3,73.5,422.4,73.5z"/>
			</g>
		</g>
		<g>
			<g>
				<path class="st1" d="M345,89c-0.8,0-1.5-0.5-1.5-1.1v-1.1c0-0.6,0.7-1.1,1.5-1.1c0.8,0,1.5,0.5,1.5,1.1v1.1
					C346.5,88.5,345.8,89,345,89z"/>
			</g>
			<g>
				<path class="st1" d="M345,84.6c-0.8,0-1.5-0.5-1.5-1.1v-1.1c0-0.6,0.7-1.1,1.5-1.1c0.8,0,1.5,0.5,1.5,1.1v1.1
					C346.5,84.1,345.8,84.6,345,84.6z"/>
			</g>
		</g>
		<g>
			<g>
				<path class="st1" d="M640.8,83.2c-0.8,0-1.5-0.5-1.5-1.1V81c0-0.6,0.7-1.1,1.5-1.1c0.8,0,1.5,0.5,1.5,1.1v1
					C642.4,82.7,641.6,83.2,640.8,83.2z"/>
			</g>
			<g>
				<path class="st1" d="M640.8,86.8c-0.8,0-1.5-0.5-1.5-1.1v-1.2c0-0.6,0.7-1.1,1.5-1.1c0.8,0,1.5,0.5,1.5,1.1v1.2
					C642.4,86.3,641.6,86.8,640.8,86.8z"/>
			</g>
			<g>
				<path class="st1" d="M640.8,90.4c-0.8,0-1.5-0.5-1.5-1.1v-1.1c0-0.6,0.7-1.1,1.5-1.1c0.8,0,1.5,0.5,1.5,1.1v1.1
					C642.4,89.9,641.6,90.4,640.8,90.4z"/>
			</g>
		</g>
		<g>
			<g>
				<path class="st1" d="M629.2,69.3c-0.8,0-1.5-0.5-1.5-1.1V67c0-0.6,0.7-1.1,1.5-1.1c0.8,0,1.5,0.5,1.5,1.1v1.1
					C630.7,68.8,630,69.3,629.2,69.3z"/>
			</g>
			<g>
				<path class="st1" d="M629.2,98.3c-0.8,0-1.5-0.5-1.5-1.1v-2.4c0-0.6,0.7-1.1,1.5-1.1c0.8,0,1.5,0.5,1.5,1.1v2.4
					C630.7,97.8,630,98.3,629.2,98.3z M629.2,91c-0.8,0-1.5-0.5-1.5-1.1v-2.4c0-0.6,0.7-1.1,1.5-1.1c0.8,0,1.5,0.5,1.5,1.1v2.4
					C630.7,90.5,630,91,629.2,91z M629.2,83.8c-0.8,0-1.5-0.5-1.5-1.1v-2.4c0-0.6,0.7-1.1,1.5-1.1c0.8,0,1.5,0.5,1.5,1.1v2.4
					C630.7,83.3,630,83.8,629.2,83.8z M629.2,76.5c-0.8,0-1.5-0.5-1.5-1.1V73c0-0.6,0.7-1.1,1.5-1.1c0.8,0,1.5,0.5,1.5,1.1v2.4
					C630.7,76,630,76.5,629.2,76.5z"/>
			</g>
			<g>
				<path class="st1" d="M629.2,104.3c-0.8,0-1.5-0.5-1.5-1.1V102c0-0.6,0.7-1.1,1.5-1.1c0.8,0,1.5,0.5,1.5,1.1v1.1
					C630.7,103.8,630,104.3,629.2,104.3z"/>
			</g>
		</g>
		<g>
			<g>
				<path class="st1" d="M609.8,83.2c-0.8,0-1.5-0.5-1.5-1.1V81c0-0.6,0.7-1.1,1.5-1.1c0.8,0,1.5,0.5,1.5,1.1v1
					C611.3,82.7,610.6,83.2,609.8,83.2z"/>
			</g>
			<g>
				<path class="st1" d="M609.8,86.8c-0.8,0-1.5-0.5-1.5-1.1v-1.2c0-0.6,0.7-1.1,1.5-1.1c0.8,0,1.5,0.5,1.5,1.1v1.2
					C611.3,86.3,610.6,86.8,609.8,86.8z"/>
			</g>
			<g>
				<path class="st1" d="M609.8,90.4c-0.8,0-1.5-0.5-1.5-1.1v-1.1c0-0.6,0.7-1.1,1.5-1.1c0.8,0,1.5,0.5,1.5,1.1v1.1
					C611.3,89.9,610.6,90.4,609.8,90.4z"/>
			</g>
		</g>
		<g>
			<g>
				<path class="st1" d="M354.8,102c-0.8,0-1.5-0.5-1.5-1.1v-1.1c0-0.6,0.7-1.1,1.5-1.1s1.5,0.5,1.5,1.1v1.1
					C356.3,101.5,355.6,102,354.8,102z"/>
			</g>
			<g>
				<path class="st1" d="M354.8,96.7c-0.8,0-1.5-0.5-1.5-1.1v-2.1c0-0.6,0.7-1.1,1.5-1.1s1.5,0.5,1.5,1.1v2.1
					C356.3,96.2,355.6,96.7,354.8,96.7z M354.8,90.4c-0.8,0-1.5-0.5-1.5-1.1v-2.1c0-0.6,0.7-1.1,1.5-1.1s1.5,0.5,1.5,1.1v2.1
					C356.3,89.9,355.6,90.4,354.8,90.4z M354.8,84.1c-0.8,0-1.5-0.5-1.5-1.1v-2.1c0-0.6,0.7-1.1,1.5-1.1s1.5,0.5,1.5,1.1V83
					C356.3,83.6,355.6,84.1,354.8,84.1z M354.8,77.8c-0.8,0-1.5-0.5-1.5-1.1v-2.1c0-0.6,0.7-1.1,1.5-1.1s1.5,0.5,1.5,1.1v2.1
					C356.3,77.3,355.6,77.8,354.8,77.8z"/>
			</g>
			<g>
				<path class="st1" d="M354.8,71.5c-0.8,0-1.5-0.5-1.5-1.1v-1.1c0-0.6,0.7-1.1,1.5-1.1s1.5,0.5,1.5,1.1v1.1
					C356.3,71,355.6,71.5,354.8,71.5z"/>
			</g>
		</g>
		<g>
			<g>
				<path class="st1" d="M364.4,118.2c-0.8,0-1.5-0.5-1.5-1.1V116c0-0.6,0.7-1.1,1.5-1.1s1.5,0.5,1.5,1.1v1.1
					C366.1,117.6,365.4,118.2,364.4,118.2z"/>
			</g>
			<g>
				<path class="st1" d="M364.4,112.3c-0.8,0-1.5-0.5-1.5-1.1v-2.4c0-0.6,0.7-1.1,1.5-1.1s1.5,0.5,1.5,1.1v2.4
					C366.1,111.8,365.4,112.3,364.4,112.3z M364.4,105.2c-0.8,0-1.5-0.5-1.5-1.1v-2.4c0-0.6,0.7-1.1,1.5-1.1s1.5,0.5,1.5,1.1v2.4
					C366.1,104.6,365.4,105.2,364.4,105.2z M364.4,98c-0.8,0-1.5-0.5-1.5-1.1v-2.4c0-0.6,0.7-1.1,1.5-1.1s1.5,0.5,1.5,1.1v2.4
					C366.1,97.5,365.4,98,364.4,98z M364.4,90.9c-0.8,0-1.5-0.5-1.5-1.1v-2.4c0-0.6,0.7-1.1,1.5-1.1s1.5,0.5,1.5,1.1v2.4
					C366.1,90.4,365.4,90.9,364.4,90.9z M364.4,83.8c-0.8,0-1.5-0.5-1.5-1.1v-2.4c0-0.6,0.7-1.1,1.5-1.1s1.5,0.5,1.5,1.1v2.4
					C366.1,83.3,365.4,83.8,364.4,83.8z M364.4,76.7c-0.8,0-1.5-0.5-1.5-1.1v-2.4c0-0.6,0.7-1.1,1.5-1.1s1.5,0.5,1.5,1.1v2.4
					C366.1,76.2,365.4,76.7,364.4,76.7z M364.4,69.6c-0.8,0-1.5-0.5-1.5-1.1v-2.4c0-0.6,0.7-1.1,1.5-1.1s1.5,0.5,1.5,1.1v2.4
					C366.1,69.1,365.4,69.6,364.4,69.6z M364.4,62.5c-0.8,0-1.5-0.5-1.5-1.1V59c0-0.6,0.7-1.1,1.5-1.1s1.5,0.5,1.5,1.1v2.4
					C366.1,62,365.4,62.5,364.4,62.5z"/>
			</g>
			<g>
				<path class="st1" d="M364.4,55.4c-0.8,0-1.5-0.5-1.5-1.1v-1.1c0-0.6,0.7-1.1,1.5-1.1s1.5,0.5,1.5,1.1v1.1
					C366.1,54.9,365.4,55.4,364.4,55.4z"/>
			</g>
		</g>
		<g>
			<g>
				<path class="st1" d="M374.2,104.3c-0.8,0-1.5-0.5-1.5-1.1V102c0-0.6,0.7-1.1,1.5-1.1s1.5,0.5,1.5,1.1v1.1
					C375.7,103.8,375,104.3,374.2,104.3z"/>
			</g>
			<g>
				<path class="st1" d="M374.2,98.3c-0.8,0-1.5-0.5-1.5-1.1v-2.4c0-0.6,0.7-1.1,1.5-1.1s1.5,0.5,1.5,1.1v2.4
					C375.7,97.8,375,98.3,374.2,98.3z M374.2,91c-0.8,0-1.5-0.5-1.5-1.1v-2.4c0-0.6,0.7-1.1,1.5-1.1s1.5,0.5,1.5,1.1v2.4
					C375.7,90.5,375,91,374.2,91z M374.2,83.8c-0.8,0-1.5-0.5-1.5-1.1v-2.4c0-0.6,0.7-1.1,1.5-1.1s1.5,0.5,1.5,1.1v2.4
					C375.7,83.3,375,83.8,374.2,83.8z M374.2,76.5c-0.8,0-1.5-0.5-1.5-1.1V73c0-0.6,0.7-1.1,1.5-1.1s1.5,0.5,1.5,1.1v2.4
					C375.7,76,375,76.5,374.2,76.5z"/>
			</g>
			<g>
				<path class="st1" d="M374.2,69.3c-0.8,0-1.5-0.5-1.5-1.1V67c0-0.6,0.7-1.1,1.5-1.1s1.5,0.5,1.5,1.1v1.1
					C375.7,68.8,375,69.3,374.2,69.3z"/>
			</g>
		</g>
		<g>
			<g>
				<path class="st1" d="M384,112.6c-0.8,0-1.5-0.5-1.5-1.1v-1.1c0-0.6,0.7-1.1,1.5-1.1s1.5,0.5,1.5,1.1v1.1
					C385.5,112.1,384.8,112.6,384,112.6z"/>
			</g>
			<g>
				<path class="st1" d="M384,107.1c-0.8,0-1.5-0.5-1.5-1.1v-2.2c0-0.6,0.7-1.1,1.5-1.1s1.5,0.5,1.5,1.1v2.2
					C385.5,106.5,384.8,107.1,384,107.1z M384,100.5c-0.8,0-1.5-0.5-1.5-1.1v-2.2c0-0.6,0.7-1.1,1.5-1.1s1.5,0.5,1.5,1.1v2.2
					C385.5,100,384.8,100.5,384,100.5z M384,93.9c-0.8,0-1.5-0.5-1.5-1.1v-2.2c0-0.6,0.7-1.1,1.5-1.1s1.5,0.5,1.5,1.1v2.2
					C385.5,93.4,384.8,93.9,384,93.9z M384,87.3c-0.8,0-1.5-0.5-1.5-1.1V84c0-0.6,0.7-1.1,1.5-1.1s1.5,0.5,1.5,1.1v2.2
					C385.5,86.8,384.8,87.3,384,87.3z M384,80.7c-0.8,0-1.5-0.5-1.5-1.1v-2.2c0-0.6,0.7-1.1,1.5-1.1s1.5,0.5,1.5,1.1v2.2
					C385.5,80.2,384.8,80.7,384,80.7z M384,74.1c-0.8,0-1.5-0.5-1.5-1.1v-2.2c0-0.6,0.7-1.1,1.5-1.1s1.5,0.5,1.5,1.1V73
					C385.5,73.6,384.8,74.1,384,74.1z M384,67.5c-0.8,0-1.5-0.5-1.5-1.1v-2.2c0-0.6,0.7-1.1,1.5-1.1s1.5,0.5,1.5,1.1v2.2
					C385.5,67,384.8,67.5,384,67.5z"/>
			</g>
			<g>
				<path class="st1" d="M384,61c-0.8,0-1.5-0.5-1.5-1.1v-1.1c0-0.6,0.7-1.1,1.5-1.1s1.5,0.5,1.5,1.1v1.1
					C385.5,60.4,384.8,61,384,61z"/>
			</g>
		</g>
		<g>
			<g>
				<path class="st1" d="M393.6,132c-0.8,0-1.5-0.5-1.5-1.1v-1.1c0-0.6,0.7-1.1,1.5-1.1s1.5,0.5,1.5,1.1v1.1
					C395.3,131.5,394.6,132,393.6,132z"/>
			</g>
			<g>
				<path class="st1" d="M393.6,126.2c-0.8,0-1.5-0.5-1.5-1.1v-2.4c0-0.6,0.7-1.1,1.5-1.1s1.5,0.5,1.5,1.1v2.4
					C395.3,125.7,394.6,126.2,393.6,126.2z M393.6,119.1c-0.8,0-1.5-0.5-1.5-1.1v-2.4c0-0.6,0.7-1.1,1.5-1.1s1.5,0.5,1.5,1.1v2.4
					C395.3,118.6,394.6,119.1,393.6,119.1z M393.6,112.1c-0.8,0-1.5-0.5-1.5-1.1v-2.4c0-0.6,0.7-1.1,1.5-1.1s1.5,0.5,1.5,1.1v2.4
					C395.3,111.6,394.6,112.1,393.6,112.1z M393.6,105c-0.8,0-1.5-0.5-1.5-1.1v-2.4c0-0.6,0.7-1.1,1.5-1.1s1.5,0.5,1.5,1.1v2.4
					C395.3,104.5,394.6,105,393.6,105z M393.6,98c-0.8,0-1.5-0.5-1.5-1.1v-2.4c0-0.6,0.7-1.1,1.5-1.1s1.5,0.5,1.5,1.1v2.4
					C395.3,97.5,394.6,98,393.6,98z M393.6,90.9c-0.8,0-1.5-0.5-1.5-1.1v-2.4c0-0.6,0.7-1.1,1.5-1.1s1.5,0.5,1.5,1.1v2.4
					C395.3,90.4,394.6,90.9,393.6,90.9z M393.6,83.9c-0.8,0-1.5-0.5-1.5-1.1v-2.4c0-0.6,0.7-1.1,1.5-1.1s1.5,0.5,1.5,1.1v2.4
					C395.3,83.3,394.6,83.9,393.6,83.9z M393.6,76.8c-0.8,0-1.5-0.5-1.5-1.1v-2.4c0-0.6,0.7-1.1,1.5-1.1s1.5,0.5,1.5,1.1v2.4
					C395.3,76.3,394.6,76.8,393.6,76.8z M393.6,69.7c-0.8,0-1.5-0.5-1.5-1.1v-2.4c0-0.6,0.7-1.1,1.5-1.1s1.5,0.5,1.5,1.1v2.4
					C395.3,69.2,394.6,69.7,393.6,69.7z M393.6,62.7c-0.8,0-1.5-0.5-1.5-1.1v-2.4c0-0.6,0.7-1.1,1.5-1.1s1.5,0.5,1.5,1.1v2.4
					C395.3,62.2,394.6,62.7,393.6,62.7z M393.6,55.6c-0.8,0-1.5-0.5-1.5-1.1v-2.4c0-0.6,0.7-1.1,1.5-1.1s1.5,0.5,1.5,1.1v2.4
					C395.3,55.1,394.6,55.6,393.6,55.6z M393.6,48.6c-0.8,0-1.5-0.5-1.5-1.1v-2.4c0-0.6,0.7-1.1,1.5-1.1s1.5,0.5,1.5,1.1v2.4
					C395.3,48,394.6,48.6,393.6,48.6z"/>
			</g>
			<g>
				<path class="st1" d="M393.6,41.5c-0.8,0-1.5-0.5-1.5-1.1v-1.1c0-0.6,0.7-1.1,1.5-1.1s1.5,0.5,1.5,1.1v1.1
					C395.3,41,394.6,41.5,393.6,41.5z"/>
			</g>
		</g>
		<g>
			<g>
				<path class="st1" d="M403.4,126.5c-0.8,0-1.5-0.5-1.5-1.1v-1.1c0-0.6,0.7-1.1,1.5-1.1s1.5,0.5,1.5,1.1v1.1
					C404.9,126,404.2,126.5,403.4,126.5z"/>
			</g>
			<g>
				<path class="st1" d="M403.4,120.9c-0.8,0-1.5-0.5-1.5-1.1v-2.2c0-0.6,0.7-1.1,1.5-1.1s1.5,0.5,1.5,1.1v2.2
					C404.9,120.4,404.2,120.9,403.4,120.9z M403.4,114.2c-0.8,0-1.5-0.5-1.5-1.1v-2.2c0-0.6,0.7-1.1,1.5-1.1s1.5,0.5,1.5,1.1v2.2
					C404.9,113.6,404.2,114.2,403.4,114.2z M403.4,107.5c-0.8,0-1.5-0.5-1.5-1.1v-2.2c0-0.6,0.7-1.1,1.5-1.1s1.5,0.5,1.5,1.1v2.2
					C404.9,106.9,404.2,107.5,403.4,107.5z M403.4,100.7c-0.8,0-1.5-0.5-1.5-1.1v-2.2c0-0.6,0.7-1.1,1.5-1.1s1.5,0.5,1.5,1.1v2.2
					C404.9,100.2,404.2,100.7,403.4,100.7z M403.4,94c-0.8,0-1.5-0.5-1.5-1.1v-2.2c0-0.6,0.7-1.1,1.5-1.1s1.5,0.5,1.5,1.1v2.2
					C404.9,93.5,404.2,94,403.4,94z M403.4,87.3c-0.8,0-1.5-0.5-1.5-1.1V84c0-0.6,0.7-1.1,1.5-1.1s1.5,0.5,1.5,1.1v2.2
					C404.9,86.8,404.2,87.3,403.4,87.3z M403.4,80.6c-0.8,0-1.5-0.5-1.5-1.1v-2.2c0-0.6,0.7-1.1,1.5-1.1s1.5,0.5,1.5,1.1v2.2
					C404.9,80.1,404.2,80.6,403.4,80.6z M403.4,73.9c-0.8,0-1.5-0.5-1.5-1.1v-2.2c0-0.6,0.7-1.1,1.5-1.1s1.5,0.5,1.5,1.1v2.2
					C404.9,73.4,404.2,73.9,403.4,73.9z M403.4,67.2c-0.8,0-1.5-0.5-1.5-1.1v-2.2c0-0.6,0.7-1.1,1.5-1.1s1.5,0.5,1.5,1.1V66
					C404.9,66.7,404.2,67.2,403.4,67.2z M403.4,60.5c-0.8,0-1.5-0.5-1.5-1.1v-2.2c0-0.6,0.7-1.1,1.5-1.1s1.5,0.5,1.5,1.1v2.2
					C404.9,60,404.2,60.5,403.4,60.5z M403.4,53.8c-0.8,0-1.5-0.5-1.5-1.1v-2.2c0-0.6,0.7-1.1,1.5-1.1s1.5,0.5,1.5,1.1v2.2
					C404.9,53.3,404.2,53.8,403.4,53.8z"/>
			</g>
			<g>
				<path class="st1" d="M403.4,47.1c-0.8,0-1.5-0.5-1.5-1.1v-1.1c0-0.6,0.7-1.1,1.5-1.1s1.5,0.5,1.5,1.1V46
					C404.9,46.5,404.2,47.1,403.4,47.1z"/>
			</g>
		</g>
		<g>
			<g>
				<path class="st1" d="M413.2,118.2c-0.8,0-1.5-0.5-1.5-1.1V116c0-0.6,0.7-1.1,1.5-1.1s1.5,0.5,1.5,1.1v1.1
					C414.7,117.6,414,118.2,413.2,118.2z"/>
			</g>
			<g>
				<path class="st1" d="M413.2,112.3c-0.8,0-1.5-0.5-1.5-1.1v-2.4c0-0.6,0.7-1.1,1.5-1.1s1.5,0.5,1.5,1.1v2.4
					C414.7,111.8,414,112.3,413.2,112.3z M413.2,105.2c-0.8,0-1.5-0.5-1.5-1.1v-2.4c0-0.6,0.7-1.1,1.5-1.1s1.5,0.5,1.5,1.1v2.4
					C414.7,104.6,414,105.2,413.2,105.2z M413.2,98c-0.8,0-1.5-0.5-1.5-1.1v-2.4c0-0.6,0.7-1.1,1.5-1.1s1.5,0.5,1.5,1.1v2.4
					C414.7,97.5,414,98,413.2,98z M413.2,90.9c-0.8,0-1.5-0.5-1.5-1.1v-2.4c0-0.6,0.7-1.1,1.5-1.1s1.5,0.5,1.5,1.1v2.4
					C414.7,90.4,414,90.9,413.2,90.9z M413.2,83.8c-0.8,0-1.5-0.5-1.5-1.1v-2.4c0-0.6,0.7-1.1,1.5-1.1s1.5,0.5,1.5,1.1v2.4
					C414.7,83.3,414,83.8,413.2,83.8z M413.2,76.7c-0.8,0-1.5-0.5-1.5-1.1v-2.4c0-0.6,0.7-1.1,1.5-1.1s1.5,0.5,1.5,1.1v2.4
					C414.7,76.2,414,76.7,413.2,76.7z M413.2,69.6c-0.8,0-1.5-0.5-1.5-1.1v-2.4c0-0.6,0.7-1.1,1.5-1.1s1.5,0.5,1.5,1.1v2.4
					C414.7,69.1,414,69.6,413.2,69.6z M413.2,62.5c-0.8,0-1.5-0.5-1.5-1.1V59c0-0.6,0.7-1.1,1.5-1.1s1.5,0.5,1.5,1.1v2.4
					C414.7,62,414,62.5,413.2,62.5z"/>
			</g>
			<g>
				<path class="st1" d="M413.2,55.4c-0.8,0-1.5-0.5-1.5-1.1v-1.1c0-0.6,0.7-1.1,1.5-1.1s1.5,0.5,1.5,1.1v1.1
					C414.7,54.9,414,55.4,413.2,55.4z"/>
			</g>
		</g>
		<g>
			<g>
				<path class="st1" d="M432.6,126.5c-0.8,0-1.5-0.5-1.5-1.1v-1.1c0-0.6,0.7-1.1,1.5-1.1s1.5,0.5,1.5,1.1v1.1
					C434.2,126,433.5,126.5,432.6,126.5z"/>
			</g>
			<g>
				<path class="st1" d="M432.6,120.9c-0.8,0-1.5-0.5-1.5-1.1v-2.2c0-0.6,0.7-1.1,1.5-1.1s1.5,0.5,1.5,1.1v2.2
					C434.2,120.4,433.5,120.9,432.6,120.9z M432.6,114.2c-0.8,0-1.5-0.5-1.5-1.1v-2.2c0-0.6,0.7-1.1,1.5-1.1s1.5,0.5,1.5,1.1v2.2
					C434.2,113.6,433.5,114.2,432.6,114.2z M432.6,107.5c-0.8,0-1.5-0.5-1.5-1.1v-2.2c0-0.6,0.7-1.1,1.5-1.1s1.5,0.5,1.5,1.1v2.2
					C434.2,106.9,433.5,107.5,432.6,107.5z M432.6,100.7c-0.8,0-1.5-0.5-1.5-1.1v-2.2c0-0.6,0.7-1.1,1.5-1.1s1.5,0.5,1.5,1.1v2.2
					C434.2,100.2,433.5,100.7,432.6,100.7z M432.6,94c-0.8,0-1.5-0.5-1.5-1.1v-2.2c0-0.6,0.7-1.1,1.5-1.1s1.5,0.5,1.5,1.1v2.2
					C434.2,93.5,433.5,94,432.6,94z M432.6,87.3c-0.8,0-1.5-0.5-1.5-1.1V84c0-0.6,0.7-1.1,1.5-1.1s1.5,0.5,1.5,1.1v2.2
					C434.2,86.8,433.5,87.3,432.6,87.3z M432.6,80.6c-0.8,0-1.5-0.5-1.5-1.1v-2.2c0-0.6,0.7-1.1,1.5-1.1s1.5,0.5,1.5,1.1v2.2
					C434.2,80.1,433.5,80.6,432.6,80.6z M432.6,73.9c-0.8,0-1.5-0.5-1.5-1.1v-2.2c0-0.6,0.7-1.1,1.5-1.1s1.5,0.5,1.5,1.1v2.2
					C434.2,73.4,433.5,73.9,432.6,73.9z M432.6,67.2c-0.8,0-1.5-0.5-1.5-1.1v-2.2c0-0.6,0.7-1.1,1.5-1.1s1.5,0.5,1.5,1.1V66
					C434.2,66.7,433.5,67.2,432.6,67.2z M432.6,60.5c-0.8,0-1.5-0.5-1.5-1.1v-2.2c0-0.6,0.7-1.1,1.5-1.1s1.5,0.5,1.5,1.1v2.2
					C434.2,60,433.5,60.5,432.6,60.5z M432.6,53.8c-0.8,0-1.5-0.5-1.5-1.1v-2.2c0-0.6,0.7-1.1,1.5-1.1s1.5,0.5,1.5,1.1v2.2
					C434.2,53.3,433.5,53.8,432.6,53.8z"/>
			</g>
			<g>
				<path class="st1" d="M432.6,47.1c-0.8,0-1.5-0.5-1.5-1.1v-1.1c0-0.6,0.7-1.1,1.5-1.1s1.5,0.5,1.5,1.1V46
					C434.2,46.5,433.5,47.1,432.6,47.1z"/>
			</g>
		</g>
		<g>
			<g>
				<path class="st1" d="M442.4,141.8c-0.8,0-1.5-0.5-1.5-1.1v-1.1c0-0.6,0.7-1.1,1.5-1.1s1.5,0.5,1.5,1.1v1.1
					C443.9,141.3,443.3,141.8,442.4,141.8z"/>
			</g>
			<g>
				<path class="st1" d="M442.4,136c-0.8,0-1.5-0.5-1.5-1.1v-2.3c0-0.6,0.7-1.1,1.5-1.1s1.5,0.5,1.5,1.1v2.3
					C443.9,135.5,443.3,136,442.4,136z M442.4,129c-0.8,0-1.5-0.5-1.5-1.1v-2.3c0-0.6,0.7-1.1,1.5-1.1s1.5,0.5,1.5,1.1v2.3
					C443.9,128.5,443.3,129,442.4,129z M442.4,122.1c-0.8,0-1.5-0.5-1.5-1.1v-2.3c0-0.6,0.7-1.1,1.5-1.1s1.5,0.5,1.5,1.1v2.3
					C443.9,121.6,443.3,122.1,442.4,122.1z M442.4,115.2c-0.8,0-1.5-0.5-1.5-1.1v-2.3c0-0.6,0.7-1.1,1.5-1.1s1.5,0.5,1.5,1.1v2.3
					C443.9,114.6,443.3,115.2,442.4,115.2z M442.4,108.2c-0.8,0-1.5-0.5-1.5-1.1v-2.3c0-0.6,0.7-1.1,1.5-1.1s1.5,0.5,1.5,1.1v2.3
					C443.9,107.7,443.3,108.2,442.4,108.2z M442.4,101.3c-0.8,0-1.5-0.5-1.5-1.1v-2.3c0-0.6,0.7-1.1,1.5-1.1s1.5,0.5,1.5,1.1v2.3
					C443.9,100.7,443.3,101.3,442.4,101.3z M442.4,94.3c-0.8,0-1.5-0.5-1.5-1.1v-2.3c0-0.6,0.7-1.1,1.5-1.1s1.5,0.5,1.5,1.1v2.3
					C443.9,93.8,443.3,94.3,442.4,94.3z M442.4,87.4c-0.8,0-1.5-0.5-1.5-1.1V84c0-0.6,0.7-1.1,1.5-1.1s1.5,0.5,1.5,1.1v2.3
					C443.9,86.8,443.3,87.4,442.4,87.4z M442.4,80.4c-0.8,0-1.5-0.5-1.5-1.1V77c0-0.6,0.7-1.1,1.5-1.1s1.5,0.5,1.5,1.1v2.3
					C443.9,79.9,443.3,80.4,442.4,80.4z M442.4,73.5c-0.8,0-1.5-0.5-1.5-1.1V70c0-0.6,0.7-1.1,1.5-1.1s1.5,0.5,1.5,1.1v2.3
					C443.9,73,443.3,73.5,442.4,73.5z M442.4,66.5c-0.8,0-1.5-0.5-1.5-1.1v-2.3c0-0.6,0.7-1.1,1.5-1.1s1.5,0.5,1.5,1.1v2.3
					C443.9,66,443.3,66.5,442.4,66.5z M442.4,59.6c-0.8,0-1.5-0.5-1.5-1.1v-2.3c0-0.6,0.7-1.1,1.5-1.1s1.5,0.5,1.5,1.1v2.3
					C443.9,59.1,443.3,59.6,442.4,59.6z M442.4,52.6c-0.8,0-1.5-0.5-1.5-1.1v-2.3c0-0.6,0.7-1.1,1.5-1.1s1.5,0.5,1.5,1.1v2.3
					C443.9,52.1,443.3,52.6,442.4,52.6z M442.4,45.7c-0.8,0-1.5-0.5-1.5-1.1v-2.3c0-0.6,0.7-1.1,1.5-1.1s1.5,0.5,1.5,1.1v2.3
					C443.9,45.2,443.3,45.7,442.4,45.7z M442.4,38.7c-0.8,0-1.5-0.5-1.5-1.1v-2.3c0-0.6,0.7-1.1,1.5-1.1s1.5,0.5,1.5,1.1v2.3
					C443.9,38.2,443.3,38.7,442.4,38.7z"/>
			</g>
			<g>
				<path class="st1" d="M442.4,31.8c-0.8,0-1.5-0.5-1.5-1.1v-1.1c0-0.6,0.7-1.1,1.5-1.1s1.5,0.5,1.5,1.1v1.1
					C443.9,31.3,443.3,31.8,442.4,31.8z"/>
			</g>
		</g>
		<g>
			<g>
				<path class="st1" d="M511.1,90.4c-0.8,0-1.5-0.5-1.5-1.1v-1.1c0-0.6,0.7-1.1,1.5-1.1s1.5,0.5,1.5,1.1v1.1
					C512.6,89.9,511.9,90.4,511.1,90.4z"/>
			</g>
			<g>
				<path class="st1" d="M511.1,86.8c-0.8,0-1.5-0.5-1.5-1.1v-1.2c0-0.6,0.7-1.1,1.5-1.1s1.5,0.5,1.5,1.1v1.2
					C512.6,86.3,511.9,86.8,511.1,86.8z"/>
			</g>
			<g>
				<path class="st1" d="M511.1,83.2c-0.8,0-1.5-0.5-1.5-1.1V81c0-0.6,0.7-1.1,1.5-1.1s1.5,0.5,1.5,1.1v1
					C512.6,82.7,511.9,83.2,511.1,83.2z"/>
			</g>
		</g>
		<g>
			<g>
				<path class="st1" d="M521.3,94.5c-0.8,0-1.5-0.5-1.5-1.1v-1.1c0-0.6,0.7-1.1,1.5-1.1c0.8,0,1.5,0.5,1.5,1.1v1.1
					C522.8,94,522.1,94.5,521.3,94.5z"/>
			</g>
			<g>
				<path class="st1" d="M521.3,87.6c-0.8,0-1.5-0.5-1.5-1.1v-2.9c0-0.6,0.7-1.1,1.5-1.1c0.8,0,1.5,0.5,1.5,1.1v2.9
					C522.8,87.1,522.1,87.6,521.3,87.6z"/>
			</g>
			<g>
				<path class="st1" d="M521.3,79c-0.8,0-1.5-0.5-1.5-1.1v-1.1c0-0.6,0.7-1.1,1.5-1.1c0.8,0,1.5,0.5,1.5,1.1v1.1
					C522.8,78.5,522.1,79,521.3,79z"/>
			</g>
		</g>
		<g>
			<g>
				<path class="st1" d="M530.9,86c-0.8,0-1.5-0.5-1.5-1.1v-1.1c0-0.6,0.7-1.1,1.5-1.1c0.8,0,1.5,0.5,1.5,1.1v1.1
					C532.6,85.4,531.9,86,530.9,86z"/>
			</g>
			<g>
				<path class="st1" d="M530.9,87.6c-0.8,0-1.5-0.5-1.5-1.1v-1.1c0-0.6,0.7-1.1,1.5-1.1c0.8,0,1.5,0.5,1.5,1.1v1.1
					C532.6,87.1,531.9,87.6,530.9,87.6z"/>
			</g>
		</g>
		<g>
			<g>
				<path class="st1" d="M651.7,86c-0.8,0-1.5-0.5-1.5-1.1v-1.1c0-0.6,0.7-1.1,1.5-1.1c0.8,0,1.5,0.5,1.5,1.1v1.1
					C653.2,85.4,652.5,86,651.7,86z"/>
			</g>
			<g>
				<path class="st1" d="M651.7,87.6c-0.8,0-1.5-0.5-1.5-1.1v-1.1c0-0.6,0.7-1.1,1.5-1.1c0.8,0,1.5,0.5,1.5,1.1v1.1
					C653.2,87.1,652.5,87.6,651.7,87.6z"/>
			</g>
		</g>
		<g>
			<g>
				<path class="st1" d="M7.9,83.2c-0.8,0-1.5-0.5-1.5-1.1V81c0-0.6,0.7-1.1,1.5-1.1s1.5,0.5,1.5,1.1v1C9.4,82.7,8.7,83.2,7.9,83.2z
					"/>
			</g>
			<g>
				<path class="st1" d="M7.9,86.8c-0.8,0-1.5-0.5-1.5-1.1v-1.2c0-0.6,0.7-1.1,1.5-1.1s1.5,0.5,1.5,1.1v1.2
					C9.4,86.3,8.7,86.8,7.9,86.8z"/>
			</g>
			<g>
				<path class="st1" d="M7.9,90.4c-0.8,0-1.5-0.5-1.5-1.1v-1.1c0-0.6,0.7-1.1,1.5-1.1s1.5,0.5,1.5,1.1v1.1
					C9.4,89.9,8.7,90.4,7.9,90.4z"/>
			</g>
		</g>
		<g>
			<g>
				<path class="st1" d="M18.8,86c-0.8,0-1.5-0.5-1.5-1.1v-1.1c0-0.6,0.7-1.1,1.5-1.1s1.5,0.5,1.5,1.1v1.1
					C20.3,85.4,19.6,86,18.8,86z"/>
			</g>
			<g>
				<path class="st1" d="M18.8,87.6c-0.8,0-1.5-0.5-1.5-1.1v-1.1c0-0.6,0.7-1.1,1.5-1.1s1.5,0.5,1.5,1.1v1.1
					C20.3,87.1,19.6,87.6,18.8,87.6z"/>
			</g>
		</g>
		<g>
			<g>
				<path class="st1" d="M619.2,94.5c-0.8,0-1.5-0.5-1.5-1.1v-1.1c0-0.6,0.7-1.1,1.5-1.1c0.8,0,1.5,0.5,1.5,1.1v1.1
					C620.7,94,620,94.5,619.2,94.5z"/>
			</g>
			<g>
				<path class="st1" d="M619.2,87.6c-0.8,0-1.5-0.5-1.5-1.1v-2.9c0-0.6,0.7-1.1,1.5-1.1c0.8,0,1.5,0.5,1.5,1.1v2.9
					C620.7,87.1,620,87.6,619.2,87.6z"/>
			</g>
			<g>
				<path class="st1" d="M619.2,79c-0.8,0-1.5-0.5-1.5-1.1v-1.1c0-0.6,0.7-1.1,1.5-1.1c0.8,0,1.5,0.5,1.5,1.1v1.1
					C620.7,78.5,620,79,619.2,79z"/>
			</g>
		</g>
		<g>
			<g>
				<path class="st1" d="M599.3,86c-0.8,0-1.5-0.5-1.5-1.1v-1.1c0-0.6,0.7-1.1,1.5-1.1c0.8,0,1.5,0.5,1.5,1.1v1.1
					C600.8,85.4,600.1,86,599.3,86z"/>
			</g>
			<g>
				<path class="st1" d="M599.3,87.6c-0.8,0-1.5-0.5-1.5-1.1v-1.1c0-0.6,0.7-1.1,1.5-1.1c0.8,0,1.5,0.5,1.5,1.1v1.1
					C600.8,87.1,600.1,87.6,599.3,87.6z"/>
			</g>
		</g>
		<g>
			<g>
				<path class="st1" d="M452.1,162.6c-0.8,0-1.5-0.5-1.5-1.1v-1.1c0-0.6,0.7-1.1,1.5-1.1s1.5,0.5,1.5,1.1v1.1
					C453.7,162.1,453,162.6,452.1,162.6z"/>
			</g>
			<g>
				<path class="st1" d="M452.1,156.8c-0.8,0-1.5-0.5-1.5-1.1v-2.3c0-0.6,0.7-1.1,1.5-1.1s1.5,0.5,1.5,1.1v2.3
					C453.7,156.3,453,156.8,452.1,156.8z M452.1,149.9c-0.8,0-1.5-0.5-1.5-1.1v-2.3c0-0.6,0.7-1.1,1.5-1.1s1.5,0.5,1.5,1.1v2.3
					C453.7,149.4,453,149.9,452.1,149.9z M452.1,142.9c-0.8,0-1.5-0.5-1.5-1.1v-2.3c0-0.6,0.7-1.1,1.5-1.1s1.5,0.5,1.5,1.1v2.3
					C453.7,142.4,453,142.9,452.1,142.9z M452.1,136c-0.8,0-1.5-0.5-1.5-1.1v-2.3c0-0.6,0.7-1.1,1.5-1.1s1.5,0.5,1.5,1.1v2.3
					C453.7,135.5,453,136,452.1,136z M452.1,129c-0.8,0-1.5-0.5-1.5-1.1v-2.3c0-0.6,0.7-1.1,1.5-1.1s1.5,0.5,1.5,1.1v2.3
					C453.7,128.5,453,129,452.1,129z M452.1,122.1c-0.8,0-1.5-0.5-1.5-1.1v-2.3c0-0.6,0.7-1.1,1.5-1.1s1.5,0.5,1.5,1.1v2.3
					C453.7,121.6,453,122.1,452.1,122.1z M452.1,115.2c-0.8,0-1.5-0.5-1.5-1.1v-2.3c0-0.6,0.7-1.1,1.5-1.1s1.5,0.5,1.5,1.1v2.3
					C453.7,114.6,453,115.2,452.1,115.2z M452.1,108.2c-0.8,0-1.5-0.5-1.5-1.1v-2.3c0-0.6,0.7-1.1,1.5-1.1s1.5,0.5,1.5,1.1v2.3
					C453.7,107.7,453,108.2,452.1,108.2z M452.1,101.3c-0.8,0-1.5-0.5-1.5-1.1v-2.3c0-0.6,0.7-1.1,1.5-1.1s1.5,0.5,1.5,1.1v2.3
					C453.7,100.7,453,101.3,452.1,101.3z M452.1,94.3c-0.8,0-1.5-0.5-1.5-1.1v-2.3c0-0.6,0.7-1.1,1.5-1.1s1.5,0.5,1.5,1.1v2.3
					C453.7,93.8,453,94.3,452.1,94.3z M452.1,87.4c-0.8,0-1.5-0.5-1.5-1.1V84c0-0.6,0.7-1.1,1.5-1.1s1.5,0.5,1.5,1.1v2.3
					C453.7,86.8,453,87.4,452.1,87.4z M452.1,80.4c-0.8,0-1.5-0.5-1.5-1.1V77c0-0.6,0.7-1.1,1.5-1.1s1.5,0.5,1.5,1.1v2.3
					C453.7,79.9,453,80.4,452.1,80.4z M452.1,73.5c-0.8,0-1.5-0.5-1.5-1.1V70c0-0.6,0.7-1.1,1.5-1.1s1.5,0.5,1.5,1.1v2.3
					C453.7,73,453,73.5,452.1,73.5z M452.1,66.5c-0.8,0-1.5-0.5-1.5-1.1v-2.3c0-0.6,0.7-1.1,1.5-1.1s1.5,0.5,1.5,1.1v2.3
					C453.7,66,453,66.5,452.1,66.5z M452.1,59.6c-0.8,0-1.5-0.5-1.5-1.1v-2.3c0-0.6,0.7-1.1,1.5-1.1s1.5,0.5,1.5,1.1v2.3
					C453.7,59.1,453,59.6,452.1,59.6z M452.1,52.6c-0.8,0-1.5-0.5-1.5-1.1v-2.3c0-0.6,0.7-1.1,1.5-1.1s1.5,0.5,1.5,1.1v2.3
					C453.7,52.1,453,52.6,452.1,52.6z M452.1,45.7c-0.8,0-1.5-0.5-1.5-1.1v-2.3c0-0.6,0.7-1.1,1.5-1.1s1.5,0.5,1.5,1.1v2.3
					C453.7,45.2,453,45.7,452.1,45.7z M452.1,38.7c-0.8,0-1.5-0.5-1.5-1.1v-2.3c0-0.6,0.7-1.1,1.5-1.1s1.5,0.5,1.5,1.1v2.3
					C453.7,38.2,453,38.7,452.1,38.7z M452.1,31.8c-0.8,0-1.5-0.5-1.5-1.1v-2.3c0-0.6,0.7-1.1,1.5-1.1s1.5,0.5,1.5,1.1v2.3
					C453.7,31.3,453,31.8,452.1,31.8z M452.1,24.8c-0.8,0-1.5-0.5-1.5-1.1v-2.3c0-0.6,0.7-1.1,1.5-1.1s1.5,0.5,1.5,1.1v2.3
					C453.7,24.3,453,24.8,452.1,24.8z M452.1,17.9c-0.8,0-1.5-0.5-1.5-1.1v-2.3c0-0.6,0.7-1.1,1.5-1.1s1.5,0.5,1.5,1.1v2.3
					C453.7,17.4,453,17.9,452.1,17.9z"/>
			</g>
			<g>
				<path class="st1" d="M452.1,10.9c-0.8,0-1.5-0.5-1.5-1.1V8.7c0-0.6,0.7-1.1,1.5-1.1s1.5,0.5,1.5,1.1v1.1
					C453.7,10.4,453,10.9,452.1,10.9z"/>
			</g>
		</g>
		<g>
			<g>
				<path class="st1" d="M461.9,126.5c-0.8,0-1.5-0.5-1.5-1.1v-1.1c0-0.6,0.7-1.1,1.5-1.1s1.5,0.5,1.5,1.1v1.1
					C463.4,126,462.7,126.5,461.9,126.5z"/>
			</g>
			<g>
				<path class="st1" d="M461.9,120.9c-0.8,0-1.5-0.5-1.5-1.1v-2.2c0-0.6,0.7-1.1,1.5-1.1s1.5,0.5,1.5,1.1v2.2
					C463.4,120.4,462.7,120.9,461.9,120.9z M461.9,114.2c-0.8,0-1.5-0.5-1.5-1.1v-2.2c0-0.6,0.7-1.1,1.5-1.1s1.5,0.5,1.5,1.1v2.2
					C463.4,113.6,462.7,114.2,461.9,114.2z M461.9,107.5c-0.8,0-1.5-0.5-1.5-1.1v-2.2c0-0.6,0.7-1.1,1.5-1.1s1.5,0.5,1.5,1.1v2.2
					C463.4,106.9,462.7,107.5,461.9,107.5z M461.9,100.7c-0.8,0-1.5-0.5-1.5-1.1v-2.2c0-0.6,0.7-1.1,1.5-1.1s1.5,0.5,1.5,1.1v2.2
					C463.4,100.2,462.7,100.7,461.9,100.7z M461.9,94c-0.8,0-1.5-0.5-1.5-1.1v-2.2c0-0.6,0.7-1.1,1.5-1.1s1.5,0.5,1.5,1.1v2.2
					C463.4,93.5,462.7,94,461.9,94z M461.9,87.3c-0.8,0-1.5-0.5-1.5-1.1V84c0-0.6,0.7-1.1,1.5-1.1s1.5,0.5,1.5,1.1v2.2
					C463.4,86.8,462.7,87.3,461.9,87.3z M461.9,80.6c-0.8,0-1.5-0.5-1.5-1.1v-2.2c0-0.6,0.7-1.1,1.5-1.1s1.5,0.5,1.5,1.1v2.2
					C463.4,80.1,462.7,80.6,461.9,80.6z M461.9,73.9c-0.8,0-1.5-0.5-1.5-1.1v-2.2c0-0.6,0.7-1.1,1.5-1.1s1.5,0.5,1.5,1.1v2.2
					C463.4,73.4,462.7,73.9,461.9,73.9z M461.9,67.2c-0.8,0-1.5-0.5-1.5-1.1v-2.2c0-0.6,0.7-1.1,1.5-1.1s1.5,0.5,1.5,1.1V66
					C463.4,66.7,462.7,67.2,461.9,67.2z M461.9,60.5c-0.8,0-1.5-0.5-1.5-1.1v-2.2c0-0.6,0.7-1.1,1.5-1.1s1.5,0.5,1.5,1.1v2.2
					C463.4,60,462.7,60.5,461.9,60.5z M461.9,53.8c-0.8,0-1.5-0.5-1.5-1.1v-2.2c0-0.6,0.7-1.1,1.5-1.1s1.5,0.5,1.5,1.1v2.2
					C463.4,53.3,462.7,53.8,461.9,53.8z"/>
			</g>
			<g>
				<path class="st1" d="M461.9,47.1c-0.8,0-1.5-0.5-1.5-1.1v-1.1c0-0.6,0.7-1.1,1.5-1.1s1.5,0.5,1.5,1.1V46
					C463.4,46.5,462.7,47.1,461.9,47.1z"/>
			</g>
		</g>
		<g>
			<g>
				<path class="st1" d="M471.6,111.2c-0.8,0-1.5-0.5-1.5-1.1V109c0-0.6,0.7-1.1,1.5-1.1s1.5,0.5,1.5,1.1v1.1
					C473.2,110.7,472.5,111.2,471.6,111.2z"/>
			</g>
			<g>
				<path class="st1" d="M471.6,105.3c-0.8,0-1.5-0.5-1.5-1.1v-2.4c0-0.6,0.7-1.1,1.5-1.1s1.5,0.5,1.5,1.1v2.4
					C473.2,104.8,472.5,105.3,471.6,105.3z M471.6,98.1c-0.8,0-1.5-0.5-1.5-1.1v-2.4c0-0.6,0.7-1.1,1.5-1.1s1.5,0.5,1.5,1.1V97
					C473.2,97.6,472.5,98.1,471.6,98.1z M471.6,91c-0.8,0-1.5-0.5-1.5-1.1v-2.4c0-0.6,0.7-1.1,1.5-1.1s1.5,0.5,1.5,1.1v2.4
					C473.2,90.5,472.5,91,471.6,91z M471.6,83.8c-0.8,0-1.5-0.5-1.5-1.1v-2.4c0-0.6,0.7-1.1,1.5-1.1s1.5,0.5,1.5,1.1v2.4
					C473.2,83.3,472.5,83.8,471.6,83.8z M471.6,76.7c-0.8,0-1.5-0.5-1.5-1.1v-2.4c0-0.6,0.7-1.1,1.5-1.1s1.5,0.5,1.5,1.1v2.4
					C473.2,76.1,472.5,76.7,471.6,76.7z M471.6,69.5c-0.8,0-1.5-0.5-1.5-1.1V66c0-0.6,0.7-1.1,1.5-1.1s1.5,0.5,1.5,1.1v2.4
					C473.2,69,472.5,69.5,471.6,69.5z"/>
			</g>
			<g>
				<path class="st1" d="M471.6,62.3c-0.8,0-1.5-0.5-1.5-1.1V60c0-0.6,0.7-1.1,1.5-1.1s1.5,0.5,1.5,1.1v1.1
					C473.2,61.8,472.5,62.3,471.6,62.3z"/>
			</g>
		</g>
		<g>
			<g>
				<path class="st1" d="M481.3,97.3c-0.8,0-1.5-0.5-1.5-1.1V95c0-0.6,0.7-1.1,1.5-1.1s1.5,0.5,1.5,1.1v1.1
					C483,96.8,482.3,97.3,481.3,97.3z"/>
			</g>
			<g>
				<path class="st1" d="M481.3,91.2c-0.8,0-1.5-0.5-1.5-1.1v-2.5c0-0.6,0.7-1.1,1.5-1.1s1.5,0.5,1.5,1.1v2.5
					C483,90.7,482.3,91.2,481.3,91.2z M481.3,83.7c-0.8,0-1.5-0.5-1.5-1.1v-2.5c0-0.6,0.7-1.1,1.5-1.1s1.5,0.5,1.5,1.1v2.5
					C483,83.2,482.3,83.7,481.3,83.7z"/>
			</g>
			<g>
				<path class="st1" d="M481.3,76.2c-0.8,0-1.5-0.5-1.5-1.1V74c0-0.6,0.7-1.1,1.5-1.1s1.5,0.5,1.5,1.1v1.1
					C483,75.7,482.3,76.2,481.3,76.2z"/>
			</g>
		</g>
		<g>
			<g>
				<path class="st1" d="M541.1,94.5c-0.8,0-1.5-0.5-1.5-1.1v-1.1c0-0.6,0.7-1.1,1.5-1.1c0.8,0,1.5,0.5,1.5,1.1v1.1
					C542.6,94,542,94.5,541.1,94.5z"/>
			</g>
			<g>
				<path class="st1" d="M541.1,87.6c-0.8,0-1.5-0.5-1.5-1.1v-2.9c0-0.6,0.7-1.1,1.5-1.1c0.8,0,1.5,0.5,1.5,1.1v2.9
					C542.6,87.1,542,87.6,541.1,87.6z"/>
			</g>
			<g>
				<path class="st1" d="M541.1,79c-0.8,0-1.5-0.5-1.5-1.1v-1.1c0-0.6,0.7-1.1,1.5-1.1c0.8,0,1.5,0.5,1.5,1.1v1.1
					C542.6,78.5,542,79,541.1,79z"/>
			</g>
		</g>
		<g>
			<g>
				<path class="st1" d="M550.9,111.2c-0.8,0-1.5-0.5-1.5-1.1V109c0-0.6,0.7-1.1,1.5-1.1c0.8,0,1.5,0.5,1.5,1.1v1.1
					C552.4,110.7,551.7,111.2,550.9,111.2z"/>
			</g>
			<g>
				<path class="st1" d="M550.9,105.3c-0.8,0-1.5-0.5-1.5-1.1v-2.4c0-0.6,0.7-1.1,1.5-1.1c0.8,0,1.5,0.5,1.5,1.1v2.4
					C552.4,104.8,551.7,105.3,550.9,105.3z M550.9,98.1c-0.8,0-1.5-0.5-1.5-1.1v-2.4c0-0.6,0.7-1.1,1.5-1.1c0.8,0,1.5,0.5,1.5,1.1
					V97C552.4,97.6,551.7,98.1,550.9,98.1z M550.9,91c-0.8,0-1.5-0.5-1.5-1.1v-2.4c0-0.6,0.7-1.1,1.5-1.1c0.8,0,1.5,0.5,1.5,1.1v2.4
					C552.4,90.5,551.7,91,550.9,91z M550.9,83.8c-0.8,0-1.5-0.5-1.5-1.1v-2.4c0-0.6,0.7-1.1,1.5-1.1c0.8,0,1.5,0.5,1.5,1.1v2.4
					C552.4,83.3,551.7,83.8,550.9,83.8z M550.9,76.7c-0.8,0-1.5-0.5-1.5-1.1v-2.4c0-0.6,0.7-1.1,1.5-1.1c0.8,0,1.5,0.5,1.5,1.1v2.4
					C552.4,76.1,551.7,76.7,550.9,76.7z M550.9,69.5c-0.8,0-1.5-0.5-1.5-1.1V66c0-0.6,0.7-1.1,1.5-1.1c0.8,0,1.5,0.5,1.5,1.1v2.4
					C552.4,69,551.7,69.5,550.9,69.5z"/>
			</g>
			<g>
				<path class="st1" d="M550.9,62.3c-0.8,0-1.5-0.5-1.5-1.1V60c0-0.6,0.7-1.1,1.5-1.1c0.8,0,1.5,0.5,1.5,1.1v1.1
					C552.4,61.8,551.7,62.3,550.9,62.3z"/>
			</g>
		</g>
		<g>
			<g>
				<path class="st1" d="M560.6,95.9c-0.8,0-1.5-0.5-1.5-1.1v-1.1c0-0.6,0.7-1.1,1.5-1.1c0.8,0,1.5,0.5,1.5,1.1v1.1
					C562.2,95.4,561.5,95.9,560.6,95.9z"/>
			</g>
			<g>
				<path class="st1" d="M560.6,90.5c-0.8,0-1.5-0.5-1.5-1.1v-2.1c0-0.6,0.7-1.1,1.5-1.1c0.8,0,1.5,0.5,1.5,1.1v2.1
					C562.2,90,561.5,90.5,560.6,90.5z M560.6,84.1c-0.8,0-1.5-0.5-1.5-1.1v-2.1c0-0.6,0.7-1.1,1.5-1.1c0.8,0,1.5,0.5,1.5,1.1V83
					C562.2,83.5,561.5,84.1,560.6,84.1z"/>
			</g>
			<g>
				<path class="st1" d="M560.6,77.6c-0.8,0-1.5-0.5-1.5-1.1v-1.1c0-0.6,0.7-1.1,1.5-1.1c0.8,0,1.5,0.5,1.5,1.1v1.1
					C562.2,77.1,561.5,77.6,560.6,77.6z"/>
			</g>
		</g>
		<g>
			<g>
				<path class="st1" d="M570.4,104.3c-0.8,0-1.5-0.5-1.5-1.1V102c0-0.6,0.7-1.1,1.5-1.1c0.8,0,1.5,0.5,1.5,1.1v1.1
					C571.9,103.8,571.2,104.3,570.4,104.3z"/>
			</g>
			<g>
				<path class="st1" d="M570.4,98.3c-0.8,0-1.5-0.5-1.5-1.1v-2.4c0-0.6,0.7-1.1,1.5-1.1c0.8,0,1.5,0.5,1.5,1.1v2.4
					C571.9,97.8,571.2,98.3,570.4,98.3z M570.4,91c-0.8,0-1.5-0.5-1.5-1.1v-2.4c0-0.6,0.7-1.1,1.5-1.1c0.8,0,1.5,0.5,1.5,1.1v2.4
					C571.9,90.5,571.2,91,570.4,91z M570.4,83.8c-0.8,0-1.5-0.5-1.5-1.1v-2.4c0-0.6,0.7-1.1,1.5-1.1c0.8,0,1.5,0.5,1.5,1.1v2.4
					C571.9,83.3,571.2,83.8,570.4,83.8z M570.4,76.5c-0.8,0-1.5-0.5-1.5-1.1V73c0-0.6,0.7-1.1,1.5-1.1c0.8,0,1.5,0.5,1.5,1.1v2.4
					C571.9,76,571.2,76.5,570.4,76.5z"/>
			</g>
			<g>
				<path class="st1" d="M570.4,69.3c-0.8,0-1.5-0.5-1.5-1.1V67c0-0.6,0.7-1.1,1.5-1.1c0.8,0,1.5,0.5,1.5,1.1v1.1
					C571.9,68.8,571.2,69.3,570.4,69.3z"/>
			</g>
		</g>
		<g>
			<g>
				<path class="st1" d="M580.1,94.5c-0.8,0-1.5-0.5-1.5-1.1v-1.1c0-0.6,0.7-1.1,1.5-1.1c0.8,0,1.5,0.5,1.5,1.1v1.1
					C581.7,94,581,94.5,580.1,94.5z"/>
			</g>
			<g>
				<path class="st1" d="M580.1,87.6c-0.8,0-1.5-0.5-1.5-1.1v-2.9c0-0.6,0.7-1.1,1.5-1.1c0.8,0,1.5,0.5,1.5,1.1v2.9
					C581.7,87.1,581,87.6,580.1,87.6z"/>
			</g>
			<g>
				<path class="st1" d="M580.1,79c-0.8,0-1.5-0.5-1.5-1.1v-1.1c0-0.6,0.7-1.1,1.5-1.1c0.8,0,1.5,0.5,1.5,1.1v1.1
					C581.7,78.5,581,79,580.1,79z"/>
			</g>
		</g>
		<g>
			<g>
				<path class="st1" d="M589.8,90.4c-0.8,0-1.5-0.5-1.5-1.1v-1.1c0-0.6,0.7-1.1,1.5-1.1c0.8,0,1.5,0.5,1.5,1.1v1.1
					C591.4,89.9,590.8,90.4,589.8,90.4z"/>
			</g>
			<g>
				<path class="st1" d="M589.8,86.8c-0.8,0-1.5-0.5-1.5-1.1v-1.2c0-0.6,0.7-1.1,1.5-1.1c0.8,0,1.5,0.5,1.5,1.1v1.2
					C591.4,86.3,590.8,86.8,589.8,86.8z"/>
			</g>
			<g>
				<path class="st1" d="M589.8,83.2c-0.8,0-1.5-0.5-1.5-1.1V81c0-0.6,0.7-1.1,1.5-1.1c0.8,0,1.5,0.5,1.5,1.1v1
					C591.4,82.7,590.8,83.2,589.8,83.2z"/>
			</g>
		</g>
		<g>
			<g>
				<path class="st1" d="M491.1,111.2c-0.8,0-1.5-0.5-1.5-1.1V109c0-0.6,0.7-1.1,1.5-1.1s1.5,0.5,1.5,1.1v1.1
					C492.6,110.7,491.9,111.2,491.1,111.2z"/>
			</g>
			<g>
				<path class="st1" d="M491.1,105.3c-0.8,0-1.5-0.5-1.5-1.1v-2.4c0-0.6,0.7-1.1,1.5-1.1s1.5,0.5,1.5,1.1v2.4
					C492.6,104.8,491.9,105.3,491.1,105.3z M491.1,98.1c-0.8,0-1.5-0.5-1.5-1.1v-2.4c0-0.6,0.7-1.1,1.5-1.1s1.5,0.5,1.5,1.1V97
					C492.6,97.6,491.9,98.1,491.1,98.1z M491.1,91c-0.8,0-1.5-0.5-1.5-1.1v-2.4c0-0.6,0.7-1.1,1.5-1.1s1.5,0.5,1.5,1.1v2.4
					C492.6,90.5,491.9,91,491.1,91z M491.1,83.8c-0.8,0-1.5-0.5-1.5-1.1v-2.4c0-0.6,0.7-1.1,1.5-1.1s1.5,0.5,1.5,1.1v2.4
					C492.6,83.3,491.9,83.8,491.1,83.8z M491.1,76.7c-0.8,0-1.5-0.5-1.5-1.1v-2.4c0-0.6,0.7-1.1,1.5-1.1s1.5,0.5,1.5,1.1v2.4
					C492.6,76.1,491.9,76.7,491.1,76.7z M491.1,69.5c-0.8,0-1.5-0.5-1.5-1.1V66c0-0.6,0.7-1.1,1.5-1.1s1.5,0.5,1.5,1.1v2.4
					C492.6,69,491.9,69.5,491.1,69.5z"/>
			</g>
			<g>
				<path class="st1" d="M491.1,62.3c-0.8,0-1.5-0.5-1.5-1.1V60c0-0.6,0.7-1.1,1.5-1.1s1.5,0.5,1.5,1.1v1.1
					C492.6,61.8,491.9,62.3,491.1,62.3z"/>
			</g>
		</g>
		<g>
			<g>
				<path class="st1" d="M500.9,97.3c-0.8,0-1.5-0.5-1.5-1.1V95c0-0.6,0.7-1.1,1.5-1.1c0.8,0,1.5,0.5,1.5,1.1v1.1
					C502.4,96.8,501.7,97.3,500.9,97.3z"/>
			</g>
			<g>
				<path class="st1" d="M500.9,91.2c-0.8,0-1.5-0.5-1.5-1.1v-2.5c0-0.6,0.7-1.1,1.5-1.1c0.8,0,1.5,0.5,1.5,1.1v2.5
					C502.4,90.7,501.7,91.2,500.9,91.2z M500.9,83.7c-0.8,0-1.5-0.5-1.5-1.1v-2.5c0-0.6,0.7-1.1,1.5-1.1c0.8,0,1.5,0.5,1.5,1.1v2.5
					C502.4,83.2,501.7,83.7,500.9,83.7z"/>
			</g>
			<g>
				<path class="st1" d="M500.9,76.2c-0.8,0-1.5-0.5-1.5-1.1V74c0-0.6,0.7-1.1,1.5-1.1c0.8,0,1.5,0.5,1.5,1.1v1.1
					C502.4,75.7,501.7,76.2,500.9,76.2z"/>
			</g>
		</g>
	</g>
</g>
</svg>
