<?xml version="1.0" encoding="utf-8"?>
<!-- Generator: Adobe Illustrator 20.0.0, SVG Export Plug-In . SVG Version: 6.00 Build 0)  -->
<svg version="1.1" id="Layer_1" xmlns="http://www.w3.org/2000/svg" xmlns:xlink="http://www.w3.org/1999/xlink" x="0px" y="0px"
	 viewBox="0 0 100 60" style="enable-background:new 0 0 100 60;" xml:space="preserve">
<style type="text/css">
	.st0{opacity:0.7;fill:#FFFFFF;}
	.st1{opacity:0.9;fill:#FFFFFF;}
</style>
<path class="st0" d="M82.2,25.2c-0.7-0.3-1.8-0.7-3-1.1c-1.2-0.4-2.7-0.7-4.3-0.9c-0.7-0.1-1.4-0.2-2.1-0.2
	c-0.1-0.7-0.1-1.4-0.2-2.1c-0.2-1.6-0.5-3-0.9-4.3c-0.4-1.2-0.8-2.3-1.1-3c-0.2-0.4-0.3-0.6-0.4-0.8c-0.1-0.2-0.2-0.3-0.2-0.3
	s-0.1,0.1-0.2,0.3c-0.1,0.2-0.3,0.5-0.4,0.8c-0.3,0.7-0.7,1.8-1.1,3c-0.4,1.2-0.7,2.7-0.9,4.3c-0.1,0.7-0.2,1.4-0.2,2.1
	c-0.7,0.1-1.4,0.1-2.1,0.2c-1.6,0.2-3,0.5-4.3,0.9c-1.2,0.4-2.3,0.8-3,1.1c-0.4,0.2-0.6,0.3-0.8,0.4c-0.2,0.1-0.3,0.2-0.3,0.2
	s0.1,0.1,0.3,0.2c0.2,0.1,0.5,0.3,0.8,0.4c0.7,0.3,1.8,0.7,3,1.1c1.2,0.4,2.7,0.7,4.3,0.9c0.7,0.1,1.4,0.2,2.1,0.2
	c0.1,0.7,0.1,1.4,0.2,2.1c0.2,1.6,0.5,3,0.9,4.3c0.4,1.2,0.8,2.3,1.1,3c0.2,0.4,0.3,0.6,0.4,0.8C70,39,70,39.1,70,39.1
	s0.1-0.1,0.2-0.3c0.1-0.2,0.3-0.5,0.4-0.8c0.3-0.7,0.7-1.8,1.1-3c0.4-1.2,0.7-2.7,0.9-4.3c0.1-0.7,0.2-1.4,0.2-2.1
	c0.7-0.1,1.4-0.1,2.1-0.2c1.6-0.2,3-0.5,4.3-0.9c1.2-0.4,2.3-0.8,3-1.1c0.4-0.2,0.6-0.3,0.8-0.4c0.2-0.1,0.3-0.2,0.3-0.2
	s-0.1-0.1-0.3-0.2C82.8,25.5,82.6,25.3,82.2,25.2z"/>
<path class="st1" d="M89.7,13c-0.4-0.2-1-0.4-1.7-0.6c-0.7-0.2-1.5-0.4-2.4-0.5c-0.4-0.1-0.8-0.1-1.2-0.1c0-0.4-0.1-0.8-0.1-1.2
	c-0.1-0.9-0.3-1.7-0.5-2.4c-0.2-0.7-0.4-1.3-0.6-1.7C83,6.2,82.9,6.1,82.9,6c-0.1-0.1-0.1-0.2-0.1-0.2s0,0.1-0.1,0.2
	c-0.1,0.1-0.1,0.3-0.2,0.5c-0.2,0.4-0.4,1-0.6,1.7c-0.2,0.7-0.4,1.5-0.5,2.4c-0.1,0.4-0.1,0.8-0.1,1.2c-0.4,0-0.8,0.1-1.2,0.1
	c-0.9,0.1-1.7,0.3-2.4,0.5c-0.7,0.2-1.3,0.4-1.7,0.6c-0.2,0.1-0.4,0.2-0.5,0.2c-0.1,0.1-0.2,0.1-0.2,0.1s0.1,0,0.2,0.1
	c0.1,0.1,0.3,0.1,0.5,0.2c0.4,0.2,1,0.4,1.7,0.6c0.7,0.2,1.5,0.4,2.4,0.5c0.4,0.1,0.8,0.1,1.2,0.1c0,0.4,0.1,0.8,0.1,1.2
	c0.1,0.9,0.3,1.7,0.5,2.4c0.2,0.7,0.4,1.3,0.6,1.7c0.1,0.2,0.2,0.4,0.2,0.5c0.1,0.1,0.1,0.2,0.1,0.2s0-0.1,0.1-0.2
	c0.1-0.1,0.1-0.3,0.2-0.5c0.2-0.4,0.4-1,0.6-1.7c0.2-0.7,0.4-1.5,0.5-2.4c0.1-0.4,0.1-0.8,0.1-1.2c0.4,0,0.8-0.1,1.2-0.1
	c0.9-0.1,1.7-0.3,2.4-0.5c0.7-0.2,1.3-0.4,1.7-0.6c0.2-0.1,0.4-0.2,0.5-0.2c0.1-0.1,0.2-0.1,0.2-0.1s-0.1,0-0.2-0.1
	C90,13.1,89.9,13.1,89.7,13z"/>
<path class="st1" d="M92.6,46.3c-0.3-0.1-0.7-0.3-1.2-0.4c-0.5-0.1-1-0.3-1.6-0.3c-0.3,0-0.5-0.1-0.8-0.1c0-0.3,0-0.5-0.1-0.8
	c-0.1-0.6-0.2-1.2-0.3-1.6c-0.1-0.5-0.3-0.9-0.4-1.2c-0.1-0.1-0.1-0.2-0.2-0.3c0-0.1-0.1-0.1-0.1-0.1s0,0-0.1,0.1
	c0,0.1-0.1,0.2-0.2,0.3c-0.1,0.3-0.3,0.7-0.4,1.2c-0.1,0.5-0.3,1-0.3,1.6c0,0.3-0.1,0.5-0.1,0.8c-0.3,0-0.6,0-0.8,0.1
	c-0.6,0.1-1.2,0.2-1.6,0.3c-0.5,0.1-0.9,0.3-1.2,0.4c-0.1,0.1-0.2,0.1-0.3,0.2c-0.1,0-0.1,0.1-0.1,0.1s0,0,0.1,0.1
	c0.1,0,0.2,0.1,0.3,0.2c0.3,0.1,0.7,0.3,1.2,0.4c0.5,0.1,1,0.3,1.6,0.3c0.3,0,0.5,0.1,0.8,0.1c0,0.3,0,0.6,0.1,0.8
	c0.1,0.6,0.2,1.2,0.3,1.6c0.1,0.5,0.3,0.9,0.4,1.2c0.1,0.1,0.1,0.2,0.2,0.3c0,0.1,0.1,0.1,0.1,0.1s0,0,0.1-0.1
	c0-0.1,0.1-0.2,0.2-0.3c0.1-0.3,0.3-0.7,0.4-1.2c0.1-0.5,0.3-1,0.3-1.6c0-0.3,0.1-0.5,0.1-0.8c0.3,0,0.5,0,0.8-0.1
	c0.6-0.1,1.2-0.2,1.6-0.3c0.5-0.1,0.9-0.3,1.2-0.4c0.1-0.1,0.2-0.1,0.3-0.2c0.1,0,0.1-0.1,0.1-0.1s0,0-0.1-0.1
	C92.8,46.5,92.7,46.4,92.6,46.3z"/>
<path class="st1" d="M47.1,8c-0.3-0.1-0.7-0.3-1.2-0.4c-0.5-0.1-1-0.3-1.6-0.3c-0.3,0-0.5-0.1-0.8-0.1c0-0.3,0-0.5-0.1-0.8
	c-0.1-0.6-0.2-1.2-0.3-1.6c-0.1-0.5-0.3-0.9-0.4-1.2c-0.1-0.1-0.1-0.2-0.2-0.3c0-0.1-0.1-0.1-0.1-0.1s0,0-0.1,0.1
	c0,0.1-0.1,0.2-0.2,0.3c-0.1,0.3-0.3,0.7-0.4,1.2c-0.1,0.5-0.3,1-0.3,1.6c0,0.3-0.1,0.5-0.1,0.8c-0.3,0-0.6,0-0.8,0.1
	c-0.6,0.1-1.2,0.2-1.6,0.3C38.4,7.7,38,7.8,37.7,8c-0.1,0.1-0.2,0.1-0.3,0.2c-0.1,0-0.1,0.1-0.1,0.1s0,0,0.1,0.1
	c0.1,0,0.2,0.1,0.3,0.2c0.3,0.1,0.7,0.3,1.2,0.4c0.5,0.1,1,0.3,1.6,0.3c0.3,0,0.5,0.1,0.8,0.1c0,0.3,0,0.6,0.1,0.8
	c0.1,0.6,0.2,1.2,0.3,1.6c0.1,0.5,0.3,0.9,0.4,1.2c0.1,0.1,0.1,0.2,0.2,0.3c0,0.1,0.1,0.1,0.1,0.1s0,0,0.1-0.1
	c0-0.1,0.1-0.2,0.2-0.3c0.1-0.3,0.3-0.7,0.4-1.2c0.1-0.5,0.3-1,0.3-1.6c0-0.3,0.1-0.5,0.1-0.8c0.3,0,0.5,0,0.8-0.1
	c0.6-0.1,1.2-0.2,1.6-0.3c0.5-0.1,0.9-0.3,1.2-0.4c0.1-0.1,0.2-0.1,0.3-0.2c0.1,0,0.1-0.1,0.1-0.1s0,0-0.1-0.1
	C47.3,8.1,47.2,8,47.1,8z"/>
</svg>
