<?xml version="1.0" encoding="utf-8"?>
<!-- Generator: Adobe Illustrator 20.0.0, SVG Export Plug-In . SVG Version: 6.00 Build 0)  -->
<svg version="1.1" id="Layer_1" xmlns="http://www.w3.org/2000/svg" xmlns:xlink="http://www.w3.org/1999/xlink" x="0px" y="0px"
	 viewBox="0 0 500 400" style="enable-background:new 0 0 500 400;" xml:space="preserve">
<style type="text/css">
	.st0{opacity:0.45;}
	.st1{fill:none;stroke:#FFFFFF;stroke-width:0.75;stroke-miterlimit:10;}
	.st2{fill:none;stroke:#FDFDFD;stroke-width:0.75;stroke-miterlimit:10;}
	.st3{fill:none;stroke:#FCFCFB;stroke-width:0.75;stroke-miterlimit:10;}
	.st4{fill:none;stroke:#FAFAFA;stroke-width:0.75;stroke-miterlimit:10;}
	.st5{fill:none;stroke:#F9F8F8;stroke-width:0.75;stroke-miterlimit:10;}
	.st6{fill:none;stroke:#F7F6F6;stroke-width:0.75;stroke-miterlimit:10;}
	.st7{fill:none;stroke:#F5F5F4;stroke-width:0.75;stroke-miterlimit:10;}
	.st8{fill:none;stroke:#F4F3F2;stroke-width:0.75;stroke-miterlimit:10;}
	.st9{fill:none;stroke:#F2F1F1;stroke-width:0.75;stroke-miterlimit:10;}
	.st10{fill:none;stroke:#F0F0EF;stroke-width:0.75;stroke-miterlimit:10;}
	.st11{fill:none;stroke:#EFEEED;stroke-width:0.75;stroke-miterlimit:10;}
	.st12{fill:none;stroke:#EDECEB;stroke-width:0.75;stroke-miterlimit:10;}
	.st13{fill:none;stroke:#ECEAE9;stroke-width:0.75;stroke-miterlimit:10;}
	.st14{fill:none;stroke:#EAE9E7;stroke-width:0.75;stroke-miterlimit:10;}
	.st15{fill:none;stroke:#E8E7E6;stroke-width:0.75;stroke-miterlimit:10;}
	.st16{fill:none;stroke:#E7E5E4;stroke-width:0.75;stroke-miterlimit:10;}
	.st17{fill:none;stroke:#E5E4E2;stroke-width:0.75;stroke-miterlimit:10;}
	.st18{fill:none;stroke:#E3E2E0;stroke-width:0.75;stroke-miterlimit:10;}
	.st19{fill:none;stroke:#E2E0DE;stroke-width:0.75;stroke-miterlimit:10;}
	.st20{fill:none;stroke:#E0DEDD;stroke-width:0.75;stroke-miterlimit:10;}
	.st21{fill:none;stroke:#DFDDDB;stroke-width:0.75;stroke-miterlimit:10;}
	.st22{fill:none;stroke:#DDDBD9;stroke-width:0.75;stroke-miterlimit:10;}
	.st23{fill:#FFFFFF;}
</style>
<g class="st0">
	<polyline class="st1" points="281,-0.5 134.2,156.9 180.8,206.8 0,400.5 	"/>
	<polyline class="st2" points="291.3,-0.5 144.4,156.9 191,206.8 10.2,400.5 	"/>
	<polyline class="st3" points="301.5,-0.5 154.6,156.9 201.2,206.8 20.4,400.5 	"/>
	<polyline class="st4" points="311.7,-0.5 164.9,156.9 211.5,206.8 30.7,400.5 	"/>
	<polyline class="st5" points="321.9,-0.5 175.1,156.9 221.7,206.8 40.9,400.5 	"/>
	<polyline class="st6" points="332.2,-0.5 185.3,156.9 231.9,206.8 51.1,400.5 	"/>
	<polyline class="st7" points="342.4,-0.5 195.5,156.9 242.1,206.8 61.3,400.5 	"/>
	<polyline class="st8" points="352.6,-0.5 205.8,156.9 252.3,206.8 71.6,400.5 	"/>
	<polyline class="st9" points="362.8,-0.5 216,156.9 262.6,206.8 81.8,400.5 	"/>
	<polyline class="st10" points="373.1,-0.5 226.2,156.9 272.8,206.8 92,400.5 	"/>
	<polyline class="st11" points="383.3,-0.5 236.4,156.9 283,206.8 102.2,400.5 	"/>
	<polyline class="st12" points="393.5,-0.5 246.7,156.9 293.2,206.8 112.5,400.5 	"/>
	<polyline class="st13" points="403.7,-0.5 256.9,156.9 303.5,206.8 122.7,400.5 	"/>
	<polyline class="st14" points="414,-0.5 267.1,156.9 313.7,206.8 132.9,400.5 	"/>
	<polyline class="st15" points="424.2,-0.5 277.3,156.9 323.9,206.8 143.1,400.5 	"/>
	<polyline class="st16" points="434.4,-0.5 287.6,156.9 334.1,206.8 153.4,400.5 	"/>
	<polyline class="st17" points="444.6,-0.5 297.8,156.9 344.4,206.8 163.6,400.5 	"/>
	<polyline class="st18" points="454.9,-0.5 308,156.9 354.6,206.8 173.8,400.5 	"/>
	<polyline class="st19" points="465.1,-0.5 318.2,156.9 364.8,206.8 184,400.5 	"/>
	<polyline class="st20" points="475.3,-0.5 328.4,156.9 375,206.8 194.3,400.5 	"/>
	<polyline class="st21" points="485.5,-0.5 338.7,156.9 385.3,206.8 204.5,400.5 	"/>
	<polyline class="st22" points="495.7,-0.5 348.9,156.9 395.5,206.8 214.7,400.5 	"/>
</g>
<g class="st0">
	<path class="st23" d="M401,299c-0.1,0-0.3-0.1-0.4-0.2c-0.2-0.2-0.2-0.6,0-0.8l84.6-90.6c0.2-0.2,0.5-0.2,0.7,0s0.2,0.6,0,0.8
		l-84.6,90.6C401.2,298.9,401.1,299,401,299z"/>
</g>
<g class="st0">
	<path class="st23" d="M51.8,144c-0.1,0-0.3-0.1-0.4-0.2c-0.2-0.2-0.2-0.6,0-0.8l92.9-99.5c0.2-0.2,0.5-0.2,0.7,0s0.2,0.6,0,0.8
		l-92.9,99.5C52.1,144,52,144,51.8,144z"/>
</g>
<g class="st0">
	<path class="st23" d="M435.1,102.1c-0.1,0-0.3-0.1-0.4-0.2c-0.2-0.2-0.2-0.6,0-0.8l24.7-26.4c0.2-0.2,0.5-0.2,0.7,0s0.2,0.6,0,0.8
		l-24.7,26.4C435.3,102,435.2,102.1,435.1,102.1z"/>
</g>
<g class="st0">
	<path class="st23" d="M53.6,306.9c-0.1,0-0.3-0.1-0.4-0.2c-0.2-0.2-0.2-0.6,0-0.8l82.6-88.5c0.2-0.2,0.5-0.2,0.7,0s0.2,0.6,0,0.8
		l-82.6,88.5C53.8,306.8,53.7,306.9,53.6,306.9z"/>
</g>
<g class="st0">
	<path class="st23" d="M302,342c-0.1,0-0.3-0.1-0.4-0.2c-0.2-0.2-0.2-0.6,0-0.8l57.6-61.8c0.2-0.2,0.5-0.2,0.7,0s0.2,0.6,0,0.8
		l-57.6,61.8C302.2,342,302.1,342,302,342z"/>
</g>
</svg>
