<?xml version="1.0" encoding="utf-8"?>
<!-- Generator: Adobe Illustrator 20.0.0, SVG Export Plug-In . SVG Version: 6.00 Build 0)  -->
<svg version="1.1" id="Layer_1" xmlns="http://www.w3.org/2000/svg" xmlns:xlink="http://www.w3.org/1999/xlink" x="0px" y="0px"
	 viewBox="0 0 100 100" style="enable-background:new 0 0 100 100;" xml:space="preserve">
<style type="text/css">
	.st0{fill-rule:evenodd;clip-rule:evenodd;fill:#FFFFFF;}
</style>
<path class="st0" d="M60.3,69.2L60.3,69.2c0-6.3,5.1-11.3,11.3-11.3c0.7,0,1.2,0,1.8,0.1c0.5,0.1,1.2-0.1,1.6-0.4
	c0.5-0.5,0.8-1.2,0.8-1.7V30.8c0-0.7-0.3-1.2-0.7-1.7c-0.5-0.4-1.1-0.5-1.7-0.4l-32,3.6c-1.1,0.1-1.8,1.1-1.8,2.1v40.1
	c0,0,0,0,0,0.1c-0.3,5.9-5.3,10.9-11.3,10.9C22,85.5,17,80.4,17,74.2c0-6.2,5-11.3,11.3-11.3c0.4,0,1.1,0,1.6,0
	c0.7,0.1,1.2,0,1.7-0.4c0.5-0.4,0.8-0.9,0.8-1.6V20.1L83,14.5v55.1c-0.3,6-5.3,10.9-11.4,10.9C65.4,80.5,60.3,75.5,60.3,69.2
	L60.3,69.2z"/>
</svg>
