<?xml version="1.0" encoding="utf-8"?>
<!-- Generator: Adobe Illustrator 20.0.0, SVG Export Plug-In . SVG Version: 6.00 Build 0)  -->
<svg version="1.1" id="Layer_1" xmlns="http://www.w3.org/2000/svg" xmlns:xlink="http://www.w3.org/1999/xlink" x="0px" y="0px"
	 viewBox="0 0 110 110" style="enable-background:new 0 0 110 110;" xml:space="preserve">
<style type="text/css">
	.st0{fill:#1A3D82;}
</style>
<path class="st0" d="M99.1,77.7l-4.6-2.6c0-0.5,0.2-0.7,0.2-1.1V35.4c0-4.9-3.9-8.8-8.8-8.8H32.1c-4.9,0-8.8,3.9-8.8,8.8v0.2
	l-9.8-5.4c-1.5-0.7-3.3-0.2-3.9,1.1c-0.7,1.5-0.2,3.3,1.1,3.9l12.6,7v31.9c0,4.9,3.9,8.8,8.8,8.8h53.8c2.3,0,4.4-1,6-2.6l4.4,2.6
	c0.5,0.2,1,0.5,1.5,0.5c1,0,2.1-0.5,2.6-1.5C101.2,80.3,100.5,78.7,99.1,77.7z M61.1,56.5l8.1-8.8l19.6,18.4v6L61.1,56.5z
	 M29.1,35.5c0-1.6,1.5-2.9,2.9-2.9h53.8c1.6,0,2.9,1.5,2.9,2.9v22.8L70.7,41.6c-0.5-0.5-1.5-0.7-2.1-0.7s-1.5,0.5-2.1,1L55.4,53.9
	l-3.6-2.3c3.4-1.1,6-4.6,6-8.5c0-5.1-4.2-9-9-9c-4.9,0-9,4.2-9,9c0,0.7,0,1.1,0.2,1.8L29,38.8v-3.3H29.1z M45.6,43.2
	c0-1.8,1.5-3.3,3.3-3.3s3.3,1.5,3.3,3.3s-1.5,3.3-3.3,3.3S45.6,45,45.6,43.2z M51.8,58.2l-1,1.1l-10.1-5.5c-1.1-0.7-2.6-0.5-3.4,0.5
	l-8.1,8.5V45.5L51.8,58.2z M86,77.1H32.2c-1.6,0-2.9-1.5-2.9-2.9v-2.9l10.6-11.6L50,65.2c1.1,0.7,2.6,0.5,3.4-0.5l3.4-3.7L86,77.1
	L86,77.1z"/>
</svg>
