<?xml version="1.0" encoding="utf-8"?>
<!-- Generator: Adobe Illustrator 20.0.0, SVG Export Plug-In . SVG Version: 6.00 Build 0)  -->
<svg version="1.1" id="Layer_1" xmlns="http://www.w3.org/2000/svg" xmlns:xlink="http://www.w3.org/1999/xlink" x="0px" y="0px"
	 viewBox="0 0 500 300" style="enable-background:new 0 0 500 300;" xml:space="preserve">
<style type="text/css">
	.st0{fill:#1A3D82;}
</style>
<g>
	<path class="st0" d="M196.2,174.6v-7.1h1.2v7.1H196.2z"/>
	<path class="st0" d="M203.7,174.6h-1.2v-3.3c0-0.4-0.1-0.7-0.2-0.9c-0.2-0.2-0.4-0.3-0.7-0.3c-0.4,0-0.8,0.1-1,0.4
		c-0.2,0.3-0.3,0.8-0.3,1.4v2.7h-1.1v-5.4h0.9l0.2,0.7h0.1c0.1-0.3,0.4-0.5,0.7-0.6s0.6-0.2,0.9-0.2c0.8,0,1.4,0.3,1.7,0.8h0.1
		c0.2-0.3,0.4-0.5,0.7-0.6s0.6-0.2,1-0.2c0.6,0,1.1,0.2,1.4,0.5s0.4,0.8,0.4,1.5v3.5h-1.1v-3.3c0-0.4-0.1-0.7-0.2-0.9
		c-0.2-0.2-0.4-0.3-0.7-0.3c-0.4,0-0.8,0.1-1,0.4c-0.2,0.3-0.3,0.7-0.3,1.3V174.6z"/>
	<path class="st0" d="M212.1,174.6l-0.2-0.8h0c-0.3,0.3-0.5,0.6-0.8,0.7c-0.3,0.1-0.6,0.2-1,0.2c-0.5,0-0.9-0.1-1.2-0.4
		s-0.4-0.7-0.4-1.2c0-0.6,0.2-1,0.6-1.3s1-0.4,1.9-0.5l0.9,0V171c0-0.3-0.1-0.6-0.2-0.8c-0.2-0.2-0.4-0.3-0.7-0.3
		c-0.3,0-0.5,0-0.8,0.1s-0.5,0.2-0.7,0.3l-0.4-0.8c0.3-0.2,0.6-0.3,1-0.3c0.3-0.1,0.7-0.1,1-0.1c0.7,0,1.2,0.1,1.6,0.4
		s0.5,0.8,0.5,1.4v3.6H212.1z M210.4,173.8c0.4,0,0.8-0.1,1-0.3c0.3-0.2,0.4-0.6,0.4-1V172l-0.7,0c-0.5,0-0.9,0.1-1.2,0.3
		c-0.2,0.2-0.4,0.4-0.4,0.7c0,0.2,0.1,0.4,0.2,0.6C209.9,173.8,210.1,173.8,210.4,173.8z"/>
	<path class="st0" d="M219.1,169.2v0.6l-0.9,0.2c0.1,0.1,0.2,0.3,0.2,0.4s0.1,0.3,0.1,0.5c0,0.6-0.2,1-0.6,1.3s-0.9,0.5-1.6,0.5
		c-0.2,0-0.3,0-0.5,0c-0.2,0.2-0.4,0.3-0.4,0.5c0,0.1,0.1,0.2,0.2,0.3s0.3,0.1,0.6,0.1h0.9c0.6,0,1,0.1,1.4,0.4s0.5,0.6,0.5,1.1
		c0,0.6-0.3,1.1-0.8,1.4S217,177,216,177c-0.7,0-1.3-0.1-1.7-0.4s-0.6-0.6-0.6-1.1c0-0.3,0.1-0.6,0.3-0.8c0.2-0.2,0.5-0.4,0.9-0.5
		c-0.2-0.1-0.3-0.2-0.4-0.3c-0.1-0.1-0.1-0.3-0.1-0.5c0-0.2,0.1-0.4,0.2-0.5s0.3-0.3,0.5-0.4c-0.3-0.1-0.5-0.3-0.7-0.6
		c-0.2-0.3-0.3-0.6-0.3-1c0-0.6,0.2-1,0.6-1.4s0.9-0.5,1.6-0.5c0.2,0,0.3,0,0.5,0c0.2,0,0.3,0,0.4,0.1H219.1z M214.8,175.4
		c0,0.2,0.1,0.4,0.3,0.6s0.5,0.2,0.9,0.2c0.6,0,1.1-0.1,1.4-0.3s0.5-0.4,0.5-0.7c0-0.2-0.1-0.4-0.3-0.5c-0.2-0.1-0.5-0.1-0.9-0.1
		h-0.9c-0.3,0-0.6,0.1-0.8,0.2C214.9,175,214.8,175.2,214.8,175.4z M215.3,170.9c0,0.3,0.1,0.6,0.3,0.8s0.4,0.3,0.7,0.3
		c0.7,0,1-0.4,1-1.1c0-0.4-0.1-0.6-0.2-0.8c-0.2-0.2-0.4-0.3-0.7-0.3c-0.3,0-0.6,0.1-0.8,0.3S215.3,170.6,215.3,170.9z"/>
	<path class="st0" d="M222.4,174.7c-0.8,0-1.5-0.2-2-0.7c-0.5-0.5-0.7-1.2-0.7-2c0-0.9,0.2-1.6,0.7-2.1s1-0.8,1.8-0.8
		c0.7,0,1.3,0.2,1.7,0.6s0.6,1,0.6,1.8v0.6h-3.6c0,0.5,0.2,0.9,0.4,1.2c0.3,0.3,0.6,0.4,1.1,0.4c0.3,0,0.6,0,0.9-0.1
		c0.3-0.1,0.6-0.2,0.9-0.3v0.9c-0.3,0.1-0.6,0.2-0.8,0.3S222.8,174.7,222.4,174.7z M222.2,170c-0.4,0-0.7,0.1-0.9,0.3
		s-0.4,0.6-0.4,1h2.5c0-0.4-0.1-0.8-0.3-1C222.9,170.1,222.6,170,222.2,170z"/>
	<path class="st0" d="M230.6,174.6h-1.2v-3.3c0-0.4-0.1-0.7-0.3-0.9s-0.4-0.3-0.8-0.3c-0.5,0-0.8,0.1-1.1,0.4s-0.3,0.8-0.3,1.4v2.7
		h-1.1v-5.4h0.9l0.2,0.7h0.1c0.2-0.3,0.4-0.5,0.7-0.6s0.6-0.2,1-0.2c1.3,0,1.9,0.7,1.9,2V174.6z"/>
	<path class="st0" d="M239.5,174.6h-1.2v-3.3c0-0.4-0.1-0.7-0.3-0.9c-0.2-0.2-0.4-0.3-0.8-0.3c-0.5,0-0.8,0.1-1.1,0.4
		s-0.3,0.8-0.3,1.4v2.7h-1.1v-5.4h0.9l0.2,0.7h0.1c0.2-0.3,0.4-0.5,0.7-0.6c0.3-0.1,0.6-0.2,1-0.2c1.3,0,1.9,0.7,1.9,2V174.6z"/>
	<path class="st0" d="M245.9,171.9c0,0.9-0.2,1.6-0.7,2.1c-0.5,0.5-1.1,0.7-1.9,0.7c-0.5,0-1-0.1-1.3-0.3c-0.4-0.2-0.7-0.6-0.9-1
		c-0.2-0.4-0.3-0.9-0.3-1.5c0-0.9,0.2-1.6,0.7-2.1s1.1-0.7,1.9-0.7c0.8,0,1.4,0.3,1.9,0.8C245.7,170.4,245.9,171,245.9,171.9z
		 M242,171.9c0,1.2,0.5,1.9,1.4,1.9c0.9,0,1.4-0.6,1.4-1.9c0-1.2-0.5-1.9-1.4-1.9c-0.5,0-0.8,0.2-1,0.5
		C242.1,170.8,242,171.3,242,171.9z"/>
	<path class="st0" d="M252.2,174.7c-0.8,0-1.5-0.2-2-0.7c-0.5-0.5-0.7-1.2-0.7-2c0-0.9,0.2-1.6,0.7-2.1s1-0.8,1.8-0.8
		c0.7,0,1.3,0.2,1.7,0.6s0.6,1,0.6,1.8v0.6h-3.6c0,0.5,0.2,0.9,0.4,1.2c0.3,0.3,0.6,0.4,1.1,0.4c0.3,0,0.6,0,0.9-0.1
		c0.3-0.1,0.6-0.2,0.9-0.3v0.9c-0.3,0.1-0.6,0.2-0.8,0.3C252.9,174.7,252.5,174.7,252.2,174.7z M252,170c-0.4,0-0.7,0.1-0.9,0.3
		s-0.4,0.6-0.4,1h2.5c0-0.4-0.1-0.8-0.3-1C252.6,170.1,252.3,170,252,170z"/>
	<path class="st0" d="M260.3,174.6h-1.2v-3.3c0-0.4-0.1-0.7-0.3-0.9c-0.2-0.2-0.4-0.3-0.8-0.3c-0.5,0-0.8,0.1-1.1,0.4
		s-0.3,0.8-0.3,1.4v2.7h-1.1v-5.4h0.9l0.2,0.7h0.1c0.2-0.3,0.4-0.5,0.7-0.6s0.6-0.2,1-0.2c1.3,0,1.9,0.7,1.9,2V174.6z"/>
	<path class="st0" d="M264.1,174.7c-0.8,0-1.4-0.2-1.9-0.7c-0.4-0.5-0.6-1.2-0.6-2.1c0-0.9,0.2-1.6,0.7-2.1c0.4-0.5,1.1-0.7,1.9-0.7
		c0.6,0,1.1,0.1,1.5,0.3l-0.3,0.9c-0.5-0.2-0.9-0.3-1.2-0.3c-0.9,0-1.4,0.6-1.4,1.9c0,0.6,0.1,1.1,0.3,1.4c0.2,0.3,0.6,0.5,1,0.5
		c0.5,0,1-0.1,1.5-0.4v1c-0.2,0.1-0.4,0.2-0.7,0.3C264.7,174.7,264.4,174.7,264.1,174.7z"/>
	<path class="st0" d="M271.7,171.9c0,0.9-0.2,1.6-0.7,2.1s-1.1,0.7-1.9,0.7c-0.5,0-1-0.1-1.3-0.3s-0.7-0.6-0.9-1s-0.3-0.9-0.3-1.5
		c0-0.9,0.2-1.6,0.7-2.1s1.1-0.7,1.9-0.7c0.8,0,1.4,0.3,1.9,0.8C271.4,170.4,271.7,171,271.7,171.9z M267.7,171.9
		c0,1.2,0.5,1.9,1.4,1.9c0.9,0,1.4-0.6,1.4-1.9c0-1.2-0.5-1.9-1.4-1.9c-0.5,0-0.8,0.2-1,0.5C267.8,170.8,267.7,171.3,267.7,171.9z"
		/>
	<path class="st0" d="M277.7,174.6h-1.2v-3.3c0-0.4-0.1-0.7-0.3-0.9c-0.2-0.2-0.4-0.3-0.8-0.3c-0.5,0-0.8,0.1-1.1,0.4
		s-0.3,0.8-0.3,1.4v2.7H273v-5.4h0.9l0.2,0.7h0.1c0.2-0.3,0.4-0.5,0.7-0.6s0.6-0.2,1-0.2c1.3,0,1.9,0.7,1.9,2V174.6z"/>
	<path class="st0" d="M281.3,173.8c0.3,0,0.6,0,0.8-0.1v0.9c-0.1,0.1-0.3,0.1-0.5,0.1c-0.2,0-0.4,0.1-0.6,0.1
		c-1.1,0-1.6-0.6-1.6-1.7v-2.9h-0.7v-0.5l0.8-0.4l0.4-1.1h0.7v1.2h1.5v0.9h-1.5v2.9c0,0.3,0.1,0.5,0.2,0.6
		C280.9,173.7,281.1,173.8,281.3,173.8z"/>
	<path class="st0" d="M286,169.1c0.2,0,0.4,0,0.6,0l-0.1,1.1c-0.2,0-0.3-0.1-0.5-0.1c-0.5,0-0.8,0.1-1.1,0.4
		c-0.3,0.3-0.4,0.7-0.4,1.2v2.8h-1.1v-5.4h0.9l0.2,1h0.1c0.2-0.3,0.4-0.6,0.7-0.8C285.4,169.2,285.7,169.1,286,169.1z"/>
	<path class="st0" d="M290.9,174.6l-0.2-0.8h0c-0.3,0.3-0.5,0.6-0.8,0.7c-0.3,0.1-0.6,0.2-1,0.2c-0.5,0-0.9-0.1-1.2-0.4
		c-0.3-0.3-0.4-0.7-0.4-1.2c0-0.6,0.2-1,0.6-1.3s1-0.4,1.9-0.5l0.9,0V171c0-0.3-0.1-0.6-0.2-0.8c-0.2-0.2-0.4-0.3-0.8-0.3
		c-0.3,0-0.5,0-0.8,0.1s-0.5,0.2-0.7,0.3l-0.4-0.8c0.3-0.2,0.6-0.3,1-0.3c0.3-0.1,0.7-0.1,1-0.1c0.7,0,1.2,0.1,1.6,0.4
		c0.4,0.3,0.5,0.8,0.5,1.4v3.6H290.9z M289.2,173.8c0.4,0,0.8-0.1,1-0.3c0.3-0.2,0.4-0.6,0.4-1V172l-0.7,0c-0.5,0-0.9,0.1-1.2,0.3
		c-0.2,0.2-0.4,0.4-0.4,0.7c0,0.2,0.1,0.4,0.2,0.6C288.7,173.8,289,173.8,289.2,173.8z"/>
	<path class="st0" d="M295.2,174.7c-0.7,0-1.2-0.2-1.6-0.7s-0.6-1.2-0.6-2.1c0-0.9,0.2-1.6,0.6-2.1c0.4-0.5,0.9-0.7,1.6-0.7
		c0.7,0,1.2,0.3,1.6,0.8h0.1c-0.1-0.4-0.1-0.7-0.1-0.9v-2h1.2v7.6h-0.9l-0.2-0.7h-0.1C296.4,174.4,295.9,174.7,295.2,174.7z
		 M295.5,173.8c0.5,0,0.8-0.1,1-0.4c0.2-0.3,0.3-0.7,0.3-1.3v-0.2c0-0.7-0.1-1.2-0.3-1.5s-0.6-0.4-1-0.4c-0.4,0-0.7,0.2-0.9,0.5
		c-0.2,0.3-0.3,0.8-0.3,1.4c0,0.6,0.1,1.1,0.3,1.4C294.8,173.6,295.1,173.8,295.5,173.8z"/>
	<path class="st0" d="M303,174.6l-0.2-0.8h0c-0.3,0.3-0.5,0.6-0.8,0.7c-0.3,0.1-0.6,0.2-1,0.2c-0.5,0-0.9-0.1-1.2-0.4
		c-0.3-0.3-0.4-0.7-0.4-1.2c0-0.6,0.2-1,0.6-1.3s1-0.4,1.9-0.5l0.9,0V171c0-0.3-0.1-0.6-0.2-0.8c-0.2-0.2-0.4-0.3-0.8-0.3
		c-0.3,0-0.5,0-0.8,0.1s-0.5,0.2-0.7,0.3l-0.4-0.8c0.3-0.2,0.6-0.3,1-0.3c0.3-0.1,0.7-0.1,1-0.1c0.7,0,1.2,0.1,1.6,0.4
		c0.4,0.3,0.5,0.8,0.5,1.4v3.6H303z M301.3,173.8c0.4,0,0.8-0.1,1-0.3c0.3-0.2,0.4-0.6,0.4-1V172l-0.7,0c-0.5,0-0.9,0.1-1.2,0.3
		c-0.2,0.2-0.4,0.4-0.4,0.7c0,0.2,0.1,0.4,0.2,0.6C300.8,173.8,301,173.8,301.3,173.8z"/>
</g>
<path class="st0" d="M269.1,149.4l-2-1.1c0-0.2,0.1-0.3,0.1-0.5v-16.8c0-2.1-1.7-3.8-3.8-3.8h-23.3c-2.1,0-3.8,1.7-3.8,3.8v0.1
	l-4.2-2.3c-0.6-0.3-1.4-0.1-1.7,0.5c-0.3,0.6-0.1,1.4,0.5,1.7l5.4,3v13.8c0,2.1,1.7,3.8,3.8,3.8h23.3c1,0,1.9-0.4,2.6-1.1l1.9,1.1
	c0.2,0.1,0.4,0.2,0.6,0.2c0.4,0,0.9-0.2,1.1-0.6C270,150.5,269.7,149.8,269.1,149.4z M252.6,140.2l3.5-3.8l8.5,8v2.6L252.6,140.2z
	 M238.8,131.1c0-0.7,0.6-1.3,1.3-1.3h23.3c0.7,0,1.3,0.6,1.3,1.3v9.9l-7.8-7.3c-0.2-0.2-0.6-0.3-0.9-0.3c-0.3,0-0.6,0.2-0.9,0.4
	l-4.8,5.2l-1.7-0.9c1.5-0.5,2.6-2,2.6-3.7c0-2.2-1.8-3.9-3.9-3.9s-3.9,1.8-3.9,3.9c0,0.3,0,0.5,0.1,0.8l-4.8-2.7V131.1z
	 M245.9,134.4c0-0.8,0.6-1.4,1.4-1.4s1.4,0.6,1.4,1.4s-0.6,1.4-1.4,1.4S245.9,135.2,245.9,134.4z M248.6,140.9l-0.4,0.5l-4.4-2.4
	c-0.5-0.3-1.1-0.2-1.5,0.2l-3.5,3.7v-7.5L248.6,140.9z M263.4,149.1h-23.3c-0.7,0-1.3-0.6-1.3-1.3v-1.3l4.6-5l4.4,2.4
	c0.5,0.3,1.1,0.2,1.5-0.2l1.5-1.6L263.4,149.1C263.4,149.1,263.4,149.1,263.4,149.1z"/>
</svg>
