<?xml version="1.0" encoding="utf-8"?>
<!-- Generator: Adobe Illustrator 20.0.0, SVG Export Plug-In . SVG Version: 6.00 Build 0)  -->
<svg version="1.1" id="Layer_1" xmlns="http://www.w3.org/2000/svg" xmlns:xlink="http://www.w3.org/1999/xlink" x="0px" y="0px"
	 viewBox="0 0 500 300" style="enable-background:new 0 0 500 300;" xml:space="preserve">
<style type="text/css">
	.st0{fill:#1A3D82;}
</style>
<path class="st0" d="M277,164l-2.8-1.6c0-0.3,0.1-0.4,0.1-0.7V138c0-3-2.4-5.4-5.4-5.4h-33c-3,0-5.4,2.4-5.4,5.4v0.1l-6-3.3
	c-0.9-0.4-2-0.1-2.4,0.7c-0.4,0.9-0.1,2,0.7,2.4l7.7,4.3v19.6c0,3,2.4,5.4,5.4,5.4h33c1.4,0,2.7-0.6,3.7-1.6l2.7,1.6
	c0.3,0.1,0.6,0.3,0.9,0.3c0.6,0,1.3-0.3,1.6-0.9C278.3,165.6,277.9,164.6,277,164z M253.7,151l5-5.4l12,11.3v3.7L253.7,151z
	 M234.1,138.1c0-1,0.9-1.8,1.8-1.8h33c1,0,1.8,0.9,1.8,1.8v14l-11.1-10.3c-0.3-0.3-0.9-0.4-1.3-0.4c-0.4,0-0.9,0.3-1.3,0.6l-6.8,7.4
	L248,148c2.1-0.7,3.7-2.8,3.7-5.2c0-3.1-2.6-5.5-5.5-5.5c-3,0-5.5,2.6-5.5,5.5c0,0.4,0,0.7,0.1,1.1l-6.8-3.8v-2H234.1z M244.2,142.8
	c0-1.1,0.9-2,2-2s2,0.9,2,2s-0.9,2-2,2S244.2,143.9,244.2,142.8z M248,152l-0.6,0.7l-6.2-3.4c-0.7-0.4-1.6-0.3-2.1,0.3l-5,5.2v-10.6
	L248,152z M269,163.6h-33c-1,0-1.8-0.9-1.8-1.8v-1.8l6.5-7.1l6.2,3.4c0.7,0.4,1.6,0.3,2.1-0.3l2.1-2.3L269,163.6L269,163.6z"/>
</svg>
