<?xml version="1.0" encoding="utf-8"?>
<!-- Generator: Adobe Illustrator 20.0.0, SVG Export Plug-In . SVG Version: 6.00 Build 0)  -->
<svg version="1.1" id="Capa_1" xmlns="http://www.w3.org/2000/svg" xmlns:xlink="http://www.w3.org/1999/xlink" x="0px" y="0px"
	 viewBox="0 0 99 50" style="enable-background:new 0 0 99 50;" xml:space="preserve">
<style type="text/css">
	.st0{fill:#C0CCD8;}
	.st1{fill:#FFFFFF;}
</style>
<path class="st0" d="M10.4,40.2c-0.8-0.4-1.5-1.1-2-1.9c-1-1.7-1-3.8,0-5.5c0.5-0.8,1.2-1.5,2-1.9c0.9-0.5,1.8-0.7,2.8-0.7
	c0.8,0,1.6,0.1,2.3,0.4c0.7,0.3,1.3,0.7,1.8,1.3l-1.2,1.2c-0.7-0.8-1.7-1.2-2.8-1.2c-0.7,0-1.3,0.2-1.9,0.5c-0.5,0.3-1,0.8-1.3,1.3
	c-0.3,0.6-0.5,1.2-0.5,1.9c0,0.7,0.1,1.3,0.5,1.9c0.3,0.5,0.8,1,1.3,1.3c0.6,0.3,1.2,0.5,1.9,0.5c1.1,0,2.1-0.4,2.8-1.2l1.2,1.2
	c-0.5,0.6-1.1,1-1.8,1.3c-0.7,0.3-1.5,0.5-2.3,0.5C12.2,40.9,11.3,40.7,10.4,40.2z"/>
<path class="st0" d="M19.5,40.3c-0.6-0.3-1.1-0.8-1.5-1.4c-0.4-0.6-0.6-1.4-0.5-2.1c0-0.7,0.2-1.4,0.5-2.1c0.4-0.6,0.9-1.1,1.5-1.4
	c1.4-0.7,3-0.7,4.3,0c0.6,0.3,1.1,0.8,1.5,1.4c0.4,0.6,0.6,1.4,0.5,2.1c0,0.7-0.2,1.5-0.5,2.1c-0.4,0.6-0.9,1.1-1.5,1.4
	C22.5,41,20.9,41,19.5,40.3L19.5,40.3z M23.3,38.6c0.9-1,0.9-2.5,0-3.6c-0.9-0.9-2.4-0.9-3.3,0c-0.9,1-0.9,2.5,0,3.6
	C20.9,39.5,22.4,39.5,23.3,38.6L23.3,38.6z"/>
<path class="st0" d="M33.9,33.6c0.6,0.7,1,1.6,0.9,2.6v4.5H33v-4.3c0-0.6-0.1-1.1-0.5-1.6c-0.4-0.4-0.9-0.6-1.4-0.5
	c-0.6,0-1.2,0.2-1.6,0.6c-0.4,0.5-0.6,1.1-0.6,1.8v4H27v-7.9h1.8v1c0.3-0.4,0.7-0.7,1.2-0.8c0.5-0.2,1-0.3,1.6-0.3
	C32.4,32.7,33.3,33,33.9,33.6z"/>
<path class="st0" d="M37.1,40.6c-0.5-0.1-1-0.3-1.5-0.6l0.7-1.4c0.4,0.2,0.8,0.4,1.3,0.6c0.5,0.1,1,0.2,1.5,0.2
	c1.1,0,1.7-0.3,1.7-0.9c0-0.3-0.2-0.5-0.4-0.6c-0.4-0.1-0.9-0.2-1.4-0.3c-0.5-0.1-1.1-0.2-1.6-0.3c-0.4-0.1-0.8-0.4-1.1-0.7
	c-0.3-0.4-0.5-0.9-0.5-1.3c0-0.7,0.3-1.4,0.9-1.8c0.8-0.5,1.6-0.7,2.5-0.7c0.5,0,1.1,0.1,1.6,0.2c0.5,0.1,0.9,0.3,1.3,0.5l-0.7,1.4
	c-0.7-0.4-1.5-0.6-2.3-0.6c-0.4,0-0.8,0.1-1.2,0.2c-0.3,0.1-0.4,0.4-0.4,0.6c0,0.3,0.2,0.5,0.5,0.6c0.5,0.2,0.9,0.3,1.4,0.3
	c0.5,0.1,1,0.2,1.5,0.3c0.4,0.1,0.7,0.4,1,0.7c0.3,0.4,0.5,0.8,0.4,1.3c0,0.7-0.4,1.4-1,1.8c-0.8,0.5-1.7,0.7-2.6,0.7
	C38.3,40.8,37.7,40.7,37.1,40.6z"/>
<path class="st0" d="M48.3,40.3c-0.2,0.2-0.5,0.3-0.8,0.4c-0.3,0.1-0.7,0.1-1,0.1c-0.7,0-1.5-0.2-2-0.7c-0.5-0.5-0.8-1.3-0.7-2v-3.8
	h-1.3v-1.5h1.3v-1.8h1.8v1.8h2.1v1.5h-2.1v3.8c0,0.3,0.1,0.6,0.3,0.9c0.2,0.2,0.5,0.3,0.8,0.3c0.4,0,0.7-0.1,1-0.3L48.3,40.3z"/>
<path class="st0" d="M53.8,32.8v1.8c-0.1,0-0.3,0-0.4,0c-0.6,0-1.2,0.2-1.7,0.6c-0.4,0.5-0.6,1.2-0.6,1.8v3.8h-1.9v-7.9H51V34
	C51.6,33.1,52.7,32.6,53.8,32.8z"/>
<path class="st0" d="M62.5,32.8v7.9h-1.8v-1c-0.3,0.4-0.7,0.6-1.1,0.8c-0.5,0.2-0.9,0.3-1.4,0.3c-0.9,0.1-1.8-0.2-2.5-0.8
	c-0.6-0.7-1-1.7-0.9-2.6v-4.5h1.8v4.2c0,0.6,0.1,1.1,0.5,1.6c0.4,0.4,0.9,0.6,1.4,0.5c0.6,0,1.2-0.2,1.6-0.6
	c0.4-0.5,0.6-1.1,0.6-1.8v-4L62.5,32.8z"/>
<path class="st0" d="M65.7,40.3c-0.6-0.3-1.2-0.8-1.5-1.4c-0.4-0.6-0.6-1.4-0.5-2.1c0-0.7,0.2-1.4,0.5-2.1c0.4-0.6,0.9-1.1,1.5-1.4
	c0.7-0.3,1.4-0.5,2.2-0.5c0.7,0,1.4,0.2,2,0.5c0.6,0.3,1,0.8,1.3,1.4l-1.4,0.8c-0.2-0.3-0.5-0.6-0.8-0.8c-0.3-0.2-0.7-0.3-1.1-0.3
	c-0.6,0-1.3,0.2-1.7,0.7c-0.9,1-0.9,2.6,0,3.6c0.8,0.7,1.9,0.9,2.8,0.4c0.4-0.2,0.6-0.5,0.8-0.8l1.5,0.8c-0.3,0.6-0.7,1-1.3,1.3
	c-0.6,0.3-1.3,0.5-2,0.5C67.2,40.8,66.4,40.7,65.7,40.3z"/>
<path class="st0" d="M77.2,40.3c-0.2,0.2-0.5,0.3-0.8,0.4c-0.3,0.1-0.7,0.1-1,0.1c-0.7,0-1.5-0.2-2-0.7c-0.5-0.5-0.8-1.3-0.7-2v-3.8
	h-1.3v-1.5h1.3v-1.8h1.8v1.8h2.1v1.5h-2.1v3.8c0,0.3,0.1,0.6,0.3,0.9c0.2,0.2,0.5,0.3,0.8,0.3c0.4,0,0.7-0.1,1-0.3L77.2,40.3z"/>
<path class="st0" d="M79.2,40.3c-0.6-0.3-1.1-0.8-1.5-1.4c-0.4-0.6-0.6-1.4-0.5-2.1c0-0.7,0.2-1.4,0.5-2.1c0.4-0.6,0.9-1.1,1.5-1.4
	c1.4-0.7,3-0.7,4.3,0c0.6,0.3,1.1,0.8,1.5,1.4c0.4,0.6,0.5,1.4,0.5,2.1c0,0.7-0.2,1.5-0.5,2.1c-0.4,0.6-0.9,1.1-1.5,1.4
	C82.1,41,80.5,41,79.2,40.3L79.2,40.3z M83,38.6c0.9-1,0.9-2.5,0-3.6c-0.9-0.9-2.4-0.9-3.4,0c-0.9,1-0.9,2.5,0,3.6
	C80.6,39.5,82.1,39.5,83,38.6L83,38.6z"/>
<path class="st0" d="M91.3,32.8v1.8c-0.1,0-0.3,0-0.4,0c-0.6,0-1.2,0.2-1.7,0.6c-0.4,0.5-0.7,1.1-0.6,1.8v3.8h-1.8v-7.9h1.8V34
	C89.1,33.1,90.2,32.6,91.3,32.8z"/>
<path class="st1" d="M17.2,15.4c1,1.1,1.4,2.5,1.3,3.9v6.9h-2.2v-6.6c0.1-0.9-0.2-1.9-0.8-2.6c-0.6-0.6-1.5-0.9-2.4-0.9
	c-1-0.1-2,0.3-2.8,1c-0.7,0.8-1.1,1.9-1,2.9v6.1H7.2v-12h2.1V16c0.4-0.6,1.1-1.1,1.8-1.4c0.8-0.3,1.7-0.5,2.5-0.5
	C14.9,14.1,16.2,14.5,17.2,15.4z"/>
<path class="st1" d="M22.5,11.5c-0.3-0.3-0.4-0.6-0.4-1c0-0.4,0.1-0.7,0.4-1c0.3-0.3,0.6-0.4,1-0.4c0.4,0,0.8,0.1,1,0.4
	c0.3,0.3,0.4,0.6,0.4,1c0,0.4-0.2,0.7-0.4,1C24,12.1,23.1,12.1,22.5,11.5L22.5,11.5z M22.5,14.2h2.2v11.9h-2.2L22.5,14.2z"/>
<path class="st1" d="M47.3,15.4c0.9,1.1,1.4,2.5,1.3,3.9v6.9h-2.2v-6.6c0.1-0.9-0.2-1.9-0.8-2.6c-0.6-0.6-1.4-0.9-2.3-0.9
	c-1-0.1-1.9,0.3-2.6,1c-0.7,0.8-1.1,1.9-1,2.9v6.1h-2.1v-6.6c0.1-0.9-0.2-1.9-0.8-2.6c-0.6-0.6-1.4-0.9-2.3-0.9
	c-1-0.1-1.9,0.3-2.6,1c-0.7,0.8-1,1.9-0.9,2.9v6.1h-2.2V14.2h2.1V16c0.4-0.6,1-1.1,1.7-1.4c0.8-0.3,1.6-0.5,2.4-0.4
	c0.9,0,1.7,0.2,2.5,0.6c0.7,0.4,1.3,0.9,1.7,1.6c0.5-0.7,1.1-1.3,1.9-1.6c0.8-0.4,1.8-0.6,2.7-0.6C45,14.1,46.3,14.5,47.3,15.4z"/>
<path class="st1" d="M62.1,14.9c0.9,0.5,1.6,1.2,2.2,2.1c0.5,1,0.8,2.1,0.8,3.2c0,1.1-0.2,2.2-0.8,3.2c-0.5,0.9-1.3,1.7-2.2,2.1
	c-1,0.5-2,0.8-3.1,0.8c-0.8,0-1.7-0.2-2.4-0.5c-0.7-0.3-1.4-0.9-1.8-1.5v1.9h-2.1V9.5h2.2V16c0.5-0.6,1.1-1.1,1.8-1.4
	c0.8-0.3,1.6-0.5,2.4-0.5C60.1,14.1,61.1,14.4,62.1,14.9z M60.8,23.9c0.6-0.4,1.1-0.9,1.4-1.5c0.7-1.4,0.7-3,0-4.4
	c-0.3-0.6-0.8-1.1-1.4-1.5c-1.3-0.7-2.8-0.7-4.1,0c-0.6,0.3-1.1,0.8-1.4,1.4c-0.7,1.4-0.7,3,0,4.4c0.3,0.6,0.8,1.1,1.4,1.5
	C58,24.6,59.6,24.6,60.8,23.9L60.8,23.9z"/>
<path class="st1" d="M79.1,14.2v11.9h-2.1v-1.8c-0.4,0.6-1,1.1-1.7,1.4c-0.7,0.3-1.5,0.5-2.3,0.5c-1.4,0.1-2.7-0.4-3.8-1.3
	c-1-1.1-1.5-2.5-1.4-3.9v-6.9H70v6.6c-0.1,1,0.2,1.9,0.8,2.6c0.6,0.6,1.5,0.9,2.4,0.9c1,0.1,2-0.3,2.7-1c0.7-0.8,1.1-1.9,1-2.9v-6.2
	H79.1z"/>
<path class="st1" d="M83.9,25.9c-0.8-0.2-1.5-0.5-2.1-1l0.9-1.7c0.6,0.4,1.2,0.7,1.9,0.9c0.7,0.2,1.5,0.3,2.3,0.3
	c1.9,0,2.8-0.5,2.8-1.6c0-0.3-0.1-0.6-0.4-0.9c-0.3-0.2-0.6-0.4-1-0.5c-0.4-0.1-0.9-0.2-1.6-0.3c-0.8-0.1-1.6-0.3-2.4-0.5
	c-0.6-0.2-1.1-0.5-1.6-1c-0.5-0.6-0.7-1.3-0.7-2c0-1,0.5-2,1.3-2.6c1.1-0.7,2.3-1.1,3.6-1c0.8,0,1.6,0.1,2.4,0.3
	c0.7,0.1,1.4,0.4,2,0.8l-0.9,1.7c-1-0.6-2.2-0.9-3.4-0.9c-0.7,0-1.5,0.1-2.1,0.5c-0.4,0.2-0.7,0.7-0.7,1.2c0,0.4,0.1,0.7,0.4,0.9
	c0.3,0.2,0.6,0.4,1,0.5c0.4,0.1,1,0.2,1.7,0.4c0.8,0.1,1.6,0.3,2.3,0.5c0.6,0.2,1.1,0.5,1.5,1c0.4,0.5,0.7,1.2,0.6,1.9
	c0,1-0.5,2-1.4,2.6c-1.1,0.7-2.4,1.1-3.8,1C85.7,26.4,84.8,26.2,83.9,25.9z"/>
</svg>
