<?xml version="1.0" encoding="utf-8"?>
<!-- Generator: Adobe Illustrator 20.0.0, SVG Export Plug-In . SVG Version: 6.00 Build 0)  -->
<svg version="1.1" id="Capa_1" xmlns="http://www.w3.org/2000/svg" xmlns:xlink="http://www.w3.org/1999/xlink" x="0px" y="0px"
	 viewBox="0 0 99 50" style="enable-background:new 0 0 99 50;" xml:space="preserve">
<style type="text/css">
	.st0{fill:#1A3D82;}
	.st1{fill:#687C99;}
</style>
<title>2</title>
<g>
	<g>
		<path class="st0" d="M17.2,14.7c0.9,0.9,1.3,2.2,1.3,3.9v6.9h-2.2v-6.6c0-1.2-0.3-2-0.8-2.6c-0.6-0.6-1.4-0.9-2.4-0.9
			c-1.2,0-2.1,0.3-2.8,1c-0.7,0.7-1,1.7-1,2.9v6.2H7.2V13.5h2.1v1.8c0.4-0.6,1-1.1,1.8-1.4c0.7-0.3,1.6-0.5,2.5-0.5
			C15.1,13.4,16.3,13.8,17.2,14.7z"/>
		<path class="st0" d="M22.5,10.8c-0.3-0.3-0.4-0.6-0.4-1s0.1-0.7,0.4-1c0.3-0.3,0.6-0.4,1-0.4c0.4,0,0.8,0.1,1,0.4
			c0.3,0.3,0.4,0.6,0.4,1c0,0.4-0.1,0.7-0.4,1c-0.3,0.3-0.6,0.4-1,0.4C23.2,11.2,22.8,11.1,22.5,10.8z M22.5,13.5h2.2v11.9h-2.2
			V13.5z"/>
		<path class="st0" d="M47.3,14.7c0.9,0.9,1.3,2.2,1.3,3.9v6.9h-2.2v-6.6c0-1.2-0.3-2-0.8-2.6c-0.5-0.6-1.3-0.9-2.3-0.9
			c-1.1,0-2,0.3-2.6,1c-0.6,0.7-1,1.7-1,2.9v6.2h-2.2v-6.6c0-1.2-0.3-2-0.8-2.6c-0.5-0.6-1.3-0.9-2.3-0.9c-1.1,0-2,0.3-2.6,1
			s-1,1.7-1,2.9v6.2h-2.2V13.5h2.1v1.8c0.4-0.6,1-1.1,1.7-1.4c0.7-0.3,1.5-0.5,2.4-0.5c0.9,0,1.8,0.2,2.5,0.6
			c0.7,0.4,1.3,0.9,1.7,1.6c0.5-0.7,1.1-1.2,1.9-1.6c0.8-0.4,1.7-0.6,2.7-0.6C45.2,13.4,46.4,13.8,47.3,14.7z"/>
		<path class="st0" d="M62.1,14.2c0.9,0.5,1.6,1.2,2.2,2.1c0.5,0.9,0.8,2,0.8,3.2s-0.3,2.3-0.8,3.2c-0.5,0.9-1.2,1.6-2.2,2.2
			c-0.9,0.5-2,0.8-3.1,0.8c-0.9,0-1.7-0.2-2.4-0.5c-0.7-0.3-1.3-0.8-1.8-1.5v1.9h-2.1V8.7h2.2v6.6c0.5-0.6,1.1-1.1,1.8-1.4
			c0.7-0.3,1.5-0.5,2.4-0.5C60.1,13.4,61.1,13.7,62.1,14.2z M60.8,23.2c0.6-0.4,1.1-0.8,1.4-1.5c0.4-0.6,0.5-1.4,0.5-2.2
			s-0.2-1.6-0.5-2.2c-0.4-0.6-0.8-1.1-1.4-1.5c-0.6-0.3-1.3-0.5-2.1-0.5c-0.8,0-1.4,0.2-2.1,0.5c-0.6,0.3-1.1,0.8-1.4,1.5
			c-0.3,0.6-0.5,1.4-0.5,2.2s0.2,1.6,0.5,2.2c0.3,0.6,0.8,1.1,1.4,1.5c0.6,0.4,1.3,0.5,2.1,0.5C59.5,23.7,60.2,23.5,60.8,23.2z"/>
		<path class="st0" d="M79.1,13.5v11.9h-2.1v-1.8c-0.4,0.6-1,1.1-1.7,1.4c-0.7,0.3-1.5,0.5-2.3,0.5c-1.6,0-2.8-0.4-3.8-1.3
			c-0.9-0.9-1.4-2.2-1.4-3.9v-6.9H70v6.6c0,1.2,0.3,2,0.8,2.6c0.6,0.6,1.4,0.9,2.4,0.9c1.1,0,2-0.3,2.7-1c0.7-0.7,1-1.7,1-2.9v-6.2
			H79.1z"/>
		<path class="st0" d="M83.9,25.2c-0.9-0.3-1.6-0.6-2.1-1l0.9-1.7c0.5,0.4,1.2,0.7,1.9,0.9c0.8,0.2,1.5,0.3,2.3,0.3
			c1.9,0,2.8-0.5,2.8-1.6c0-0.4-0.1-0.6-0.4-0.9c-0.3-0.2-0.6-0.4-1-0.5c-0.4-0.1-0.9-0.2-1.6-0.3c-1-0.1-1.7-0.3-2.4-0.5
			c-0.6-0.2-1.1-0.5-1.6-1c-0.4-0.5-0.7-1.1-0.7-2c0-1.1,0.5-1.9,1.4-2.6c0.9-0.7,2.1-1,3.6-1c0.8,0,1.6,0.1,2.4,0.3
			c0.8,0.2,1.4,0.5,2,0.8l-0.9,1.7c-1-0.6-2.1-0.9-3.4-0.9c-0.9,0-1.6,0.2-2.1,0.5c-0.5,0.3-0.7,0.7-0.7,1.2c0,0.4,0.1,0.7,0.4,0.9
			c0.3,0.2,0.6,0.4,1,0.5c0.4,0.1,1,0.2,1.7,0.4c1,0.2,1.7,0.3,2.3,0.5c0.6,0.2,1.1,0.5,1.5,1c0.4,0.5,0.6,1.1,0.6,1.9
			c0,1.1-0.5,1.9-1.4,2.6c-0.9,0.6-2.2,1-3.8,1C85.7,25.6,84.8,25.5,83.9,25.2z"/>
	</g>
	<g>
		<path class="st1" d="M20.5,28.7l-5.6,12.8h-1.8L7.4,28.7h2L14,39.2l4.6-10.5H20.5z"/>
		<path class="st1" d="M21.6,29.6c-0.2-0.2-0.3-0.5-0.3-0.8s0.1-0.6,0.3-0.8c0.2-0.2,0.5-0.3,0.9-0.3s0.6,0.1,0.9,0.3
			c0.2,0.2,0.3,0.5,0.3,0.8c0,0.3-0.1,0.6-0.3,0.8c-0.2,0.2-0.5,0.3-0.9,0.3S21.8,29.8,21.6,29.6z M21.5,31.8h1.8v9.7h-1.8V31.8z"/>
		<path class="st1" d="M26.8,41.3c-0.7-0.2-1.3-0.5-1.7-0.8l0.7-1.4c0.4,0.3,0.9,0.5,1.6,0.7c0.6,0.2,1.2,0.3,1.8,0.3
			c1.5,0,2.3-0.4,2.3-1.3c0-0.3-0.1-0.5-0.3-0.7c-0.2-0.2-0.5-0.3-0.8-0.4c-0.3-0.1-0.8-0.2-1.3-0.3c-0.8-0.1-1.4-0.3-1.9-0.4
			c-0.5-0.2-0.9-0.4-1.3-0.8c-0.4-0.4-0.5-0.9-0.5-1.6c0-0.9,0.4-1.6,1.1-2.1c0.7-0.5,1.7-0.8,2.9-0.8c0.6,0,1.3,0.1,1.9,0.2
			c0.6,0.2,1.2,0.4,1.6,0.6L32.2,34c-0.8-0.5-1.7-0.8-2.8-0.8c-0.7,0-1.3,0.1-1.7,0.4c-0.4,0.2-0.6,0.6-0.6,1c0,0.3,0.1,0.6,0.3,0.8
			c0.2,0.2,0.5,0.3,0.8,0.4c0.3,0.1,0.8,0.2,1.4,0.3c0.8,0.1,1.4,0.3,1.9,0.4c0.5,0.2,0.9,0.4,1.2,0.8c0.3,0.4,0.5,0.9,0.5,1.5
			c0,0.9-0.4,1.6-1.1,2.1c-0.8,0.5-1.8,0.8-3.1,0.8C28.3,41.6,27.5,41.5,26.8,41.3z"/>
		<path class="st1" d="M36.6,41c-0.8-0.4-1.4-1-1.8-1.8c-0.4-0.8-0.6-1.6-0.6-2.6s0.2-1.8,0.6-2.6c0.4-0.8,1-1.3,1.8-1.8
			c0.8-0.4,1.6-0.6,2.6-0.6c1,0,1.8,0.2,2.6,0.6c0.8,0.4,1.4,1,1.8,1.8c0.4,0.8,0.6,1.6,0.6,2.6s-0.2,1.8-0.6,2.6
			c-0.4,0.7-1,1.3-1.8,1.8c-0.8,0.4-1.6,0.6-2.6,0.6C38.3,41.6,37.4,41.4,36.6,41z M40.9,39.6c0.5-0.3,0.9-0.7,1.2-1.2
			c0.3-0.5,0.4-1.1,0.4-1.8s-0.1-1.3-0.4-1.8c-0.3-0.5-0.7-0.9-1.2-1.2c-0.5-0.3-1.1-0.4-1.7-0.4s-1.2,0.1-1.7,0.4
			c-0.5,0.3-0.9,0.7-1.2,1.2C36.1,35.4,36,36,36,36.6s0.1,1.3,0.4,1.8c0.3,0.5,0.7,0.9,1.2,1.2c0.5,0.3,1.1,0.4,1.7,0.4
			S40.4,39.9,40.9,39.6z"/>
		<path class="st1" d="M49.4,32.1c0.6-0.3,1.3-0.4,2.2-0.4v1.7c-0.1,0-0.2,0-0.4,0c-1,0-1.7,0.3-2.2,0.9c-0.5,0.6-0.8,1.4-0.8,2.4
			v4.8h-1.8v-9.7H48v1.6C48.3,32.9,48.8,32.4,49.4,32.1z"/>
	</g>
</g>
</svg>
