<?xml version="1.0" encoding="utf-8"?>
<!-- Generator: Adobe Illustrator 19.0.0, SVG Export Plug-In . SVG Version: 6.00 Build 0)  -->
<svg version="1.1" id="Capa_1" xmlns="http://www.w3.org/2000/svg" xmlns:xlink="http://www.w3.org/1999/xlink" x="0px" y="0px"
	 viewBox="-4 6 40 40" style="enable-background:new -4 6 40 40;" xml:space="preserve">
<style type="text/css">
	.st0{fill:none;}
	.st1{fill:#EBF1F2;}
	.st2{clip-path:url(#SVGID_2_);}
	.st3{opacity:9.000000e-02;clip-path:url(#SVGID_4_);}
	.st4{filter:url(#Adobe_OpacityMaskFilter);}
	.st5{clip-path:url(#SVGID_6_);fill:url(#SVGID_8_);}
	.st6{clip-path:url(#SVGID_6_);mask:url(#SVGID_7_);}
	.st7{clip-path:url(#SVGID_10_);fill:#0087C3;}
	.st8{opacity:0.13;clip-path:url(#SVGID_4_);}
	.st9{filter:url(#Adobe_OpacityMaskFilter_1_);}
	.st10{clip-path:url(#SVGID_12_);fill:url(#SVGID_14_);}
	.st11{clip-path:url(#SVGID_12_);mask:url(#SVGID_13_);}
	.st12{clip-path:url(#SVGID_16_);fill:#0087C3;}
</style>
<rect id="XMLID_1_" x="-4" y="6" class="st0" width="40" height="40"/>
<circle class="st1" cx="15.9" cy="25.9" r="19"/>
<g>
	<defs>
		<rect id="SVGID_1_" x="-2.7" y="23.6" width="37.4" height="21.3"/>
	</defs>
	<clipPath id="SVGID_2_">
		<use xlink:href="#SVGID_1_"  style="overflow:visible;"/>
	</clipPath>
	<g class="st2">
		<defs>
			<rect id="SVGID_3_" x="-2.7" y="23.6" width="37.4" height="21.3"/>
		</defs>
		<clipPath id="SVGID_4_">
			<use xlink:href="#SVGID_3_"  style="overflow:visible;"/>
		</clipPath>
		<g class="st3">
			<g>
				<defs>
					<rect id="SVGID_5_" x="1.1" y="19.1" width="39.4" height="26.4"/>
				</defs>
				<clipPath id="SVGID_6_">
					<use xlink:href="#SVGID_5_"  style="overflow:visible;"/>
				</clipPath>
				<defs>
					<filter id="Adobe_OpacityMaskFilter" filterUnits="userSpaceOnUse" x="1.1" y="19.1" width="39.4" height="26.4">
						<feFlood  style="flood-color:white;flood-opacity:1" result="back"/>
						<feBlend  in="SourceGraphic" in2="back" mode="normal"/>
					</filter>
				</defs>
				<mask maskUnits="userSpaceOnUse" x="1.1" y="19.1" width="39.4" height="26.4" id="SVGID_7_">
					<g class="st4">
						
							<linearGradient id="SVGID_8_" gradientUnits="userSpaceOnUse" x1="-7.9183" y1="51.7662" x2="-7.2771" y2="51.7662" gradientTransform="matrix(4.1631 22.9079 22.9079 -4.1631 -1133.1957 423.2312)">
							<stop  offset="0" style="stop-color:#FFFFFF"/>
							<stop  offset="1" style="stop-color:#000000"/>
						</linearGradient>
						<polygon class="st5" points="39.2,12.2 45.1,44.7 2.3,52.4 -3.6,20 						"/>
					</g>
				</mask>
				<g class="st6">
					<g>
						<defs>
							<rect id="SVGID_9_" x="1.1" y="19.1" width="39.4" height="26.4"/>
						</defs>
						<clipPath id="SVGID_10_">
							<use xlink:href="#SVGID_9_"  style="overflow:visible;"/>
						</clipPath>
						<path class="st7" d="M23.8,23.6c-9.4,0-17,7.6-17,17c0,0.7,0.1,1.4,0.1,2.1c2.7,1.4,5.7,2.2,8.9,2.2c9.9,0,18-7.6,18.8-17.3
							C31.8,25.1,28,23.6,23.8,23.6"/>
					</g>
				</g>
			</g>
		</g>
		<g class="st8">
			<g>
				<defs>
					<rect id="SVGID_11_" x="-8.5" y="20.3" width="31.4" height="24.9"/>
				</defs>
				<clipPath id="SVGID_12_">
					<use xlink:href="#SVGID_11_"  style="overflow:visible;"/>
				</clipPath>
				<defs>
					<filter id="Adobe_OpacityMaskFilter_1_" filterUnits="userSpaceOnUse" x="-8.5" y="20.3" width="31.4" height="24.9">
						<feFlood  style="flood-color:white;flood-opacity:1" result="back"/>
						<feBlend  in="SourceGraphic" in2="back" mode="normal"/>
					</filter>
				</defs>
				<mask maskUnits="userSpaceOnUse" x="-8.5" y="20.3" width="31.4" height="24.9" id="SVGID_13_">
					<g class="st9">
						
							<linearGradient id="SVGID_14_" gradientUnits="userSpaceOnUse" x1="-7.8159" y1="51.8099" x2="-7.1747" y2="51.8099" gradientTransform="matrix(0.773 13.8266 13.8266 -0.773 -703.4027 175.6851)">
							<stop  offset="0" style="stop-color:#FFFFFF"/>
							<stop  offset="1" style="stop-color:#000000"/>
						</linearGradient>
						<polygon class="st10" points="22.8,18.5 24.3,45.1 -8.4,46.9 -9.9,20.3 						"/>
					</g>
				</mask>
				<g class="st11">
					<g>
						<defs>
							<rect id="SVGID_15_" x="-8.5" y="20.3" width="31.4" height="24.9"/>
						</defs>
						<clipPath id="SVGID_16_">
							<use xlink:href="#SVGID_15_"  style="overflow:visible;"/>
						</clipPath>
						<path class="st12" d="M17.1,35.7c0-6-4.9-10.9-10.9-10.9c-3.7,0-6.9,1.8-8.9,4.6c1.4,7.7,7.5,13.8,15.2,15.2
							C15.3,42.6,17.1,39.3,17.1,35.7"/>
					</g>
				</g>
			</g>
		</g>
	</g>
</g>
</svg>
