<?xml version="1.0" encoding="utf-8"?>
<!-- Generator: Adobe Illustrator 20.0.0, SVG Export Plug-In . SVG Version: 6.00 Build 0)  -->
<svg version="1.1" id="Layer_1" xmlns="http://www.w3.org/2000/svg" xmlns:xlink="http://www.w3.org/1999/xlink" x="0px" y="0px"
	 viewBox="0 0 100 100" style="enable-background:new 0 0 100 100;" xml:space="preserve">
<style type="text/css">
	.st0{fill:#FFFFFF;}
</style>
<g>
	<path class="st0" d="M23.4,89.2c-1.6,0-3.2-0.3-4.3-1c-1.8-1-4.9-2.9-4.9-6.2V17.9c0-3.3,3.2-5.1,4.9-6.1c1.6-1,4-1,4.3-1
		c0.4,0,2.4,0,3.9,1l54.9,32c2.2,1.3,3.6,3.7,3.6,6.2c0,2.6-1.3,4.9-3.4,6.1c0,0,0,0,0,0L27.6,88.2C26.5,88.8,25,89.2,23.4,89.2z
		 M21,81.3c0.4,0.4,1.2,0.8,1.5,1c0.3,0.1,1.4,0.1,1.8-0.1l54.6-32c0,0,0.1-0.1,0.1-0.3c0,0-0.1-0.2-0.2-0.3l-54.9-32
		c0,0-0.3,0-0.5,0c-0.2,0-0.7,0.1-1,0.1c-0.4,0.2-1,0.6-1.4,0.9V81.3z M80.7,53.2L80.7,53.2L80.7,53.2z M78.9,50.3L78.9,50.3
		L78.9,50.3L78.9,50.3z M22.3,17.8L22.3,17.8L22.3,17.8z"/>
</g>
</svg>
