<?xml version="1.0" encoding="utf-8"?>
<!-- Generator: Adobe Illustrator 20.0.0, SVG Export Plug-In . SVG Version: 6.00 Build 0)  -->
<svg version="1.1" id="Layer_1" xmlns="http://www.w3.org/2000/svg" xmlns:xlink="http://www.w3.org/1999/xlink" x="0px" y="0px"
	 viewBox="0 0 400 300" style="enable-background:new 0 0 400 300;" xml:space="preserve">
<style type="text/css">
	.st0{opacity:0.4;}
	.st1{clip-path:url(#SVGID_11_);}
	.st2{clip-path:url(#SVGID_12_);}
	.st3{clip-path:url(#SVGID_13_);}
	.st4{clip-path:url(#SVGID_14_);}
	.st5{clip-path:url(#SVGID_15_);}
	.st6{clip-path:url(#SVGID_16_);}
	.st7{clip-path:url(#SVGID_17_);}
	.st8{clip-path:url(#SVGID_18_);}
	.st9{clip-path:url(#SVGID_19_);}
	.st10{clip-path:url(#SVGID_20_);fill:#0B51FE;}
</style>
<g class="st0">
	<defs>
		<path id="SVGID_1_" class="st0" d="M351.3,118.1c-14.5,0-22-6.5-28.6-12.2c-6-5.2-11.2-9.7-21.9-9.7c-10.7,0-15.9,4.5-21.9,9.7
			c-6.6,5.7-14.1,12.2-28.6,12.2c-14.5,0-22-6.5-28.6-12.2c-6-5.2-11.2-9.7-21.9-9.7c-10.7,0-15.9,4.5-21.9,9.7
			c-6.6,5.7-14.1,12.2-28.6,12.2s-22-6.5-28.6-12.2c-6-5.2-11.2-9.7-21.9-9.7c-10.7,0-15.9,4.5-21.9,9.7
			c-6.6,5.7-14.1,12.2-28.6,12.2s-22-6.5-28.6-12.2c-6-5.2-11.2-9.7-21.9-9.7c-2.8,0-5.1-2.3-5.1-5.1c0-2.8,2.3-5.1,5.1-5.1
			c14.5,0,22,6.5,28.6,12.2c6,5.2,11.2,9.7,21.9,9.7s15.9-4.5,21.9-9.7C77.1,92.5,84.5,86,99.1,86c14.5,0,22,6.5,28.6,12.2
			c6,5.2,11.2,9.7,21.9,9.7c10.7,0,15.9-4.5,21.9-9.7C178,92.5,185.4,86,200,86c14.5,0,22,6.5,28.6,12.2c6,5.2,11.2,9.7,21.9,9.7
			c10.7,0,15.9-4.5,21.9-9.7c6.6-5.7,14.1-12.2,28.6-12.2c14.5,0,22,6.5,28.6,12.2c6,5.2,11.2,9.7,21.9,9.7
			c10.7,0,15.9-4.5,21.9-9.7c6.6-5.7,14.1-12.2,28.6-12.2c2.8,0,5.1,2.3,5.1,5.1c0,2.8-2.3,5.1-5.1,5.1c-10.7,0-15.9,4.5-21.9,9.7
			C373.3,111.6,365.9,118.1,351.3,118.1z"/>
	</defs>
	<defs>
		<path id="SVGID_2_" class="st0" d="M351.3,137.5c-13.6,0-20.4-5.9-26.9-11.6c-6.1-5.3-11.9-10.3-23.5-10.3
			c-11.7,0-17.4,5-23.5,10.3c-6.6,5.7-13.3,11.6-26.9,11.6c-13.6,0-20.3-5.9-26.9-11.6c-6.1-5.3-11.9-10.3-23.5-10.3
			c-11.7,0-17.4,5-23.5,10.3c-6.6,5.7-13.3,11.6-26.9,11.6c-13.6,0-20.3-5.9-26.9-11.6c-6.1-5.3-11.9-10.3-23.5-10.3
			c-11.7,0-17.4,5-23.5,10.3c-6.6,5.7-13.3,11.6-26.9,11.6s-20.3-5.9-26.9-11.6c-6.1-5.3-11.9-10.3-23.5-10.3
			c-1.4,0-2.6-1.1-2.6-2.6c0-1.4,1.1-2.6,2.6-2.6c13.6,0,20.3,5.9,26.9,11.6c6.1,5.3,11.9,10.3,23.5,10.3c11.7,0,17.4-5,23.5-10.3
			c6.6-5.7,13.3-11.6,26.9-11.6c13.6,0,20.3,5.9,26.9,11.6c6.1,5.3,11.9,10.3,23.5,10.3c11.7,0,17.4-5,23.5-10.3
			c6.6-5.7,13.3-11.6,26.9-11.6c13.6,0,20.3,5.9,26.9,11.6c6.1,5.3,11.9,10.3,23.5,10.3c11.7,0,17.4-5,23.5-10.3
			c6.6-5.7,13.3-11.6,26.9-11.6c13.6,0,20.4,5.9,26.9,11.6c6.1,5.3,11.9,10.3,23.5,10.3c11.7,0,17.4-5,23.6-10.3
			c6.6-5.7,13.3-11.6,26.9-11.6c1.4,0,2.6,1.1,2.6,2.6c0,1.4-1.1,2.6-2.6,2.6c-11.7,0-17.4,5-23.5,10.3
			C371.7,131.6,364.9,137.5,351.3,137.5z"/>
	</defs>
	<defs>
		<path id="SVGID_3_" class="st0" d="M351.3,162c-14.5,0-22-6.5-28.6-12.2c-6-5.2-11.2-9.7-21.9-9.7c-10.7,0-15.9,4.5-21.9,9.7
			c-6.6,5.7-14.1,12.2-28.6,12.2c-14.5,0-22-6.5-28.6-12.2c-6-5.2-11.2-9.7-21.9-9.7c-10.7,0-15.9,4.5-21.9,9.7
			c-6.6,5.7-14.1,12.2-28.6,12.2s-22-6.5-28.6-12.2c-6-5.2-11.2-9.7-21.9-9.7c-10.7,0-15.9,4.5-21.9,9.7
			c-6.6,5.7-14.1,12.2-28.6,12.2s-22-6.5-28.6-12.2c-6-5.2-11.2-9.7-21.9-9.7c-2.8,0-5.1-2.3-5.1-5.1s2.3-5.1,5.1-5.1
			c14.5,0,22,6.5,28.6,12.2c6,5.2,11.2,9.7,21.9,9.7s15.9-4.5,21.9-9.7c6.6-5.7,14.1-12.2,28.6-12.2c14.5,0,22,6.5,28.6,12.2
			c6,5.2,11.2,9.7,21.9,9.7c10.7,0,15.9-4.5,21.9-9.7c6.6-5.7,14.1-12.2,28.6-12.2c14.5,0,22,6.5,28.6,12.2c6,5.2,11.2,9.7,21.9,9.7
			c10.7,0,15.9-4.5,21.9-9.7c6.6-5.7,14.1-12.2,28.6-12.2c14.5,0,22,6.5,28.6,12.2c6,5.2,11.2,9.7,21.9,9.7
			c10.7,0,15.9-4.5,21.9-9.7c6.6-5.7,14.1-12.2,28.6-12.2c2.8,0,5.1,2.3,5.1,5.1s-2.3,5.1-5.1,5.1c-10.7,0-15.9,4.5-21.9,9.7
			C373.3,155.5,365.9,162,351.3,162z"/>
	</defs>
	<defs>
		<path id="SVGID_4_" class="st0" d="M351.3,181.4c-13.6,0-20.4-5.9-26.9-11.6c-6.1-5.3-11.9-10.3-23.5-10.3
			c-11.7,0-17.4,5-23.5,10.3c-6.6,5.7-13.3,11.6-26.9,11.6c-13.6,0-20.3-5.9-26.9-11.6c-6.1-5.3-11.9-10.3-23.5-10.3
			c-11.7,0-17.4,5-23.5,10.3c-6.6,5.7-13.3,11.6-26.9,11.6c-13.6,0-20.3-5.9-26.9-11.6c-6.1-5.3-11.9-10.3-23.5-10.3
			c-11.7,0-17.4,5-23.5,10.3c-6.6,5.7-13.3,11.6-26.9,11.6s-20.3-5.9-26.9-11.6c-6.1-5.3-11.9-10.3-23.5-10.3
			c-1.4,0-2.6-1.1-2.6-2.6c0-1.4,1.1-2.6,2.6-2.6c13.6,0,20.3,5.9,26.9,11.6c6.1,5.3,11.9,10.3,23.5,10.3c11.7,0,17.4-5,23.5-10.3
			c6.6-5.7,13.3-11.6,26.9-11.6c13.6,0,20.3,5.9,26.9,11.6c6.1,5.3,11.9,10.3,23.5,10.3c11.7,0,17.4-5,23.5-10.3
			c6.6-5.7,13.3-11.6,26.9-11.6c13.6,0,20.3,5.9,26.9,11.6c6.1,5.3,11.9,10.3,23.5,10.3c11.7,0,17.4-5,23.5-10.3
			c6.6-5.7,13.3-11.6,26.9-11.6c13.6,0,20.4,5.9,26.9,11.6c6.1,5.3,11.9,10.3,23.5,10.3c11.7,0,17.4-5,23.6-10.3
			c6.6-5.7,13.3-11.6,26.9-11.6c1.4,0,2.6,1.1,2.6,2.6c0,1.4-1.1,2.6-2.6,2.6c-11.7,0-17.4,5-23.5,10.3
			C371.7,175.5,364.9,181.4,351.3,181.4z"/>
	</defs>
	<defs>
		<path id="SVGID_5_" class="st0" d="M351.3,205.9c-14.5,0-22-6.5-28.6-12.2c-6-5.2-11.2-9.7-21.9-9.7c-10.7,0-15.9,4.5-21.9,9.7
			c-6.6,5.7-14.1,12.2-28.6,12.2c-14.5,0-22-6.5-28.6-12.2c-6-5.2-11.2-9.7-21.9-9.7c-10.7,0-15.9,4.5-21.9,9.7
			c-6.6,5.7-14.1,12.2-28.6,12.2s-22-6.5-28.6-12.2c-6-5.2-11.2-9.7-21.9-9.7c-10.7,0-15.9,4.5-21.9,9.7
			c-6.6,5.7-14.1,12.2-28.6,12.2s-22-6.5-28.6-12.2c-6-5.2-11.2-9.7-21.9-9.7c-2.8,0-5.1-2.3-5.1-5.1s2.3-5.1,5.1-5.1
			c14.5,0,22,6.5,28.6,12.2c6,5.2,11.2,9.7,21.9,9.7c10.7,0,15.9-4.5,21.9-9.7c6.6-5.7,14.1-12.2,28.6-12.2c14.5,0,22,6.5,28.6,12.2
			c6,5.2,11.2,9.7,21.9,9.7c10.7,0,15.9-4.5,21.9-9.7c6.6-5.7,14.1-12.2,28.6-12.2c14.5,0,22,6.5,28.6,12.2c6,5.2,11.2,9.7,21.9,9.7
			c10.7,0,15.9-4.5,21.9-9.7c6.6-5.7,14.1-12.2,28.6-12.2c14.5,0,22,6.5,28.6,12.2c6,5.2,11.2,9.7,21.9,9.7
			c10.7,0,15.9-4.5,21.9-9.7c6.6-5.7,14.1-12.2,28.6-12.2c2.8,0,5.1,2.3,5.1,5.1s-2.3,5.1-5.1,5.1c-10.7,0-15.9,4.5-21.9,9.7
			C373.3,199.4,365.9,205.9,351.3,205.9z"/>
	</defs>
	<defs>
		<path id="SVGID_6_" class="st0" d="M351.3,225.3c-13.6,0-20.4-5.9-26.9-11.6c-6.1-5.3-11.9-10.3-23.5-10.3
			c-11.7,0-17.4,5-23.5,10.3c-6.6,5.7-13.3,11.6-26.9,11.6c-13.6,0-20.3-5.9-26.9-11.6c-6.1-5.3-11.9-10.3-23.5-10.3
			c-11.7,0-17.4,5-23.5,10.3c-6.6,5.7-13.3,11.6-26.9,11.6c-13.6,0-20.3-5.9-26.9-11.6c-6.1-5.3-11.9-10.3-23.5-10.3
			c-11.7,0-17.4,5-23.5,10.3c-6.6,5.7-13.3,11.6-26.9,11.6s-20.3-5.9-26.9-11.6c-6.1-5.3-11.9-10.3-23.5-10.3
			c-1.4,0-2.6-1.1-2.6-2.6c0-1.4,1.1-2.6,2.6-2.6c13.6,0,20.3,5.9,26.9,11.6c6.1,5.3,11.9,10.3,23.5,10.3c11.7,0,17.4-5,23.5-10.3
			c6.6-5.7,13.3-11.6,26.9-11.6c13.6,0,20.3,5.9,26.9,11.6c6.1,5.3,11.9,10.3,23.5,10.3c11.7,0,17.4-5,23.5-10.3
			c6.6-5.7,13.3-11.6,26.9-11.6c13.6,0,20.3,5.9,26.9,11.6c6.1,5.3,11.9,10.3,23.5,10.3c11.7,0,17.4-5,23.5-10.3
			c6.6-5.7,13.3-11.6,26.9-11.6c13.6,0,20.4,5.9,26.9,11.6c6.1,5.3,11.9,10.3,23.5,10.3c11.7,0,17.4-5,23.6-10.3
			c6.6-5.7,13.3-11.6,26.9-11.6c1.4,0,2.6,1.1,2.6,2.6c0,1.4-1.1,2.6-2.6,2.6c-11.7,0-17.4,5-23.5,10.3
			C371.7,219.4,364.9,225.3,351.3,225.3z"/>
	</defs>
	<defs>
		<path id="SVGID_7_" class="st0" d="M351.3,249.8c-14.5,0-22-6.5-28.6-12.2c-6-5.2-11.2-9.7-21.9-9.7c-10.7,0-15.9,4.5-21.9,9.7
			c-6.6,5.7-14.1,12.2-28.6,12.2c-14.5,0-22-6.5-28.6-12.2c-6-5.2-11.2-9.7-21.9-9.7c-10.7,0-15.9,4.5-21.9,9.7
			c-6.6,5.7-14.1,12.2-28.6,12.2s-22-6.5-28.6-12.2c-6-5.2-11.2-9.7-21.9-9.7c-10.7,0-15.9,4.5-21.9,9.7
			c-6.6,5.7-14.1,12.2-28.6,12.2s-22-6.5-28.6-12.2c-6-5.2-11.2-9.7-21.9-9.7c-2.8,0-5.1-2.3-5.1-5.1c0-2.8,2.3-5.1,5.1-5.1
			c14.5,0,22,6.5,28.6,12.2c6,5.2,11.2,9.7,21.9,9.7s15.9-4.5,21.9-9.7c6.6-5.7,14.1-12.2,28.6-12.2c14.5,0,22,6.5,28.6,12.2
			c6,5.2,11.2,9.7,21.9,9.7c10.7,0,15.9-4.5,21.9-9.7c6.6-5.7,14.1-12.2,28.6-12.2c14.5,0,22,6.5,28.6,12.2c6,5.2,11.2,9.7,21.9,9.7
			c10.7,0,15.9-4.5,21.9-9.7c6.6-5.7,14.1-12.2,28.6-12.2c14.5,0,22,6.5,28.6,12.2c6,5.2,11.2,9.7,21.9,9.7
			c10.7,0,15.9-4.5,21.9-9.7c6.6-5.7,14.1-12.2,28.6-12.2c2.8,0,5.1,2.3,5.1,5.1c0,2.8-2.3,5.1-5.1,5.1c-10.7,0-15.9,4.5-21.9,9.7
			C373.3,243.3,365.9,249.8,351.3,249.8z"/>
	</defs>
	<defs>
		<path id="SVGID_8_" class="st0" d="M351.3,269.2c-13.6,0-20.4-5.9-26.9-11.6c-6.1-5.3-11.9-10.3-23.5-10.3
			c-11.7,0-17.4,5-23.5,10.3c-6.6,5.7-13.3,11.6-26.9,11.6c-13.6,0-20.3-5.9-26.9-11.6c-6.1-5.3-11.9-10.3-23.5-10.3
			c-11.7,0-17.4,5-23.5,10.3c-6.6,5.7-13.3,11.6-26.9,11.6c-13.6,0-20.3-5.9-26.9-11.6c-6.1-5.3-11.9-10.3-23.5-10.3
			c-11.7,0-17.4,5-23.5,10.3c-6.6,5.7-13.3,11.6-26.9,11.6s-20.3-5.9-26.9-11.6c-6.1-5.3-11.9-10.3-23.5-10.3
			c-1.4,0-2.6-1.1-2.6-2.6c0-1.4,1.1-2.6,2.6-2.6c13.6,0,20.3,5.9,26.9,11.6c6.1,5.3,11.9,10.3,23.5,10.3c11.7,0,17.4-5,23.5-10.3
			c6.6-5.7,13.3-11.6,26.9-11.6c13.6,0,20.3,5.9,26.9,11.6c6.1,5.3,11.9,10.3,23.5,10.3c11.7,0,17.4-5,23.5-10.3
			c6.6-5.7,13.3-11.6,26.9-11.6c13.6,0,20.3,5.9,26.9,11.6c6.1,5.3,11.9,10.3,23.5,10.3c11.7,0,17.4-5,23.5-10.3
			c6.6-5.7,13.3-11.6,26.9-11.6c13.6,0,20.4,5.9,26.9,11.6c6.1,5.3,11.9,10.3,23.5,10.3c11.7,0,17.4-5,23.6-10.3
			c6.6-5.7,13.3-11.6,26.9-11.6c1.4,0,2.6,1.1,2.6,2.6c0,1.4-1.1,2.6-2.6,2.6c-11.7,0-17.4,5-23.5,10.3
			C371.7,263.3,364.9,269.2,351.3,269.2z"/>
	</defs>
	<defs>
		<path id="SVGID_9_" class="st0" d="M351.3,293.7c-14.5,0-22-6.5-28.6-12.2c-6-5.2-11.2-9.7-21.9-9.7c-10.7,0-15.9,4.5-21.9,9.7
			c-6.6,5.7-14.1,12.2-28.6,12.2c-14.5,0-22-6.5-28.6-12.2c-6-5.2-11.2-9.7-21.9-9.7c-10.7,0-15.9,4.5-21.9,9.7
			c-6.6,5.7-14.1,12.2-28.6,12.2s-22-6.5-28.6-12.2c-6-5.2-11.2-9.7-21.9-9.7c-10.7,0-15.9,4.5-21.9,9.7
			c-6.6,5.7-14.1,12.2-28.6,12.2s-22-6.5-28.6-12.2c-6-5.2-11.2-9.7-21.9-9.7c-2.8,0-5.1-2.3-5.1-5.1c0-2.8,2.3-5.1,5.1-5.1
			c14.5,0,22,6.5,28.6,12.2c6,5.2,11.2,9.7,21.9,9.7s15.9-4.5,21.9-9.7c6.6-5.7,14.1-12.2,28.6-12.2c14.5,0,22,6.5,28.6,12.2
			c6,5.2,11.2,9.7,21.9,9.7c10.7,0,15.9-4.5,21.9-9.7c6.6-5.7,14.1-12.2,28.6-12.2c14.5,0,22,6.5,28.6,12.2c6,5.2,11.2,9.7,21.9,9.7
			c10.7,0,15.9-4.5,21.9-9.7c6.6-5.7,14.1-12.2,28.6-12.2c14.5,0,22,6.5,28.6,12.2c6,5.2,11.2,9.7,21.9,9.7
			c10.7,0,15.9-4.5,21.9-9.7c6.6-5.7,14.1-12.2,28.6-12.2c2.8,0,5.1,2.3,5.1,5.1c0,2.8-2.3,5.1-5.1,5.1c-10.7,0-15.9,4.5-21.9,9.7
			C373.3,287.2,365.9,293.7,351.3,293.7z"/>
	</defs>
	<defs>
		<path id="SVGID_10_" class="st0" d="M351.3,313.1c-13.6,0-20.4-5.9-26.9-11.6c-6.1-5.3-11.9-10.3-23.5-10.3
			c-11.7,0-17.4,5-23.5,10.3c-6.6,5.7-13.3,11.6-26.9,11.6c-13.6,0-20.3-5.9-26.9-11.6c-6.1-5.3-11.9-10.3-23.5-10.3
			c-11.7,0-17.4,5-23.5,10.3c-6.6,5.7-13.3,11.6-26.9,11.6c-13.6,0-20.3-5.9-26.9-11.6c-6.1-5.3-11.9-10.3-23.5-10.3
			c-11.7,0-17.4,5-23.5,10.3c-6.6,5.7-13.3,11.6-26.9,11.6s-20.3-5.9-26.9-11.6c-6.1-5.3-11.9-10.3-23.5-10.3
			c-1.4,0-2.6-1.1-2.6-2.6c0-1.4,1.1-2.6,2.6-2.6c13.6,0,20.3,5.9,26.9,11.6C31.2,303,37,308,48.6,308c11.7,0,17.4-5,23.5-10.3
			c6.6-5.7,13.3-11.6,26.9-11.6c13.6,0,20.3,5.9,26.9,11.6c6.1,5.3,11.9,10.3,23.5,10.3c11.7,0,17.4-5,23.5-10.3
			c6.6-5.7,13.3-11.6,26.9-11.6c13.6,0,20.3,5.9,26.9,11.6c6.1,5.3,11.9,10.3,23.5,10.3c11.7,0,17.4-5,23.5-10.3
			c6.6-5.7,13.3-11.6,26.9-11.6c13.6,0,20.4,5.9,26.9,11.6c6.1,5.3,11.9,10.3,23.5,10.3c11.7,0,17.4-5,23.6-10.3
			c6.6-5.7,13.3-11.6,26.9-11.6c1.4,0,2.6,1.1,2.6,2.6c0,1.4-1.1,2.6-2.6,2.6c-11.7,0-17.4,5-23.5,10.3
			C371.7,307.2,364.9,313.1,351.3,313.1z"/>
	</defs>
	<use xlink:href="#SVGID_1_"  style="overflow:visible;fill:#083FAF;"/>
	<use xlink:href="#SVGID_2_"  style="overflow:visible;fill:#083FAF;"/>
	<use xlink:href="#SVGID_3_"  style="overflow:visible;fill:#083FAF;"/>
	<use xlink:href="#SVGID_4_"  style="overflow:visible;fill:#083FAF;"/>
	<use xlink:href="#SVGID_5_"  style="overflow:visible;fill:#083FAF;"/>
	<use xlink:href="#SVGID_6_"  style="overflow:visible;fill:#083FAF;"/>
	<use xlink:href="#SVGID_7_"  style="overflow:visible;fill:#083FAF;"/>
	<use xlink:href="#SVGID_8_"  style="overflow:visible;fill:#083FAF;"/>
	<use xlink:href="#SVGID_9_"  style="overflow:visible;fill:#083FAF;"/>
	<use xlink:href="#SVGID_10_"  style="overflow:visible;fill:#083FAF;"/>
	<clipPath id="SVGID_11_">
		<use xlink:href="#SVGID_1_"  style="overflow:visible;"/>
	</clipPath>
	<clipPath id="SVGID_12_" class="st1">
		<use xlink:href="#SVGID_2_"  style="overflow:visible;"/>
	</clipPath>
	<clipPath id="SVGID_13_" class="st2">
		<use xlink:href="#SVGID_3_"  style="overflow:visible;"/>
	</clipPath>
	<clipPath id="SVGID_14_" class="st3">
		<use xlink:href="#SVGID_4_"  style="overflow:visible;"/>
	</clipPath>
	<clipPath id="SVGID_15_" class="st4">
		<use xlink:href="#SVGID_5_"  style="overflow:visible;"/>
	</clipPath>
	<clipPath id="SVGID_16_" class="st5">
		<use xlink:href="#SVGID_6_"  style="overflow:visible;"/>
	</clipPath>
	<clipPath id="SVGID_17_" class="st6">
		<use xlink:href="#SVGID_7_"  style="overflow:visible;"/>
	</clipPath>
	<clipPath id="SVGID_18_" class="st7">
		<use xlink:href="#SVGID_8_"  style="overflow:visible;"/>
	</clipPath>
	<clipPath id="SVGID_19_" class="st8">
		<use xlink:href="#SVGID_9_"  style="overflow:visible;"/>
	</clipPath>
	<clipPath id="SVGID_20_" class="st9">
		<use xlink:href="#SVGID_10_"  style="overflow:visible;"/>
	</clipPath>
	<path class="st10" d="M325.3,534.9H76.8c-24.8,0-44.9-20.1-44.9-44.9V197.9c0-24.8,20.1-44.9,44.9-44.9h248.5
		c24.8,0,44.9,20.1,44.9,44.9V490C370.2,514.8,350.1,534.9,325.3,534.9z"/>
</g>
</svg>
