<?xml version="1.0" encoding="utf-8"?>
<!-- Generator: Adobe Illustrator 20.0.0, SVG Export Plug-In . SVG Version: 6.00 Build 0)  -->
<svg version="1.1" id="Layer_1" xmlns="http://www.w3.org/2000/svg" xmlns:xlink="http://www.w3.org/1999/xlink" x="0px" y="0px"
	 viewBox="0 0 600 600" style="enable-background:new 0 0 600 600;" xml:space="preserve">
<style type="text/css">
	.st0{fill:#FFCA45;}
	.st1{opacity:0.64;}
	.st2{fill:#EDA71B;}
	.st3{fill:#272E3D;}
	.st4{fill:#CE786A;}
	.st5{fill:#EFAF8F;}
	.st6{opacity:0.46;fill:#D3796A;}
	.st7{fill:#FFFFFF;}
	.st8{fill:#CCDFE5;}
	.st9{fill:#BC4040;}
	.st10{opacity:0.5;fill:#8C1F1F;}
	.st11{fill:#D87171;}
	.st12{fill:#E59351;}
	.st13{opacity:0.64;fill:#EDA71B;}
	.st14{fill:none;stroke:#E59351;stroke-miterlimit:10;}
	.st15{fill:#FFEFAE;}
</style>
<g>
	<g>
		<path class="st0" d="M512,324.4c19.4-44.3,21.4-101.3-4.6-143.3c-24.6-39.7-67.5-60-113.3-61.1c-17.6-0.4-35.1,3.7-51.7,9.6
			c-36.8,12.9-70.5,33.7-107.6,45.8c-27,8.9-55.6,13.1-81.4,25.1c-99.9,46.7-106.9,192.7-18.9,254.6c33,23.2,73.6,29.1,113,25
			c21.7-2.3,42.4-8.8,63.7-13c24.8-4.9,50-9,73.6-18.4c36.7-14.6,67.4-43.2,93.2-72.4C491.9,360.8,503.7,343.5,512,324.4z"/>
		<g>
			<path class="st0" d="M127.2,85.2c0,0,14,38.2-1.9,45.5c0,0,19.1,4.9,26.5,23.5c0,0-8.8-26.7,5.5-32.5
				C157.3,121.9,141.2,125.6,127.2,85.2z"/>
			<path class="st0" d="M117.4,151.7c0,0,15.5,13.2,10.3,20.3c0,0,9.5-2.5,17.3,3.8c0,0-10.4-9.5-5.5-15.5
				C139.5,160.3,133.4,165.8,117.4,151.7z"/>
			<path class="st0" d="M179,110.7c0,0-2,20.3-10.7,20.1c0,0,7.5,6.4,6.8,16.3c0,0,1.8-13.9,9.5-13.4
				C184.6,133.7,176.5,131.9,179,110.7z"/>
		</g>
		<g class="st1">
			<polygon class="st2" points="473.9,320.8 470.8,305.3 456.3,299 470.1,291.3 471.6,275.5 483.3,286.3 498.7,282.8 492.1,297.2 
				500.1,310.8 484.4,308.9 			"/>
			<polygon class="st2" points="445.2,198.9 441.4,200.8 440.8,204.9 437.9,201.9 433.8,202.6 435.7,198.9 433.8,195.2 437.9,195.9 
				440.8,192.9 441.4,197.1 			"/>
			<polygon class="st2" points="405.5,251.5 417.2,243.2 417,228.9 428.5,237.5 442,232.9 437.4,246.4 446,257.9 431.7,257.7 
				423.4,269.4 419.2,255.7 			"/>
		</g>
	</g>
	<g>
		<g>
			<g>
				<path class="st3" d="M216.8,204.8c2.1,14.3,6.4,28.3,12.3,41.5c7.4,16.7,18.2,22.7,36,25.4c5.2,0.8,10.5,1.4,15.7,0.2
					c4.5-1,8.7-3.3,12.5-5.9c11.1-7.3,20.7-17,27-28.6c2.3-4.2,4.1-8.6,5.1-13.3c1.3-6.7,0.8-13.6-0.2-20.3
					c-0.7-4.6-1.6-9.3-3.7-13.5c-2.4-4.7-6.2-8.6-10.2-12.1c-13.2-11.6-30.3-20.4-47.8-18.7c-10.8,1-20.8,5.8-31.4,8.1
					c-4.8,1.1-11.8-1.6-14.7,3.8c-1.1,1.9-1.3,4.2-1.4,6.4C215.1,186.9,215.5,195.9,216.8,204.8z"/>
				<path class="st3" d="M245.9,142.5c6.1,6.6,12.2,13.2,18.3,19.8c2.4,2.5,4.7,5.1,6.1,8.3c2.1,4.8,1.7,10.2,1.4,15.5
					c-0.4,8.8-0.1,17.7,2.3,26.2c2.1,7.4,5.7,14.3,9.9,20.9c4.2,6.6,9,13.1,15.3,17.7c7,5.2,15.6,7.9,24.1,9.5
					c15.5,2.9,31.6,2.4,46.9-1.4c10.4-2.6,21.4-8.1,27.2-17.7c5.3-8.7,6.9-27.2-0.3-35.3c7.7-2.3,14.1-9.1,14.8-17
					c0.9-10.8-8.3-19.9-17.9-24.8c-9.7-4.9-20.6-7.5-29.1-14.3c-8.5-6.8-13.5-16.8-19.9-25.6c-18.7-25.6-51.4-40.2-83-37.1
					c-3.9,12.7-8.8,24.5-12.7,37.2c-1.9,6.2-3.8,12.5-3.8,19C244.7,142.6,246.5,143.1,245.9,142.5z"/>
			</g>
			<g>
				<g>
					<path class="st4" d="M213.5,121.7c0,0,0.2-12.4-10.1-10.6c-10.3,1.8-8.1,31.6,5.1,33s5.5-23.3,5.5-23.3L213.5,121.7z"/>
					<path class="st5" d="M264.3,87.3c0,0-27.6-3.9-40.8,10.8c-13.3,14.7-20.4,49.4-17.5,67.3c2.8,17.9,21.1,29.3,48.2,31.8
						c27.1,2.6,46.6-4.5,58.4-29.5c11.8-25,4.7-57.7,4.7-57.7S297.7,89,264.3,87.3z"/>
					<g>
						<g>
							<g>
								<path d="M247,146.2c-0.1,0-0.2,0-0.3-0.1l-10-5.7c-0.2-0.1-0.3-0.2-0.3-0.4c0-0.2,0-0.3,0.1-0.5l17.2-22.9
									c0.2-0.3,0.6-0.3,0.9-0.1c0.3,0.2,0.3,0.6,0.1,0.8l-16.8,22.4l9.4,5.4c0.3,0.2,0.4,0.5,0.2,0.8
									C247.4,146.1,247.2,146.2,247,146.2z"/>
							</g>
							<path d="M264.6,129.3c0,0,8.4-11,17.9-3.4l-1.3,2.6C281.3,128.6,274.6,125,264.6,129.3z"/>
							<path d="M238,127.9c0,0-3-12.5-14.6-7.2l1.5,1.5C224.9,122.3,232.2,120.4,238,127.9z"/>
							<g>
								<path d="M239.9,152.4c2.2,1.3,4.6,2.2,6.9,2.5c2.3,0.3,4.6,0,6.7-1l1.6-0.8c0.5-0.3,1-0.7,1.4-1c0.5-0.3,0.9-0.7,1.4-1.1
									c0.4-0.4,0.9-0.8,1.4-1.2c0.8-0.9,1.7-1.8,2.5-2.7c0.8-1,1.6-2,2.5-2.9c-0.4,1.2-1,2.4-1.5,3.6c-0.6,1.1-1.4,2.2-2.1,3.3
									c-1.7,2-3.6,4-6.2,5.1c-0.6,0.4-1.3,0.5-2,0.7c-0.7,0.2-1.4,0.3-2.1,0.4c-0.7,0.1-1.4,0-2.1,0c-0.7,0-1.4-0.2-2-0.4
									C243.8,156,241.5,154.4,239.9,152.4z"/>
							</g>
						</g>
						<circle class="st6" cx="224.6" cy="137.4" r="10"/>
						<circle class="st6" cx="282.3" cy="145.5" r="10"/>
					</g>
				</g>
				<g>
					<path class="st3" d="M262.4,86.8c-0.7,0.1-6.8,31.1,57,58.8l1.7-40.2C321.2,105.4,288.9,83.6,262.4,86.8z"/>
					<path class="st3" d="M213.5,115.4c0,0,37.3-8.8,48.9-28.6C262.4,86.8,221.6,75.1,213.5,115.4z"/>
				</g>
				<g>
					<path class="st4" d="M307.1,147.7c0,0,12-15.4,22.9-6.4c11,9,4.7,37.9-22.9,30.4V147.7z"/>
					<g>
						<path d="M312.6,158.9c0.5-3.5,2.3-6.9,5.3-9.1c0.7-0.6,1.6-1,2.4-1.4c0.9-0.3,1.7-0.6,2.6-0.7c0.9-0.2,1.8-0.2,2.7-0.2
							c0.9,0.1,1.8,0.2,2.6,0.4c-1.8,0.1-3.5,0.2-5.1,0.7c-1.6,0.4-3.2,1.2-4.5,2.2c-1.4,1-2.5,2.2-3.5,3.6
							C314.1,155.8,313.3,157.3,312.6,158.9z"/>
						<path d="M314.2,154.7c1.6-1.3,3.8-1.8,5.9-1.7c2.1,0.1,4.2,0.9,5.7,2.3c-2-0.6-3.9-1-5.8-1.1
							C318.1,154.1,316.2,154.3,314.2,154.7z"/>
					</g>
				</g>
			</g>
			<g>
				<path class="st5" d="M297,242.5c0,0-27.8,1.5-45.4,2.5c-7.8,0.5-13.6,0.8-14.1,0.9c-1.5,0.3,1-36.5,2.1-51.1
					c0.3-3.7,0.4-5.9,0.4-5.9l46.7-7.2L297,242.5z"/>
				<path class="st6" d="M251.4,245.2c-7.8,0.5-13.6,0.8-14.1,0.9c-1.5,0.3,1-36.5,2.1-51.1c0,0,11.5,3.7,29.4,2.7
					C268.7,197.7,271.5,233.4,251.4,245.2z"/>
			</g>
		</g>
		<g>
			<g>
				<path class="st3" d="M346.1,432.6c0,0,61.7,26.7,74.5-56.6l-21-50.7l-64.4,54.7L346.1,432.6z"/>
				<path class="st7" d="M424.8,394.5c0,0-7.2,11.2-21.4,14.1c-4.6,0.9-9.9,1-16-0.5c-24.8-6.2,13.2-27,13.2-27l3-2.3l16.8-13.3
					L424.8,394.5z"/>
				<path class="st8" d="M403.6,378.7l-0.1,7.8v22c-4.6,0.9-9.9,1-16-0.5c-24.8-6.2,13.2-27,13.2-27L403.6,378.7z"/>
			</g>
			<g>
				<path class="st3" d="M231.1,245.1l-67.9,26.1c-2.8-1.8-6.9-2.5-10.3,1.5c-3.6,4.1-2.1,6.5-2.1,6.5s-20.6,112.2,11.9,178.9
					c0,0,72.4-13.2,134.3-65.1l-16.2-24.9l-71.4,14.1l-4-82.4L231.1,245.1z"/>
				<polygon class="st3" points="297,234.2 399.6,256.7 370.9,365.3 346.1,376.9 357.4,472.3 220.7,484.3 189.9,296.1 218.1,255.6 
					248,237.1 270.6,244 				"/>
				<g>
					<path class="st8" d="M246.8,374.8c-4.7,1.7-9.4,3.3-14.1,4.9c-4.7,1.6-9.5,3.1-14.2,4.6c-4.8,1.5-9.5,3-14.3,4.4l-7.2,2.1
						c-2.4,0.7-4.8,1.3-7.2,2c2.3-0.9,4.7-1.7,7-2.5l7.1-2.4c4.7-1.6,9.5-3.1,14.2-4.6c4.8-1.4,9.5-3,14.3-4.4
						C237.2,377.4,241.9,376.1,246.8,374.8z"/>
					<path class="st8" d="M207.1,387.3c-0.7-6-1.3-12-1.8-18.1c-0.5-6-1-12.1-1.5-18.1c-0.4-6-0.8-12.1-1.2-18.1l-0.5-9.1
						c-0.1-3-0.3-6-0.4-9.1c0.4,3,0.6,6,1,9l0.8,9c0.5,6,1,12.1,1.5,18.1c0.4,6,0.8,12.1,1.2,18.1
						C206.6,375.2,206.9,381.3,207.1,387.3z"/>
					<path class="st8" d="M185.3,385.7c3.6-0.3,7.3-0.3,10.9-0.2c3.6,0.1,7.3,0.4,10.9,1c-3.6,0.3-7.3,0.3-10.9,0.2
						C192.5,386.6,188.9,386.4,185.3,385.7z"/>
					<path class="st8" d="M198.3,448c5.6-2.3,11.3-4.6,16.8-7c5.6-2.4,11.2-4.8,16.6-7.4c2.8-1.2,5.5-2.5,8.3-3.8l8.2-4
						c2.7-1.3,5.4-2.7,8.1-4.1c2.7-1.3,5.4-2.8,8.1-4.2c-5.2,3.2-10.4,6.2-15.8,9.1c-5.4,2.9-10.9,5.5-16.4,8
						c-5.6,2.5-11.1,4.9-16.8,7.1C209.9,444.2,204.2,446.3,198.3,448z"/>
					<path class="st8" d="M158.8,274.3c2.6,0.6,5,1.6,7.5,2.7c2.4,1.1,4.8,2.3,7,3.8c-2.6-0.6-5-1.6-7.5-2.7
						C163.4,277,161.1,275.8,158.8,274.3z"/>
				</g>
			</g>
			<g>
				<g>
					<polygon class="st7" points="270.6,244 257.9,271.1 233.2,252 225.4,246 237.9,219 246.5,225.5 					"/>
					<path class="st8" d="M246.5,225.5c-3,5.8-9.7,19-13.3,26.4l-7.8-6l12.5-27L246.5,225.5z"/>
				</g>
				<g>
					<polygon class="st7" points="305.3,244 284.5,276.9 281.7,270.3 270.6,244 293,219 297,219 					"/>
					<path class="st8" d="M277.8,240c0,0,15.7,20.6,15.7,21.1c0,0.3-7.6,6.1-11.7,9.3L270.6,244l22.4-25h4L277.8,240z"/>
				</g>
			</g>
			<g>
				<g>
					<g>
						<polygon class="st9" points="424,503.8 372.5,477 318.3,514.8 318.3,428.2 318.3,388.4 318.3,381 383.9,375 384.3,376.4 
							385.2,379.2 396.4,415.3 						"/>
						<path class="st10" d="M396.4,415.3c-0.5,0.5-1.1,1-1.6,1.4c-31,27.2-63.9,17-76.5,11.4l0-39.8l66-11.9l0.9,2.8L396.4,415.3z"
							/>
					</g>
					<polygon class="st11" points="424,503.8 394.8,416.7 382.8,381.1 385.2,379.2 396.4,415.3 					"/>
				</g>
				<g>
					<g>
						<path class="st12" d="M420.6,322.9c0,42.5-32,77.6-73.2,82.4c-1.2,0.1-2.5,0.3-3.7,0.4c-2,0.1-4,0.2-6,0.2
							c-1.6,0-3.2,0-4.8-0.1c-1.2-0.1-2.5-0.2-3.7-0.3c-3.2-0.3-6.3-0.8-9.4-1.5c-1.2-0.3-2.4-0.6-3.6-0.9c-2.5-0.7-4.9-1.4-7.2-2.3
							c-1.3-0.4-2.5-0.9-3.7-1.5c-3.3-1.4-6.4-3-9.4-4.7c-1.1-0.6-2.1-1.3-3.2-2c-3.9-2.6-7.7-5.4-11.1-8.6
							c-0.9-0.8-1.8-1.7-2.6-2.5c-5.2-5.2-9.7-11.2-13.4-17.7c-0.6-1.1-1.2-2.2-1.8-3.3c-2-3.9-3.7-8.1-5.1-12.3
							c-0.4-1.2-0.7-2.3-1-3.5c-1.1-4.2-1.9-8.5-2.4-12.8c-0.1-1.2-0.2-2.4-0.3-3.6c-0.1-1.7-0.2-3.5-0.2-5.3c0-0.9,0-1.8,0-2.7
							c0-1.2,0.1-2.5,0.2-3.7c0.3-3.4,0.7-6.7,1.4-9.9c0.2-1.2,0.5-2.4,0.8-3.6c0.8-3.4,1.9-6.8,3.2-10c0.4-1.2,0.9-2.4,1.5-3.5
							c1.6-3.7,3.5-7.3,5.7-10.6c0.7-1.1,1.4-2.2,2.2-3.3c2-2.8,4.1-5.5,6.4-8.1c0.9-1,1.9-2,2.9-3c3.5-3.5,7.4-6.8,11.5-9.6
							c1.4-1,2.8-1.9,4.3-2.8c12.5-7.6,27.3-12,43-12C383.4,240,420.6,277.1,420.6,322.9z"/>
						<g>
							<path class="st13" d="M274.1,306c-5.9,0.4-11.9,0.6-17.8,0.7c0.2-1.2,0.5-2.4,0.8-3.6c5.7,0,11.3-0.3,17-0.7
								C276.4,302.2,276.4,305.8,274.1,306z"/>
							<path class="st13" d="M277.3,293.9c-5.7-0.2-11.4-0.5-17.1-0.9c0.4-1.2,0.9-2.4,1.5-3.5c5.2,0.4,10.4,0.6,15.6,0.8
								C279.7,290.3,279.7,294,277.3,293.9z"/>
							<path class="st13" d="M282.8,280.6c-5.2-0.4-10.3-1-15.4-1.8c0.7-1.1,1.4-2.2,2.2-3.3c4.4,0.7,8.8,1.2,13.2,1.5
								C285.1,277.1,285.1,280.8,282.8,280.6z"/>
							<path class="st13" d="M291.9,270.7c-5.4-0.8-10.6-1.9-15.9-3.3c0.9-1,1.9-2,2.9-3c4.6,1.2,9.3,2.1,14,2.8
								C295.2,267.6,294.2,271.1,291.9,270.7z"/>
							<path class="st13" d="M302.8,257.3c-4.2-0.7-8.3-1.6-12.5-2.5c1.4-1,2.8-1.9,4.3-2.8c3,0.6,6.1,1.2,9.1,1.8
								C306.1,254.1,305.1,257.7,302.8,257.3z"/>
							<path class="st13" d="M271.3,317.9c-5.5,0.8-11,1.6-16.6,2.4c0-1.2,0.1-2.5,0.2-3.7c5.1-0.7,10.3-1.5,15.4-2.2
								C272.6,314,273.6,317.5,271.3,317.9z"/>
							<path class="st13" d="M268,329.9c-4.3,0.7-8.6,1.3-12.9,2c-0.1-1.2-0.2-2.4-0.3-3.6c4.1-0.6,8.1-1.2,12.2-1.9
								C269.3,326,270.3,329.5,268,329.9z"/>
							<path class="st13" d="M276.8,344c-6.1,1.3-12.1,2.7-18.2,4.2c-0.4-1.2-0.7-2.3-1-3.5c6-1.5,12.1-2.9,18.2-4.2
								C278.1,340,279.1,343.5,276.8,344z"/>
							<path class="st13" d="M281.7,359.3c-5.5,1.3-10.9,2.8-16.3,4.5c-0.6-1.1-1.2-2.2-1.8-3.3c5.6-1.8,11.3-3.4,17.1-4.7
								C283.1,355.2,284,358.8,281.7,359.3z"/>
							<path class="st13" d="M294.2,373.5c-4.2,3.5-8.5,6.9-12.7,10.4c-0.9-0.8-1.8-1.7-2.6-2.5c4.3-3.5,8.5-7,12.8-10.4
								C293.4,369.5,296,372.1,294.2,373.5z"/>
							<path class="st13" d="M303.6,387.8c-2.8,2-5.4,4.3-7.9,6.7c-1.1-0.6-2.1-1.3-3.2-2c2.8-2.9,5.9-5.5,9.2-7.9
								C303.7,383.3,305.5,386.4,303.6,387.8z"/>
							<path class="st13" d="M316.8,392.3c-2.5,3-5.1,5.8-7.9,8.5c-1.3-0.4-2.5-0.9-3.7-1.5c3.2-3,6.2-6.2,9.1-9.6
								C315.8,387.9,318.3,390.5,316.8,392.3z"/>
							<path class="st13" d="M323.7,394.6c-1.3,3.1-2.6,6.2-4,9.3c-1.2-0.3-2.4-0.6-3.6-0.9c1.4-3.1,2.7-6.2,4-9.4
								C321.1,391.5,324.6,392.5,323.7,394.6z"/>
							<path class="st13" d="M334.7,395.5c-0.3,3.4-0.8,6.7-1.7,9.9c0,0.1-0.1,0.2-0.1,0.3c-1.2-0.1-2.5-0.2-3.7-0.3
								c1-3.2,1.6-6.6,1.9-9.9C331.2,393.2,334.9,393.2,334.7,395.5z"/>
							<path class="st13" d="M348.9,393.8c-0.4,3.8-0.9,7.7-1.5,11.5c-1.2,0.1-2.5,0.3-3.7,0.4c0.6-3.9,1.1-7.9,1.6-11.9
								C345.5,391.4,349.2,391.4,348.9,393.8z"/>
						</g>
					</g>
					<g>
						<g>
							<g>
								<path class="st0" d="M429,320.1c0,20.9-7.8,40.1-20.6,54.7c-15.2,17.3-37.5,28.3-62.4,28.3c-45.8,0-82.9-37.1-82.9-82.9
									c0-45.8,37.1-82.9,82.9-82.9c2.6,0,5.2,0.1,7.8,0.4C396,241.4,429,276.9,429,320.1z"/>
								<circle class="st14" cx="346.1" cy="320.1" r="67.3"/>
							</g>
							<polygon class="st12" points="388.6,329.3 360.5,336.3 350.4,363.4 335.1,338.8 306.2,337.6 324.8,315.4 317.1,287.6 
								343.9,298.4 368,282.5 366,311.3 							"/>
						</g>
						<path class="st15" d="M408.4,374.7c23.3-31.7,21.9-78.4-4.9-107.5c-13.2-14.4-31-24.1-49.7-29.8c42.2,3.9,75.2,39.4,75.2,82.6
							C429,341,421.2,360.1,408.4,374.7z"/>
					</g>
				</g>
			</g>
			<g>
				<g>
					<g>
						<g>
							<path class="st7" d="M291.1,401.3l-34.8,28.5c0,0-9.6-16.5-16.1-34.7c-2.3-6.6-4.2-13.3-5.1-19.6l33.2-5.4
								c0.3-0.1,3,3.5,6.5,8.3C281.5,387.5,291.1,401.3,291.1,401.3z"/>
							<path class="st8" d="M274.8,378.3L240.2,395c-2.3-6.6-4.2-13.3-5.1-19.6l33.2-5.4C268.6,369.9,271.3,373.5,274.8,378.3z"/>
						</g>
						<circle class="st3" cx="279.1" cy="403.9" r="3.6"/>
					</g>
					<path class="st5" d="M314.5,378.5c-1.4,5.1-5.2,9.3-9.4,12.2c-2.9,2-6,3.5-9.3,4.7c-3.4,1.2-6.4,2.8-10.1,1.9
						c-2.6-0.6-4.8-2.2-6.9-4c-5.3-4.4-8.1-9.4-8.4-16.3c-0.1-1.8-0.1-3.7,0-5.5c0.3-5.8,2.3-11.5,6-16.1c4.6-5.7,9.8-9.4,13.8-11
						c2.9-1.2,5.2-1.2,6.3-0.2v0c0.1,0.1,0.2,0.2,0.3,0.4c1.9,3.3-18.1,16.1-15.4,28.6c0,0,14.7-21.6,20.2-19
						c5.4,2.5-12.5,25.2-13,25.8c0.5-0.6,18.2-20.1,21.9-17.3c3.8,2.9-17.6,23.8-17.6,23.8s7.2,0.5,12.3-3.9
						c5.1-4.4,1.5-12.2,7.5-11.1C315.5,372,315,376.4,314.5,378.5z"/>
				</g>
				<path class="st5" d="M420.6,376.1c4.8-11.7-14.4-37.9-19.1-35.9c-4.6,2,14.6,24.9,11.8,28.5c-2.7,3.6-14.3-23.1-21.1-21.1
					c-6.8,2,16.2,27.7,12.9,30.8c-3.2,3.1-15.4-21.2-21.2-18.3c-5.9,2.9,14,24.9,12.1,26.3c-1.9,1.4-6.4,4.4-6.4,4.4
					S413.3,393.7,420.6,376.1z"/>
			</g>
		</g>
	</g>
</g>
</svg>
