<?xml version="1.0" encoding="utf-8"?>
<!-- Generator: Adobe Illustrator 20.0.0, SVG Export Plug-In . SVG Version: 6.00 Build 0)  -->
<svg version="1.1" id="Capa_1" xmlns="http://www.w3.org/2000/svg" xmlns:xlink="http://www.w3.org/1999/xlink" x="0px" y="0px"
	 viewBox="0 0 25 25" style="enable-background:new 0 0 25 25;" xml:space="preserve">
<style type="text/css">
	.st0{fill:#18BAFB;}
	.st1{opacity:0.53;fill:#FAFEFF;}
	.st2{opacity:0.53;fill:#0087C3;}
</style>
<g>
	<circle class="st0" cx="12.5" cy="12.5" r="11"/>
	<path class="st1" d="M17.1,11.2c-5.4,0-9.8,4.4-9.8,9.8c0,0.4,0.1,0.8,0.1,1.2c1.6,0.8,3.3,1.3,5.2,1.3c5.7,0,10.4-4.4,10.9-10
		C21.7,12,19.5,11.2,17.1,11.2"/>
	<path class="st2" d="M13.2,18.2c0-3.5-2.8-6.3-6.3-6.3c-2.1,0-4,1-5.2,2.7c0.8,4.5,4.3,8,8.8,8.8C12.2,22.2,13.2,20.3,13.2,18.2"/>
</g>
</svg>
