<?xml version="1.0" encoding="utf-8"?>
<!-- Generator: Adobe Illustrator 20.0.0, SVG Export Plug-In . SVG Version: 6.00 Build 0)  -->
<svg version="1.1" id="Layer_1" xmlns="http://www.w3.org/2000/svg" xmlns:xlink="http://www.w3.org/1999/xlink" x="0px" y="0px"
	 viewBox="0 0 500 300" style="enable-background:new 0 0 500 300;" xml:space="preserve">
<style type="text/css">
	.st0{fill:#1A3D82;}
</style>
<title>vieno_not</title>
<path class="st0" d="M271.2,161.1l-9.5-5.3l5.2-3l0,0c1-0.6,1.5-1.6,1.5-2.7c0-1.1-0.6-2.2-1.6-2.7l-22.1-12.9
	c-0.5-0.3-1.1-0.4-1.7-0.4c-0.6,0-1.3,0.1-1.9,0.4c-0.7,0.4-2.1,1.3-2.1,2.7v6l-8.5-4.7c-0.8-0.4-1.8-0.2-2.2,0.6
	c-0.4,0.8-0.2,1.8,0.6,2.2l0,0l10.1,5.6v16.1c0,1.5,1.4,2.3,2.1,2.7c1.2,0.6,2.5,0.6,3.7,0l13.6-7.9l11.2,6.3
	c0.8,0.4,1.8,0.2,2.2-0.6C272.2,162.6,272,161.6,271.2,161.1L271.2,161.1z M242.2,137.5l0.4-0.2c0.1,0,0.3,0,0.4,0l21.9,12.8
	l-6.6,3.9l-16.1-9L242.2,137.5z M243.2,162.7c-0.2,0-0.4,0-0.5,0l-0.4-0.3v-13.7l12.8,7.1L243.2,162.7z"/>
</svg>
