<?xml version="1.0" encoding="utf-8"?>
<!-- Generator: Adobe Illustrator 20.0.0, SVG Export Plug-In . SVG Version: 6.00 Build 0)  -->
<svg version="1.1" id="Layer_1" xmlns="http://www.w3.org/2000/svg" xmlns:xlink="http://www.w3.org/1999/xlink" x="0px" y="0px"
	 viewBox="0 0 110 110" style="enable-background:new 0 0 110 110;" xml:space="preserve">
<style type="text/css">
	.st0{fill:#1A3D82;}
</style>
<path class="st0" d="M96.4,75.6L77.8,65.2L88,59.4l0,0c2-1.2,2.9-3.1,2.9-5.3c0-2.2-1.2-4.3-3.1-5.3L44.6,23.6
	c-1-0.6-2.2-0.8-3.3-0.8c-1.2,0-2.5,0.2-3.7,0.8c-1.4,0.8-4.1,2.5-4.1,5.3v11.7l-16.6-9.2c-1.6-0.8-3.5-0.4-4.3,1.2
	c-0.8,1.6-0.4,3.5,1.2,4.3l0,0l19.8,11v31.5c0,2.9,2.7,4.5,4.1,5.3c2.3,1.2,4.9,1.2,7.2,0l26.6-15.5l21.9,12.3
	c1.6,0.8,3.5,0.4,4.3-1.2C98.4,78.5,98,76.6,96.4,75.6L96.4,75.6z M39.7,29.4l0.8-0.4c0.2,0,0.6,0,0.8,0l42.9,25l-12.9,7.6
	L39.7,44.1L39.7,29.4z M41.6,78.7c-0.4,0-0.8,0-1,0l-0.8-0.6V51.3l25,13.9L41.6,78.7z"/>
</svg>
