<svg id="Layer_1" data-name="Layer 1" xmlns="http://www.w3.org/2000/svg" viewBox="0 0 500 300"><defs><style>.cls-1{fill:#1a3d82;}</style></defs><title>vieno_not</title><path class="cls-1" d="M204.68,167h1.21l-2.5,7.14h-1.23L199.67,167h1.2l1.49,4.44q.12.32.25.82t.17.75c0-.25.11-.53.2-.86s.16-.57.21-.72Z"/><path class="cls-1" d="M206.64,167.3a.63.63,0,0,1,.17-.47.66.66,0,0,1,.48-.17.64.64,0,0,1,.47.17.63.63,0,0,1,.17.47.63.63,0,0,1-.17.46.64.64,0,0,1-.47.17.65.65,0,0,1-.48-.17A.63.63,0,0,1,206.64,167.3Zm1.22,6.83h-1.15v-5.4h1.15Z"/><path class="cls-1" d="M211.32,174.23a1.88,1.88,0,0,1-1.58-.73,4,4,0,0,1,0-4.12,1.9,1.9,0,0,1,1.59-.74,1.86,1.86,0,0,1,1.62.79H213a6.91,6.91,0,0,1-.08-.92v-2h1.15v7.6h-.9l-.2-.71h-.05A1.83,1.83,0,0,1,211.32,174.23Zm.31-.93a1.25,1.25,0,0,0,1-.4,2.09,2.09,0,0,0,.33-1.29v-.16a2.42,2.42,0,0,0-.33-1.45,1.23,1.23,0,0,0-1-.43,1.06,1.06,0,0,0-.93.49,2.52,2.52,0,0,0-.33,1.4,2.46,2.46,0,0,0,.32,1.37A1.07,1.07,0,0,0,211.63,173.3Z"/><path class="cls-1" d="M218.09,174.23a2.61,2.61,0,0,1-2-.73,2.79,2.79,0,0,1-.71-2,3.06,3.06,0,0,1,.66-2.08,2.28,2.28,0,0,1,1.81-.76,2.23,2.23,0,0,1,1.69.65,2.48,2.48,0,0,1,.62,1.79v.62h-3.6a1.77,1.77,0,0,0,.42,1.21,1.48,1.48,0,0,0,1.13.42,4.21,4.21,0,0,0,.89-.09,4.73,4.73,0,0,0,.89-.3v.93a3.52,3.52,0,0,1-.85.28A5.19,5.19,0,0,1,218.09,174.23Zm-.21-4.73a1.15,1.15,0,0,0-.88.35,1.65,1.65,0,0,0-.39,1h2.45a1.5,1.5,0,0,0-.32-1A1.11,1.11,0,0,0,217.88,169.5Z"/><path class="cls-1" d="M226.28,171.42a3,3,0,0,1-.68,2.07,2.43,2.43,0,0,1-1.89.74,2.59,2.59,0,0,1-1.34-.34,2.25,2.25,0,0,1-.89-1,3.34,3.34,0,0,1-.31-1.48,2.93,2.93,0,0,1,.67-2.05,2.44,2.44,0,0,1,1.9-.74,2.38,2.38,0,0,1,1.86.75A2.92,2.92,0,0,1,226.28,171.42Zm-3.93,0q0,1.87,1.38,1.87t1.37-1.87q0-1.85-1.38-1.85a1.17,1.17,0,0,0-1,.48A2.44,2.44,0,0,0,222.35,171.42Z"/><path class="cls-1" d="M234.95,174.13H233.8v-3.32a1.45,1.45,0,0,0-.25-.93,1,1,0,0,0-.8-.31,1.27,1.27,0,0,0-1.06.43,2.37,2.37,0,0,0-.34,1.44v2.69H230.2v-5.4h.9l.16.71h.06a1.6,1.6,0,0,1,.69-.6,2.33,2.33,0,0,1,1-.21,1.73,1.73,0,0,1,1.94,2Z"/><path class="cls-1" d="M241.34,171.42a3,3,0,0,1-.68,2.07,2.43,2.43,0,0,1-1.89.74,2.59,2.59,0,0,1-1.34-.34,2.25,2.25,0,0,1-.89-1,3.34,3.34,0,0,1-.31-1.48,2.93,2.93,0,0,1,.67-2.05,2.44,2.44,0,0,1,1.9-.74,2.38,2.38,0,0,1,1.86.75A2.92,2.92,0,0,1,241.34,171.42Zm-3.93,0q0,1.87,1.38,1.87t1.37-1.87q0-1.85-1.38-1.85a1.17,1.17,0,0,0-1,.48A2.44,2.44,0,0,0,237.4,171.42Z"/><path class="cls-1" d="M247.61,174.23a2.61,2.61,0,0,1-2-.73,2.79,2.79,0,0,1-.71-2,3.06,3.06,0,0,1,.66-2.08,2.28,2.28,0,0,1,1.81-.76,2.23,2.23,0,0,1,1.69.65,2.48,2.48,0,0,1,.62,1.79v.62h-3.6a1.77,1.77,0,0,0,.42,1.21,1.48,1.48,0,0,0,1.13.42,4.21,4.21,0,0,0,.89-.09,4.73,4.73,0,0,0,.89-.3v.93a3.52,3.52,0,0,1-.85.28A5.19,5.19,0,0,1,247.61,174.23Zm-.21-4.73a1.15,1.15,0,0,0-.88.35,1.65,1.65,0,0,0-.39,1h2.45a1.5,1.5,0,0,0-.32-1A1.11,1.11,0,0,0,247.4,169.5Z"/><path class="cls-1" d="M255.76,174.13h-1.15v-3.32a1.46,1.46,0,0,0-.25-.93,1,1,0,0,0-.8-.31,1.27,1.27,0,0,0-1.06.43,2.37,2.37,0,0,0-.34,1.44v2.69H251v-5.4h.9l.16.71h.06a1.6,1.6,0,0,1,.69-.6,2.33,2.33,0,0,1,1-.21,1.73,1.73,0,0,1,1.94,2Z"/><path class="cls-1" d="M259.54,174.23a2.37,2.37,0,0,1-1.86-.71,3.63,3.63,0,0,1,0-4.15,2.47,2.47,0,0,1,1.93-.73,3.61,3.61,0,0,1,1.54.32l-.35.92a3.49,3.49,0,0,0-1.2-.28q-1.4,0-1.4,1.86a2.22,2.22,0,0,0,.35,1.36,1.21,1.21,0,0,0,1,.46,2.94,2.94,0,0,0,1.45-.38v1a2.27,2.27,0,0,1-.66.26A4,4,0,0,1,259.54,174.23Z"/><path class="cls-1" d="M267.1,171.42a3,3,0,0,1-.68,2.07,2.43,2.43,0,0,1-1.89.74,2.59,2.59,0,0,1-1.34-.34,2.25,2.25,0,0,1-.89-1,3.35,3.35,0,0,1-.31-1.48,2.93,2.93,0,0,1,.67-2.05,2.44,2.44,0,0,1,1.9-.74,2.38,2.38,0,0,1,1.86.75A2.92,2.92,0,0,1,267.1,171.42Zm-3.93,0q0,1.87,1.38,1.87t1.37-1.87q0-1.85-1.38-1.85a1.17,1.17,0,0,0-1,.48A2.44,2.44,0,0,0,263.17,171.42Z"/><path class="cls-1" d="M273.17,174.13H272v-3.32a1.46,1.46,0,0,0-.25-.93,1,1,0,0,0-.8-.31,1.27,1.27,0,0,0-1.06.43,2.37,2.37,0,0,0-.34,1.44v2.69h-1.15v-5.4h.9l.16.71h.06a1.6,1.6,0,0,1,.69-.6,2.33,2.33,0,0,1,1-.21,1.73,1.73,0,0,1,1.94,2Z"/><path class="cls-1" d="M276.78,173.3a2.79,2.79,0,0,0,.84-.13V174a2.29,2.29,0,0,1-.49.14,3.34,3.34,0,0,1-.62.06q-1.63,0-1.63-1.72V169.6h-.74v-.51l.79-.42.39-1.14H276v1.2h1.54v.87H276v2.89a.82.82,0,0,0,.21.61A.76.76,0,0,0,276.78,173.3Z"/><path class="cls-1" d="M281.44,168.64a2.78,2.78,0,0,1,.57,0l-.11,1.07a2.17,2.17,0,0,0-.51-.06,1.47,1.47,0,0,0-1.12.45,1.63,1.63,0,0,0-.43,1.17v2.82H278.7v-5.4h.9l.15,1h.06a2.14,2.14,0,0,1,.7-.77A1.67,1.67,0,0,1,281.44,168.64Z"/><path class="cls-1" d="M286.39,174.13l-.23-.75h0a2.22,2.22,0,0,1-.79.67,2.5,2.5,0,0,1-1,.18,1.72,1.72,0,0,1-1.24-.43,1.6,1.6,0,0,1-.45-1.22,1.43,1.43,0,0,1,.62-1.26,3.58,3.58,0,0,1,1.89-.46l.93,0v-.29a1.1,1.1,0,0,0-.24-.77,1,1,0,0,0-.75-.26,2.6,2.6,0,0,0-.8.12,6,6,0,0,0-.73.29l-.37-.82a4,4,0,0,1,1-.35,4.46,4.46,0,0,1,1-.12,2.33,2.33,0,0,1,1.55.45,1.76,1.76,0,0,1,.53,1.41v3.64Zm-1.71-.78a1.42,1.42,0,0,0,1-.35,1.26,1.26,0,0,0,.38-1v-.47l-.69,0a2.36,2.36,0,0,0-1.18.27.82.82,0,0,0-.37.74.72.72,0,0,0,.21.56A.93.93,0,0,0,284.68,173.35Z"/><path class="cls-1" d="M290.63,174.23a1.88,1.88,0,0,1-1.58-.73,4,4,0,0,1,0-4.12,1.9,1.9,0,0,1,1.59-.74,1.86,1.86,0,0,1,1.62.79h.06a6.83,6.83,0,0,1-.08-.92v-2h1.15v7.6h-.9l-.2-.71h-.05A1.83,1.83,0,0,1,290.63,174.23Zm.31-.93a1.25,1.25,0,0,0,1-.4,2.09,2.09,0,0,0,.33-1.29v-.16A2.42,2.42,0,0,0,292,170a1.23,1.23,0,0,0-1-.43,1.06,1.06,0,0,0-.93.49,2.52,2.52,0,0,0-.33,1.4,2.45,2.45,0,0,0,.32,1.37A1.07,1.07,0,0,0,290.94,173.3Z"/><path class="cls-1" d="M299.83,171.42a3,3,0,0,1-.68,2.07,2.43,2.43,0,0,1-1.89.74,2.59,2.59,0,0,1-1.34-.34,2.25,2.25,0,0,1-.89-1,3.35,3.35,0,0,1-.31-1.48,2.93,2.93,0,0,1,.67-2.05,2.44,2.44,0,0,1,1.9-.74,2.38,2.38,0,0,1,1.86.75A2.92,2.92,0,0,1,299.83,171.42Zm-3.93,0q0,1.87,1.38,1.87t1.37-1.87q0-1.85-1.38-1.85a1.17,1.17,0,0,0-1,.48A2.44,2.44,0,0,0,295.9,171.42Z"/><path class="cls-1" d="M266.83,147.33l-7.57-4.22,4.13-2.42h0a2.46,2.46,0,0,0,1.2-2.16,2.54,2.54,0,0,0-1.26-2.16l-17.58-10.26a2.93,2.93,0,0,0-1.36-.34,3.37,3.37,0,0,0-1.49.34c-.54.32-1.67,1-1.67,2.15v4.79l-6.77-3.77a1.31,1.31,0,1,0-1.28,2.29l8,4.48V148.8c0,1.17,1.13,1.83,1.69,2.16a3.39,3.39,0,0,0,2.95,0l10.78-6.31,8.92,5a1.31,1.31,0,1,0,1.28-2.29Zm-23-18.72.3-.19a.93.93,0,0,1,.33,0l17.38,10.15-5.26,3.08-12.76-7.11Zm.75,20a1.38,1.38,0,0,1-.43,0l-.32-.21V137.52L254,143.17Z"/></svg>