<?xml version="1.0" encoding="utf-8"?>
<!-- Generator: Adobe Illustrator 20.0.0, SVG Export Plug-In . SVG Version: 6.00 Build 0)  -->
<svg version="1.1" id="Layer_1" xmlns="http://www.w3.org/2000/svg" xmlns:xlink="http://www.w3.org/1999/xlink" x="0px" y="0px"
	 viewBox="0 0 200 200" style="enable-background:new 0 0 200 200;" xml:space="preserve">
<style type="text/css">
	.st0{fill:#EBF1FA;}
	.st1{fill:#BFCDE2;}
	.st2{fill:#D3DDED;}
	.st3{fill:#1A3D82;}
	.st4{fill:#FFFFFF;}
	.st5{fill:url(#SVGID_1_);}
</style>
<g>
	<path class="st0" d="M178.3,187.5l-151.4-0.3c-3,0-5.4-2.4-5.4-5.4L21.7,96c0-3,2.4-5.4,5.4-5.4l151.4,0.3c3,0,5.4,2.4,5.4,5.4
		l-0.2,85.7C183.8,185.1,181.3,187.5,178.3,187.5z"/>
	<path class="st1" d="M183.9,94.5c0-2-1.6-3.6-3.6-3.6L25.3,90.6c-2,0-3.6,1.6-3.6,3.6l0,7.6l162.1,65.4L183.9,94.5z"/>
	<path class="st0" d="M185.3,106l-165-0.3c-1,0-1.8-0.8-1.8-1.8l0-23.3c0-1,0.8-1.8,1.8-1.8l165,0.3c1,0,1.8,0.8,1.8,1.8l0,23.3
		C187.1,105.2,186.3,106,185.3,106z"/>
	<path class="st2" d="M36.7,78.8l-18.3,24l0,1.7c0,0.7,0.5,1.2,1.2,1.2l39.6,0.1l18.9-26.9L36.7,78.8z"/>
	<polygon class="st2" points="109,78.9 88.5,105.8 131.5,105.9 150.4,79 	"/>
	<path class="st0" d="M180.2,37.6l-159.9,41c-1,0.2-2-0.3-2.2-1.3l-5.8-22.6c-0.2-1,0.3-2,1.3-2.2l159.9-41c1-0.2,2,0.3,2.2,1.3
		l5.8,22.6C181.8,36.4,181.2,37.3,180.2,37.6z"/>
	<path class="st2" d="M29.6,48.4L17.9,76.2l0.4,1.6c0.2,0.6,0.8,1,1.4,0.9l38.4-9.8l11.5-30.8L29.6,48.4z"/>
	<polygon class="st2" points="99.6,30.4 86.5,61.6 128.1,50.9 139.7,20.2 	"/>
	<polygon class="st3" points="89,119.2 88.9,161.3 124.7,140.3 	"/>
	<polygon class="st4" points="85.1,122.3 85.1,158.4 115.8,140.4 	"/>
	
		<linearGradient id="SVGID_1_" gradientUnits="userSpaceOnUse" x1="-42.8097" y1="16.7411" x2="74.5296" y2="59.6487" gradientTransform="matrix(0.9536 -0.301 0.301 0.9536 93.5663 76.6523)">
		<stop  offset="0" style="stop-color:#18BAFB"/>
		<stop  offset="0.9995" style="stop-color:#3D90E1"/>
	</linearGradient>
	<polygon class="st5" points="21.7,108.7 21.7,105.8 184,106.3 184,109.1 	"/>
</g>
</svg>
